<?xml version="1.0" encoding="UTF-8" standalone="no"?>
<!-- Svg Vector Icons : http://www.onlinewebfonts.com/icon -->

<svg
   version="1.1"
   x="0px"
   y="0px"
   viewBox="0 0 23.999999 24"
   enable-background="new 0 0 1000 1000"
   xml:space="preserve"
   id="svg30"
   sodipodi:docname="redshift-status-off.svg"
   width="24"
   height="24"
   inkscape:version="1.2.1 (9c6d41e410, 2022-07-14)"
   xmlns:inkscape="http://www.inkscape.org/namespaces/inkscape"
   xmlns:sodipodi="http://sodipodi.sourceforge.net/DTD/sodipodi-0.dtd"
   xmlns="http://www.w3.org/2000/svg"
   xmlns:svg="http://www.w3.org/2000/svg"
   xmlns:rdf="http://www.w3.org/1999/02/22-rdf-syntax-ns#"
   xmlns:cc="http://creativecommons.org/ns#"
   xmlns:dc="http://purl.org/dc/elements/1.1/"><style
   id="style233">
.ColorScheme-Text { 
    color:#eff0f1;
}
</style><metadata
   id="metadata9"><rdf:RDF><cc:Work
       rdf:about=""><dc:format>image/svg+xml</dc:format><dc:type
         rdf:resource="http://purl.org/dc/dcmitype/StillImage" /></cc:Work></rdf:RDF></metadata><defs
   id="defs34" /><sodipodi:namedview
   pagecolor="#ffffff"
   bordercolor="#666666"
   borderopacity="1"
   objecttolerance="10"
   gridtolerance="10"
   guidetolerance="10"
   inkscape:pageopacity="0"
   inkscape:pageshadow="2"
   inkscape:window-width="1920"
   inkscape:window-height="1004"
   id="namedview32"
   showgrid="false"
   inkscape:zoom="15.104"
   inkscape:cx="-16.551907"
   inkscape:cy="3.9393538"
   inkscape:window-x="0"
   inkscape:window-y="0"
   inkscape:window-maximized="1"
   inkscape:current-layer="svg30"
   inkscape:showpageshadow="2"
   inkscape:pagecheckerboard="0"
   inkscape:deskcolor="#d1d1d1" />

<polygon
   points="43.200012,69 50,69 56.799988,69 59,69 59,66.25 59,66 50,66 41,66 41,66.25 41,69 "
   id="polygon6-9-7"
   transform="matrix(0.30472566,0,0,0.33333326,-3.236434,-4.999995)"
   style="fill:currentColor;fill-opacity:0.4"
   class="ColorScheme-Text" /><path
   d="M 11.999849,18 H 10.415274 9.283531 c 0.213468,1.612481 1.827443,1.924991 2.462354,1.984843 0.13906,0.013 0.234666,0.015 0.253964,0.0152 0.01927,-6.4e-5 0.114912,-0.0026 0.253971,-0.0152 C 12.888737,19.924963 14.502699,19.612481 14.716175,18 h -1.131743 z"
   id="path8-3-9"
   style="fill:currentColor;fill-opacity:0.4;stroke-width:0.332877"
   class="ColorScheme-Text " /><path
   d="M 11,4.380703 C 10.9982,4.273006 10.96914,4 10.500032,4 10.030946,4 10.001773,4.272876 10,4.389101 L 10.000062,14 H 11 Z"
   id="path10-6-2"
   style="fill:currentColor;fill-opacity:0.4;stroke-width:0.187638"
   sodipodi:nodetypes="cscccc"
   class="ColorScheme-Text" /><path
   d="M 16,6.625644 C 16,5.868958 15.395428,5.626603 15,5.549018 L 15.000165,14 H 16 Z"
   id="path12-06-0"
   style="fill:currentColor;fill-opacity:0.4;stroke-width:0.304535"
   class="ColorScheme-Text" /><path
   d="M 14,4.380703 C 13.9982,4.273006 13.96914,4 13.500002,4 13.0309,4 13.001715,4.272842 12.999944,4.389101 V 5.606599 L 13.000008,14 H 14 Z"
   id="path14-26-2"
   style="fill:currentColor;fill-opacity:0.4;stroke-width:0.187643"
   sodipodi:nodetypes="csccccc"
   class="ColorScheme-Text" /><path
   d="M 8,6.625625 V 14 H 9 V 5.548741 C 8.600758,5.625261 8,5.865778 8,6.625625 Z"
   id="path16-1-3"
   style="fill:currentColor;fill-opacity:0.4;stroke-width:0.304559"
   class="ColorScheme-Text" /><path
   d="m 15.284561,16 h 0.524361 C 15.920817,15.9985 16.828592,15.95964 17,15 H 16.570736 15.047111 11.999849 8.952598 7.428972 7 c 0.178546,0.987628 1.145547,1 1.190785,1 h 0.524351 0.474915 2.809798 2.809805 z"
   id="path18-8-7"
   style="fill:currentColor;fill-opacity:0.4;stroke-width:0.318703"
   class="ColorScheme-Text" /></svg>
