<?xml version="1.0" encoding="UTF-8" standalone="no"?>
<svg
   inkscape:version="1.2.1 (9c6d41e410, 2022-07-14)"
   height="24"
   width="24"
   sodipodi:docname="redshift-status-on.svg"
   id="svg30"
   xml:space="preserve"
   enable-background="new 0 0 1000 1000"
   viewBox="0 0 23.999999 24"
   y="0px"
   x="0px"
   version="1.1"
   xmlns:inkscape="http://www.inkscape.org/namespaces/inkscape"
   xmlns:sodipodi="http://sodipodi.sourceforge.net/DTD/sodipodi-0.dtd"
   xmlns="http://www.w3.org/2000/svg"
   xmlns:svg="http://www.w3.org/2000/svg"
   xmlns:rdf="http://www.w3.org/1999/02/22-rdf-syntax-ns#"
   xmlns:cc="http://creativecommons.org/ns#"
   xmlns:dc="http://purl.org/dc/elements/1.1/"><style
   id="style288">
.ColorScheme-Text { 
    color:#eff0f1;
}
</style><metadata
   id="metadata18"><rdf:RDF><cc:Work
       rdf:about=""><dc:format>image/svg+xml</dc:format><dc:type
         rdf:resource="http://purl.org/dc/dcmitype/StillImage" /></cc:Work></rdf:RDF></metadata><defs
   id="defs34" /><sodipodi:namedview
   inkscape:document-rotation="0"
   inkscape:current-layer="svg30"
   inkscape:window-maximized="1"
   inkscape:window-y="0"
   inkscape:window-x="0"
   inkscape:cy="5.6035901"
   inkscape:cx="-2.9370541"
   inkscape:zoom="12.938134"
   showgrid="true"
   id="namedview32"
   inkscape:window-height="1004"
   inkscape:window-width="1920"
   inkscape:pageshadow="2"
   inkscape:pageopacity="0"
   guidetolerance="10"
   gridtolerance="10"
   objecttolerance="10"
   borderopacity="1"
   bordercolor="#666666"
   pagecolor="#ffffff"
   inkscape:showpageshadow="2"
   inkscape:pagecheckerboard="0"
   inkscape:deskcolor="#d1d1d1"><inkscape:grid
     type="xygrid"
     id="grid294" /></sodipodi:namedview>

<polygon
   points="41,66.25 41,69 43.200012,69 50,69 56.799988,69 59,69 59,66.25 59,66 50,66 41,66 "
   id="polygon6-9"
   transform="matrix(0.30472567,0,0,0.33333333,-3.236283,-5)"
   style="fill:currentColor;fill-opacity:1"
   class="ColorScheme-Text" /><path
   d="M 11.999849,18 H 10.415274 9.283531 c 0.213468,1.612514 1.827443,1.92503 2.462354,1.984885 0.13906,0.01308 0.234666,0.01507 0.253964,0.01512 0.01927,-6.4e-5 0.114912,-0.0026 0.253972,-0.01512 C 12.888737,19.925005 14.502699,19.612514 14.716176,18 h -1.131744 z"
   id="path8-3"
   style="fill:currentColor;fill-opacity:1;stroke-width:0.33288"
   class="ColorScheme-Text " /><path
   d="M 11,4.408 C 10.9982,4.292582 10.96914,4 10.500006,4 10.030895,4 10.001721,4.292443 9.999948,4.417 L 10,14 h 1 z"
   id="path10-6"
   style="fill:currentColor;fill-opacity:1;stroke-width:0.194254"
   sodipodi:nodetypes="cscccc"
   class="ColorScheme-Text" /><path
   d="M 16,7 C 16,6.179114 15.361549,6.084169 15,6 v 8 h 1 z"
   id="path12-06"
   style="fill:currentColor;fill-opacity:1;stroke-width:0.303299"
   sodipodi:nodetypes="scccs"
   class="ColorScheme-Text" /><path
   d="M 14,4.408 C 13.9982,4.292582 13.96914,4 13.500014,4 13.030923,4 13.001739,4.292405 12.999968,4.417 V 5.721796 L 13,14 h 1 z"
   id="path14-26"
   style="fill:currentColor;fill-opacity:1;stroke-width:0.194252"
   sodipodi:nodetypes="csccccc"
   class="ColorScheme-Text" /><path
   d="m 8,7 v 7 H 9 V 6 C 8.63502,6.08301 8,6.175686 8,7 Z"
   id="path16-1"
   style="fill:currentColor;fill-opacity:1;stroke-width:0.303299"
   sodipodi:nodetypes="scccs"
   class="ColorScheme-Text" /><path
   d="m 15.284562,16 h 0.524361 C 15.920817,15.9985 16.828592,15.95964 17,15 H 16.570736 15.047111 11.999849 8.952598 7.428972 7 c 0.178546,0.987628 1.145547,1 1.190785,1 h 0.524351 0.474915 2.809798 2.809806 z"
   id="path18-8"
   style="fill:currentColor;fill-opacity:1;stroke-width:0.318703"
   class="ColorScheme-Text" /></svg>
