<?xml version="1.0" encoding="UTF-8" standalone="no"?>
<svg
   viewBox="0 0 22 22"
   version="1.1"
   id="svg1164"
   sodipodi:docname="redshift-status-on.svg"
   inkscape:version="1.2.1 (9c6d41e410, 2022-07-14)"
   xmlns:inkscape="http://www.inkscape.org/namespaces/inkscape"
   xmlns:sodipodi="http://sodipodi.sourceforge.net/DTD/sodipodi-0.dtd"
   xmlns="http://www.w3.org/2000/svg"
   xmlns:svg="http://www.w3.org/2000/svg">
  <sodipodi:namedview
     id="namedview1166"
     pagecolor="#ffffff"
     bordercolor="#666666"
     borderopacity="1.0"
     inkscape:showpageshadow="2"
     inkscape:pageopacity="0.0"
     inkscape:pagecheckerboard="0"
     inkscape:deskcolor="#d1d1d1"
     showgrid="true"
     inkscape:zoom="10.727273"
     inkscape:cx="7.6440676"
     inkscape:cy="11.13983"
     inkscape:window-width="1920"
     inkscape:window-height="1004"
     inkscape:window-x="0"
     inkscape:window-y="0"
     inkscape:window-maximized="1"
     inkscape:current-layer="svg1164">
    <inkscape:grid
       type="xygrid"
       id="grid1506" />
  </sodipodi:namedview>
  <defs
     id="defs3051">
    <style
       type="text/css"
       id="current-color-scheme">.ColorScheme-Text { color:#eff0f1; }
</style>
  </defs>
  <polygon
     points="56.799988,69 59,69 59,66.25 59,66 50,66 41,66 41,66.25 41,69 43.200012,69 50,69 "
     id="polygon6-9"
     transform="matrix(0.30472567,0,0,0.33333333,-4.236283,-6.0000001)"
     style="fill:currentColor;fill-opacity:1"
     class="ColorScheme-Text" />
  <path
     d="M 10.999849,17 H 9.415274 8.283531 c 0.213468,1.612514 1.827443,1.92503 2.462354,1.984885 0.13906,0.01308 0.234666,0.01507 0.253964,0.01512 0.01927,-6.4e-5 0.114912,-0.0026 0.253972,-0.01512 C 11.888737,18.925005 13.502699,18.612514 13.716176,17 h -1.131744 z"
     id="path8-3"
     style="fill:currentColor;fill-opacity:1;stroke-width:0.33288"
     class="ColorScheme-Text" />
  <path
     d="M 10,3.408 C 9.9982,3.292582 9.96914,3 9.500006,3 9.030895,3 9.001721,3.292443 8.999948,3.417 L 9,13 h 1 z"
     id="path10-6"
     style="fill:currentColor;fill-opacity:1;stroke-width:0.194254"
     sodipodi:nodetypes="cscccc"
     class="ColorScheme-Text" />
  <path
     d="M 15,6 C 15,5.179114 14.361549,5.084169 14,5 v 8 h 1 z"
     id="path12-06"
     style="fill:currentColor;fill-opacity:1;stroke-width:0.303299"
     sodipodi:nodetypes="scccs"
     class="ColorScheme-Text" />
  <path
     d="M 13,3.408 C 12.9982,3.292582 12.96914,3 12.500014,3 12.030923,3 12.001739,3.292405 11.999968,3.417 V 4.721796 L 12,13 h 1 z"
     id="path14-26"
     style="fill:currentColor;fill-opacity:1;stroke-width:0.194252"
     sodipodi:nodetypes="csccccc"
     class="ColorScheme-Text" />
  <path
     d="m 7,6 v 7 H 8 V 5 C 7.63502,5.08301 7,5.175686 7,6 Z"
     id="path16-1"
     style="fill:currentColor;fill-opacity:1;stroke-width:0.303299"
     sodipodi:nodetypes="scccs"
     class="ColorScheme-Text" />
  <path
     d="m 14.284562,15 h 0.524361 C 14.920817,14.9985 15.828592,14.95964 16,14 H 15.570736 14.047111 10.999849 7.952598 6.428972 6 c 0.178546,0.987628 1.145547,1 1.190785,1 h 0.524351 0.474915 2.809798 2.809806 z"
     id="path18-8"
     style="fill:currentColor;fill-opacity:1;stroke-width:0.318703"
     class="ColorScheme-Text" />
</svg>
