<?xml version="1.0" encoding="UTF-8" standalone="no"?>
<svg
   viewBox="0 0 22 22"
   version="1.1"
   id="svg1689"
   sodipodi:docname="redshift-status-off.svg"
   inkscape:version="1.2.1 (9c6d41e410, 2022-07-14)"
   xmlns:inkscape="http://www.inkscape.org/namespaces/inkscape"
   xmlns:sodipodi="http://sodipodi.sourceforge.net/DTD/sodipodi-0.dtd"
   xmlns="http://www.w3.org/2000/svg"
   xmlns:svg="http://www.w3.org/2000/svg">
  <sodipodi:namedview
     id="namedview1691"
     pagecolor="#ffffff"
     bordercolor="#666666"
     borderopacity="1.0"
     inkscape:showpageshadow="2"
     inkscape:pageopacity="0.0"
     inkscape:pagecheckerboard="0"
     inkscape:deskcolor="#d1d1d1"
     showgrid="false"
     inkscape:zoom="10.727273"
     inkscape:cx="11"
     inkscape:cy="11.13983"
     inkscape:window-width="1920"
     inkscape:window-height="1004"
     inkscape:window-x="0"
     inkscape:window-y="0"
     inkscape:window-maximized="1"
     inkscape:current-layer="svg1689" />
  <defs
     id="defs3051">
    <style
       type="text/css"
       id="current-color-scheme">.ColorScheme-Text { color:#eff0f1; }
</style>
  </defs>
  <polygon
     points="50,69 56.799988,69 59,69 59,66.25 59,66 50,66 41,66 41,66.25 41,69 43.200012,69 "
     id="polygon6-9-7"
     transform="matrix(0.30472566,0,0,0.33333326,-4.236434,-5.999995)"
     style="fill:currentColor;fill-opacity:0.4"
     class="ColorScheme-Text" />
  <path
     d="M 10.999849,17 H 9.415274 8.283531 c 0.213468,1.612481 1.827443,1.924991 2.462354,1.984843 0.13906,0.013 0.234666,0.015 0.253964,0.0152 0.01927,-6.4e-5 0.114912,-0.0026 0.253971,-0.0152 C 11.888737,18.924963 13.502699,18.612481 13.716175,17 h -1.131743 z"
     id="path8-3-9"
     style="fill:currentColor;fill-opacity:0.4;stroke-width:0.332877"
     class="ColorScheme-Text" />
  <path
     d="M 10,3.380703 C 9.9982,3.273006 9.96914,3 9.500032,3 9.030946,3 9.001773,3.272876 9,3.389101 L 9.000062,13 H 10 Z"
     id="path10-6-2"
     style="fill:currentColor;fill-opacity:0.4;stroke-width:0.187638"
     sodipodi:nodetypes="cscccc"
     class="ColorScheme-Text" />
  <path
     d="M 15,5.625644 C 15,4.868958 14.395428,4.626603 14,4.549018 L 14.000165,13 H 15 Z"
     id="path12-06-0"
     style="fill:currentColor;fill-opacity:0.4;stroke-width:0.304535"
     class="ColorScheme-Text" />
  <path
     d="M 13,3.380703 C 12.9982,3.273006 12.96914,3 12.500002,3 12.0309,3 12.001715,3.272842 11.999944,3.389101 V 4.606599 L 12.000008,13 H 13 Z"
     id="path14-26-2"
     style="fill:currentColor;fill-opacity:0.4;stroke-width:0.187643"
     sodipodi:nodetypes="csccccc"
     class="ColorScheme-Text" />
  <path
     d="M 7,5.625625 V 13 H 8 V 4.548741 C 7.600758,4.625261 7,4.865778 7,5.625625 Z"
     id="path16-1-3"
     style="fill:currentColor;fill-opacity:0.4;stroke-width:0.304559"
     class="ColorScheme-Text" />
  <path
     d="m 14.284561,15 h 0.524361 C 14.920817,14.9985 15.828592,14.95964 16,14 H 15.570736 14.047111 10.999849 7.952598 6.428972 6 c 0.178546,0.987628 1.145547,1 1.190785,1 h 0.524351 0.474915 2.809798 2.809805 z"
     id="path18-8-7"
     style="fill:currentColor;fill-opacity:0.4;stroke-width:0.318703"
     class="ColorScheme-Text" />
</svg>
