<?xml version="1.0" encoding="UTF-8" standalone="no"?>
<svg
   style="isolation:isolate"
   viewBox="0 0 34 34"
   width="34"
   height="34"
   version="1.1"
   id="svg16"
   sodipodi:docname="restart.svg"
   inkscape:version="1.2.1 (9c6d41e410, 2022-07-14)"
   xmlns:inkscape="http://www.inkscape.org/namespaces/inkscape"
   xmlns:sodipodi="http://sodipodi.sourceforge.net/DTD/sodipodi-0.dtd"
   xmlns:xlink="http://www.w3.org/1999/xlink"
   xmlns="http://www.w3.org/2000/svg"
   xmlns:svg="http://www.w3.org/2000/svg"
   xmlns:rdf="http://www.w3.org/1999/02/22-rdf-syntax-ns#"
   xmlns:cc="http://creativecommons.org/ns#"
   xmlns:dc="http://purl.org/dc/elements/1.1/">
  <metadata
     id="metadata22">
    <rdf:RDF>
      <cc:Work
         rdf:about="">
        <dc:format>image/svg+xml</dc:format>
        <dc:type
           rdf:resource="http://purl.org/dc/dcmitype/StillImage" />
      </cc:Work>
    </rdf:RDF>
  </metadata>
  <defs
     id="defs20">
    <linearGradient
       inkscape:collect="always"
       id="linearGradient875">
      <stop
         style="stop-color:#bfd1ae;stop-opacity:1;"
         offset="0"
         id="stop871" />
      <stop
         style="stop-color:#7ca25b;stop-opacity:1;"
         offset="1"
         id="stop873" />
    </linearGradient>
    <linearGradient
       inkscape:collect="always"
       xlink:href="#linearGradient875"
       id="linearGradient879"
       x1="6"
       y1="7"
       x2="28"
       y2="27"
       gradientUnits="userSpaceOnUse" />
    <linearGradient
       inkscape:collect="always"
       xlink:href="#linearGradient875"
       id="linearGradient1013"
       x1="13"
       y1="12"
       x2="22"
       y2="22"
       gradientUnits="userSpaceOnUse" />
  </defs>
  <sodipodi:namedview
     pagecolor="#cccccc"
     bordercolor="#000000"
     borderopacity="1"
     objecttolerance="10"
     gridtolerance="10"
     guidetolerance="10"
     inkscape:pageopacity="0"
     inkscape:pageshadow="2"
     inkscape:window-width="1920"
     inkscape:window-height="1000"
     id="namedview18"
     showgrid="true"
     inkscape:zoom="18.170404"
     inkscape:cx="17.390918"
     inkscape:cy="23.031959"
     inkscape:window-x="0"
     inkscape:window-y="0"
     inkscape:window-maximized="1"
     inkscape:current-layer="svg16"
     inkscape:document-rotation="0"
     inkscape:showpageshadow="2"
     inkscape:pagecheckerboard="0"
     inkscape:deskcolor="#808080"
     inkscape:document-units="px">
    <inkscape:grid
       type="xygrid"
       id="grid247"
       originx="0"
       originy="0" />
  </sodipodi:namedview>
  <linearGradient
     id="_lgradient_2"
     x1="0"
     y1="0.5"
     x2="1"
     y2="0.5">
    <stop
       offset="0%"
       stop-opacity="1"
       style="stop-color:#89ddff"
       id="stop2" />
    <stop
       offset="100%"
       stop-opacity="1"
       style="stop-color:#89ddff"
       id="stop4" />
  </linearGradient>
  <linearGradient
     id="_lgradient_3"
     x1="0"
     y1="0.5"
     x2="1"
     y2="0.5"
     gradientTransform="matrix(33,0,0,33,0.5,0.5)"
     gradientUnits="userSpaceOnUse">
    <stop
       offset="0%"
       stop-opacity="1"
       style="stop-color:#89ddff"
       id="stop9" />
    <stop
       offset="100%"
       stop-opacity="1"
       style="stop-color:#89ddff"
       id="stop11" />
  </linearGradient>
  <path
     d="m 26.575075,7.1879136 6.078669,3.0915404 -1.836707,0.901163 c 0.757049,1.788087 1.181877,3.753225 1.181877,5.819931 C 31.998914,25.282265 25.284585,32 16.998658,32 14.344229,32 11.852708,31.303088 9.690205,30.092586 l 1.517262,-1.516903 c 1.744076,0.87494 3.705355,1.379925 5.791191,1.379925 7.155162,0 12.952741,-5.799991 12.952741,-12.952183 0,-1.919338 -0.444019,-3.727842 -1.194641,-5.366094 z m -9.781834,3.1825634 z m 0,0 z m 0.208641,-6.3262556 c -7.15515,0 -12.9527233,5.8012996 -12.9527233,12.9563266 0,1.91939 0.444006,3.727549 1.1946434,5.365809 L 7.428686,26.812074 1.35,23.720905 3.1867072,22.819939 C 2.429669,21.031323 2.004822,19.066674 2.004822,17.000548 2.0021596,8.717247 8.719178,2 17.001882,2 c 2.654428,0 5.14595,0.6961174 7.308484,1.9066823 L 22.793083,5.4242517 C 21.049011,4.5490819 19.084539,4.0442214 17.001882,4.0442214 Z"
     id="path4-9"
     sodipodi:nodetypes="cccssccsscccccccccccccccccccccccccccsscccccscc"
     style="fill:url(#linearGradient879);fill-opacity:1;stroke-width:0.031943" />
  <path
     d="m 21.975554,17.000398 c 0,2.762823 -2.237328,5.000139 -5.000132,5.000139 -2.76051,0 -5.000132,-2.237316 -5.000132,-5.000139 0,-2.760494 2.239622,-5.000133 5.000132,-5.000133 2.762804,0 5.000132,2.239639 5.000132,5.000133 z"
     id="path72-3"
     style="fill:url(#linearGradient1013);fill-opacity:1;stroke-width:0.0595259" />
</svg>
