<?xml version="1.0" encoding="UTF-8" standalone="no"?>
<svg
   style="isolation:isolate"
   viewBox="0 0 34 34"
   width="34"
   height="34"
   version="1.1"
   id="svg9"
   sodipodi:docname="shutdown.svg"
   inkscape:version="1.3.2 (091e20ef0f, 2023-11-25)"
   xmlns:inkscape="http://www.inkscape.org/namespaces/inkscape"
   xmlns:sodipodi="http://sodipodi.sourceforge.net/DTD/sodipodi-0.dtd"
   xmlns="http://www.w3.org/2000/svg"
   xmlns:svg="http://www.w3.org/2000/svg"
   xmlns:rdf="http://www.w3.org/1999/02/22-rdf-syntax-ns#"
   xmlns:cc="http://creativecommons.org/ns#"
   xmlns:dc="http://purl.org/dc/elements/1.1/">
  <metadata
     id="metadata15">
    <rdf:RDF>
      <cc:Work
         rdf:about="">
        <dc:format>image/svg+xml</dc:format>
        <dc:type
           rdf:resource="http://purl.org/dc/dcmitype/StillImage" />
      </cc:Work>
    </rdf:RDF>
  </metadata>
  <defs
     id="defs13" />
  <sodipodi:namedview
     pagecolor="#cccccc"
     bordercolor="#000000"
     borderopacity="1"
     objecttolerance="10"
     gridtolerance="10"
     guidetolerance="10"
     inkscape:pageopacity="0"
     inkscape:pageshadow="2"
     inkscape:window-width="1920"
     inkscape:window-height="996"
     id="namedview11"
     showgrid="false"
     inkscape:zoom="13.083994"
     inkscape:cx="17.043725"
     inkscape:cy="20.330184"
     inkscape:window-x="0"
     inkscape:window-y="0"
     inkscape:window-maximized="1"
     inkscape:current-layer="svg9"
     inkscape:document-rotation="0"
     inkscape:showpageshadow="2"
     inkscape:pagecheckerboard="0"
     inkscape:deskcolor="#808080"
     inkscape:document-units="px">
    <inkscape:grid
       type="xygrid"
       id="grid140"
       originx="0"
       originy="0"
       spacingy="1"
       spacingx="1"
       units="px"
       visible="false" />
  </sodipodi:namedview>
  <linearGradient
     id="_lgradient_1"
     x1="0"
     y1="0.5"
     x2="1"
     y2="0.5"
     gradientTransform="matrix(33,0,0,33,0.5,0.5)"
     gradientUnits="userSpaceOnUse">
    <stop
       offset="0%"
       stop-opacity="1"
       style="stop-color:#ff5370)"
       id="stop2" />
    <stop
       offset="100%"
       stop-opacity="1"
       style="stop-color:#ff5370"
       id="stop4" />
  </linearGradient>
  <path
     style="color:#000000;overflow:visible;opacity:0;fill:#d1d5e9;fill-opacity:1;stroke-width:1.06667"
     id="path945"
     overflow="visible"
     d="M 17,35 C 8.17141,35 1,42.17141 1,51 1,59.82859 8.17141,67 17,67 25.82859,67 33,59.82859 33,51 33,42.17141 25.82859,35 17,35 Z"
     inkscape:connector-curvature="0" />
  <g
     id="g1"
     transform="matrix(1.267701,0,0,1.2642099,-4.5509236,-47.430607)"
     style="stroke-width:0.789919">
    <path
       d="M 16.865959,58.00009 Z M 17.099764,62 C 20.556443,62 23.636032,60.430037 25.6,58 h -17 c 1.963963,2.430037 5.043651,4 8.500231,4 z"
       id="path3842"
       sodipodi:nodetypes="ccccccccccc"
       style="fill:#bac8df;fill-opacity:1;stroke-width:0.0360909" />
    <path
       d="m 15.8,47.711811 v -7.223622 c 8.4e-4,-1.850919 2.50127,-1.850919 2.5,0 v 7.223622 c -8.4e-4,1.850919 -2.50126,1.850919 -2.5,0 z m 1.99989,-7.223622 z"
       id="path8-6-6-3"
       style="color:#d6dbf1;fill:#bac8df;fill-opacity:1;stroke-width:0.208173"
       sodipodi:nodetypes="cccccccccc"
       class="ColorScheme-Text" />
    <path
       style="color:#d6dbf1;fill:none;fill-opacity:1;stroke:#bac8df;stroke-width:1.26704;stroke-linecap:round;stroke-miterlimit:4;stroke-dasharray:none;stroke-opacity:1;stop-color:#31363b"
       sodipodi:type="arc"
       sodipodi:cx="-17.000002"
       sodipodi:cy="-51.000008"
       sodipodi:rx="11.201572"
       sodipodi:ry="11.201572"
       sodipodi:start="3.7596615"
       sodipodi:end="3.7588303"
       sodipodi:open="true"
       sodipodi:arc-type="arc"
       transform="scale(-1)"
       d="m -26.129272,-57.490897 a 11.201572,11.201572 0 0 1 15.618262,-2.63973 11.201572,11.201572 0 0 1 2.6429753,15.617714 11.201572,11.201572 0 0 1 -15.6171643,2.64622 11.201572,11.201572 0 0 1 -2.649465,-15.616614"
       id="path7-6"
       class="ColorScheme-Text" />
  </g>
</svg>
