<?xml version="1.0" encoding="UTF-8" standalone="no"?>
<svg
   inkscape:version="1.3.2 (091e20ef0f, 2023-11-25)"
   sodipodi:docname="system-user-prompt.svg"
   id="svg8"
   version="1.1"
   height="34"
   width="34"
   viewBox="0 0 34 34"
   style="isolation:isolate"
   xmlns:inkscape="http://www.inkscape.org/namespaces/inkscape"
   xmlns:sodipodi="http://sodipodi.sourceforge.net/DTD/sodipodi-0.dtd"
   xmlns="http://www.w3.org/2000/svg"
   xmlns:svg="http://www.w3.org/2000/svg"
   xmlns:rdf="http://www.w3.org/1999/02/22-rdf-syntax-ns#"
   xmlns:cc="http://creativecommons.org/ns#"
   xmlns:dc="http://purl.org/dc/elements/1.1/">
  <metadata
     id="metadata14">
    <rdf:RDF>
      <cc:Work
         rdf:about="">
        <dc:format>image/svg+xml</dc:format>
        <dc:type
           rdf:resource="http://purl.org/dc/dcmitype/StillImage" />
      </cc:Work>
    </rdf:RDF>
  </metadata>
  <defs
     id="defs12" />
  <sodipodi:namedview
     inkscape:current-layer="svg8"
     inkscape:window-maximized="1"
     inkscape:window-y="0"
     inkscape:window-x="0"
     inkscape:cy="22.15541"
     inkscape:cx="29.62082"
     inkscape:zoom="10.381211"
     showgrid="true"
     id="namedview10"
     inkscape:window-height="996"
     inkscape:window-width="1920"
     inkscape:pageshadow="2"
     inkscape:pageopacity="0"
     guidetolerance="10"
     gridtolerance="10"
     objecttolerance="10"
     borderopacity="1"
     bordercolor="#000000"
     pagecolor="#cccccc"
     inkscape:showpageshadow="2"
     inkscape:pagecheckerboard="0"
     inkscape:deskcolor="#808080"
     inkscape:document-units="px">
    <inkscape:grid
       type="xygrid"
       id="grid139"
       originx="0"
       originy="0"
       spacingy="1"
       spacingx="1"
       units="px"
       visible="true" />
  </sodipodi:namedview>
  <circle
     style="opacity:0;fill:#d1d5e9;fill-opacity:1;stroke-width:1.06667"
     id="circle955"
     r="16"
     cy="-53"
     cx="20"
     transform="scale(1,-1)" />
  <path
     style="color:#d6dbf1;fill:none;fill-opacity:1;stroke:#bac8df;stroke-width:1.60404;stroke-linecap:round;stroke-miterlimit:4;stroke-dasharray:none;stroke-opacity:1;stop-color:#31363b"
     sodipodi:type="arc"
     sodipodi:cx="-16.999996"
     sodipodi:cy="-17.000006"
     sodipodi:rx="14.201318"
     sodipodi:ry="14.201318"
     sodipodi:start="3.7596615"
     sodipodi:end="3.7574109"
     sodipodi:open="true"
     sodipodi:arc-type="arc"
     transform="scale(-1)"
     d="m -28.574056,-25.229135 a 14.201318,14.201318 0 0 1 19.7966754,-3.349559 14.201318,14.201318 0 0 1 3.3606972,19.7947878 14.201318,14.201318 0 0 1 -19.7928936,3.3718342 14.201318,14.201318 0 0 1 -3.38297,-19.790993"
     id="path7-3"
     class="ColorScheme-Text" />
  <path
     d="m 21.769286,18.536 4.169301,-3.891368 c 0.03812,-0.03971 0.06141,-0.09466 0.06141,-0.151776 0,-0.05702 -0.0191,-0.111461 -0.06141,-0.15178 L 21.769915,10.462 C 21.710015,10.40061 21.577052,10.38295 21.5,10.417 c -0.07707,0.03324 -0.08581,0.211274 -0.08582,0.298 L 21.414,13 H 16.20734 C 16.091766,13.000001 16,13.081602 16,13.2 v 2.6 c 0,0.118314 0.09402,0.190526 0.20734,0.2 h 5.20684 v 2.386 c 0,0.0868 0.05234,0.164541 0.12888,0.198 0.07711,0.03324 0.166922,0.01325 0.226855,-0.046 z"
     id="path2-7"
     style="fill:#bac8df;fill-opacity:1;stroke-width:0.0198144"
     sodipodi:nodetypes="ccscccsccssscsccc" />
  <path
     d="M 12.230416,15.463 8.061413,19.355076 C 8.023296,19.394796 8,19.449736 8,19.506918 c 0,0.05706 0.019092,0.11147 0.061413,0.151782 l 4.168565,3.8793 c 0.0599,0.06138 0.150282,0.07905 0.227331,0.045 0.0771,-0.03324 0.128396,-0.111281 0.128396,-0.198 V 21 h 5.206944 C 17.907251,21 18,20.929394 18,20.811 V 18.2 C 18,18.081681 17.90633,18 17.792649,18 h -5.206986 v -2.386 c 0,-0.08675 -0.05236,-0.16455 -0.128878,-0.198 -0.07711,-0.03324 -0.16693,-0.0133 -0.226852,0.046 z"
     id="path2-7-5"
     style="fill:#bac8df;fill-opacity:1;stroke-width:0.0198146"
     sodipodi:nodetypes="ccscccscsssscsccc" />
</svg>
