<?xml version="1.0" encoding="UTF-8" standalone="no"?>
<!-- Created with Inkscape (http://www.inkscape.org/) -->

<svg
   width="32"
   height="32"
   viewBox="0 0 32 32"
   version="1.1"
   id="SVGRoot"
   sodipodi:docname="applications.svg"
   inkscape:version="1.2.1 (9c6d41e410, 2022-07-14)"
   xmlns:inkscape="http://www.inkscape.org/namespaces/inkscape"
   xmlns:sodipodi="http://sodipodi.sourceforge.net/DTD/sodipodi-0.dtd"
   xmlns="http://www.w3.org/2000/svg"
   xmlns:svg="http://www.w3.org/2000/svg">
  <style
     id="current-color-scheme"
     type="text/css">.ColorScheme-Text { color:#eff0f1; }
</style>
  <sodipodi:namedview
     id="namedview205"
     pagecolor="#ffffff"
     bordercolor="#000000"
     borderopacity="1"
     inkscape:showpageshadow="2"
     inkscape:pageopacity="0.0"
     inkscape:pagecheckerboard="0"
     inkscape:deskcolor="#cfcfcf"
     inkscape:document-units="px"
     showgrid="false"
     inkscape:zoom="9.5144352"
     inkscape:cx="-7.7776556"
     inkscape:cy="25.172277"
     inkscape:window-width="1920"
     inkscape:window-height="1000"
     inkscape:window-x="0"
     inkscape:window-y="0"
     inkscape:window-maximized="1"
     inkscape:current-layer="layer1">
    <inkscape:grid
       type="xygrid"
       id="grid328"
       originx="0"
       originy="0" />
  </sodipodi:namedview>
  <defs
     id="defs200" />
  <g
     inkscape:label="Layer 1"
     inkscape:groupmode="layer"
     id="layer1">
    <g
       id="applications-other">
      <rect
         ry="0"
         y="0"
         x="0"
         height="32"
         width="32"
         id="rect3776-0"
         style="fill:#ffffff;fill-opacity:0;stroke:none;stroke-width:1.45455" />
      <path
         d="M 9.2,4 C 7.820891,4 6.498194,4.54784 5.523017,5.523017 4.54784,6.498194 4,7.820891 4,9.2 4,10.579109 4.54784,11.901806 5.523017,12.876983 6.498194,13.85216 7.820891,14.4 9.2,14.4 c 1.379109,0 2.701806,-0.54784 3.676983,-1.523017 C 13.85216,11.901806 14.4,10.579109 14.4,9.2 14.3978,7.821623 13.84928,6.50016 12.874651,5.525349 11.899839,4.55072 10.578423,4.002149 9.2,4 Z m 0,8.8 C 8.245166,12.8 7.329463,12.420713 6.654446,11.745554 5.979246,11.070537 5.6,10.154834 5.6,9.2 5.6,8.245166 5.979287,7.329463 6.654446,6.654446 7.329463,5.979246 8.245166,5.6 9.2,5.6 c 0.954834,0 1.870537,0.379287 2.545554,1.054446 C 12.420754,7.329463 12.8,8.245166 12.8,9.2 12.7979,10.154103 12.417856,11.068571 11.743223,11.743223 11.068571,12.417874 10.154103,12.797851 9.2,12.8 Z m 13.6,1.6 c 1.37911,0 2.70181,-0.54784 3.67698,-1.523017 C 27.45216,11.901806 28,10.579109 28,9.2 28,7.820891 27.45216,6.498194 26.47698,5.523017 25.50181,4.54784 24.17911,4 22.8,4 21.42089,4 20.09819,4.54784 19.12302,5.523017 18.14784,6.498194 17.6,7.820891 17.6,9.2 c 0.002,1.378377 0.55072,2.69984 1.52535,3.674651 0.97481,0.974629 2.29623,1.5232 3.67465,1.525349 z m 0,-8.8 c 0.95483,0 1.87054,0.379287 2.54555,1.054446 C 26.02075,7.329463 26.4,8.245166 26.4,9.2 c 0,0.954834 -0.37929,1.870537 -1.05445,2.545554 C 24.67054,12.420754 23.75483,12.8 22.8,12.8 21.84517,12.8 20.92946,12.420713 20.25445,11.745554 19.57925,11.070537 19.2,10.154834 19.2,9.2 19.202,8.245897 19.58214,7.331429 20.25678,6.656777 20.93143,5.982126 21.8459,5.602149 22.8,5.6 Z M 9.2,17.6 C 7.820891,17.6 6.498194,18.14784 5.523017,19.123017 4.54784,20.098194 4,21.420891 4,22.8 4,24.179109 4.54784,25.501806 5.523017,26.476983 6.498194,27.45216 7.820891,28 9.2,28 10.579109,28 11.901806,27.45216 12.876983,26.476983 13.85216,25.501806 14.4,24.179109 14.4,22.8 14.3979,21.421623 13.84928,20.10016 12.874651,19.125349 11.899839,18.15072 10.578423,17.602149 9.2,17.6 Z m 0,8.8 C 8.245166,26.4 7.329463,26.020713 6.654446,25.345554 5.979246,24.670537 5.6,23.754834 5.6,22.8 5.6,21.845166 5.979287,20.929463 6.654446,20.254446 7.329463,19.579246 8.245166,19.2 9.2,19.2 c 0.954834,0 1.870537,0.379287 2.545554,1.054446 C 12.420754,20.929463 12.8,21.845166 12.8,22.8 12.7979,23.754103 12.417856,24.668571 11.743223,25.343223 11.068571,26.017874 10.154103,26.397851 9.2,26.4 Z m 13.6,-8.8 c -1.37911,0 -2.70181,0.54784 -3.67698,1.523017 C 18.14784,20.098194 17.6,21.420891 17.6,22.8 c 0,1.379109 0.54784,2.701806 1.52302,3.676983 C 20.09819,27.45216 21.42089,28 22.8,28 24.17911,28 25.50181,27.45216 26.47698,26.476983 27.45216,25.501806 28,24.179109 28,22.8 27.998,21.421623 27.44928,20.10016 26.47465,19.125349 25.49984,18.15072 24.17842,17.602149 22.8,17.6 Z m 0,8.8 c -0.95483,0 -1.87054,-0.379287 -2.54555,-1.054446 C 19.57925,24.670537 19.2,23.754834 19.2,22.8 c 0,-0.954834 0.37929,-1.870537 1.05445,-2.545554 C 20.92946,19.579246 21.84517,19.2 22.8,19.2 c 0.95483,0 1.87054,0.379287 2.54555,1.054446 C 26.02075,20.929463 26.4,21.845166 26.4,22.8 26.398,23.754103 26.01786,24.668571 25.34322,25.343223 24.66857,26.017874 23.7541,26.397851 22.8,26.4 Z"
         id="path187"
         style="stroke-width:1.0;fill-opacity:1;fill:currentColor;"
         class="ColorScheme-Text" />
    </g>
    <g
       id="22--22-applications-other">
      <rect
         ry="0"
         y="10"
         x="-22"
         height="22"
         width="22"
         id="rect3776"
         style="fill:#ffffff;fill-opacity:0;stroke:none" />
      <path
         d="m -16.100002,12 c -1.034326,0 -2.026345,0.410878 -2.757741,1.142257 C -19.589122,13.873653 -20,14.865667 -20,15.9 c 0,1.034331 0.410878,2.026354 1.142257,2.757737 0.731396,0.731383 1.723415,1.142263 2.757741,1.142263 1.034331,0 2.026361,-0.41088 2.757746,-1.142263 0.731374,-0.731383 1.142258,-1.723406 1.142258,-2.757737 -0.0022,-1.033783 -0.413044,-2.024878 -1.144013,-2.755992 -0.73111,-0.73097 -1.722166,-1.142399 -2.755991,-1.144008 z m 0,6.6 c -0.716119,0 -1.402903,-0.284465 -1.909159,-0.790834 -0.506412,-0.506263 -0.790841,-1.19304 -0.790841,-1.909166 0,-0.716126 0.284469,-1.402905 0.790841,-1.909161 0.506256,-0.506412 1.19304,-0.790841 1.909159,-0.790841 0.716135,0 1.402898,0.284469 1.909175,0.790841 0.506397,0.506256 0.790825,1.193035 0.790825,1.909161 -0.0021,0.715577 -0.286601,1.401428 -0.792574,1.907417 -0.505992,0.505989 -1.191841,0.790972 -1.907426,0.792583 z m 10.200004,1.2 c 1.034327,0 2.026349,-0.41088 2.757738,-1.142263 C -2.410878,17.926354 -2,16.934331 -2,15.9 -2,14.865667 -2.410878,13.873653 -3.14226,13.142257 -3.873649,12.410878 -4.865671,12 -5.899998,12 c -1.034332,0 -2.026365,0.410878 -2.757743,1.142257 -0.731377,0.731396 -1.142261,1.72341 -1.142261,2.757743 0.002,1.033783 0.413044,2.02488 1.144014,2.755989 0.731108,0.730971 1.722168,1.142399 2.75599,1.144011 z m 0,-6.600002 c 0.716115,0 1.402903,0.284469 1.909155,0.790841 0.506412,0.506256 0.790845,1.193035 0.790845,1.909161 0,0.716126 -0.284472,1.402903 -0.790845,1.909166 C -4.497095,18.315566 -5.183883,18.6 -5.899998,18.6 -6.616129,18.6 -7.302899,18.315535 -7.809169,17.809166 -8.31557,17.302903 -8.599998,16.616126 -8.599998,15.9 c 0.002,-0.715577 0.286597,-1.40143 0.792577,-1.907423 0.50599,-0.50599 1.191841,-0.790969 1.907423,-0.792579 z M -16.100002,22.2 c -1.034326,0 -2.026345,0.41088 -2.757741,1.142263 C -19.589122,24.073646 -20,25.065669 -20,26.1 c 0,1.034332 0.410878,2.026354 1.142257,2.757737 C -18.126347,29.589121 -17.134328,30 -16.100002,30 c 1.034331,0 2.026361,-0.410879 2.757746,-1.142263 0.731374,-0.731383 1.142258,-1.723405 1.142258,-2.757737 -0.0017,-1.033783 -0.413044,-2.02488 -1.144013,-2.755989 -0.73111,-0.730971 -1.722166,-1.142399 -2.755991,-1.144011 z m 0,6.6 c -0.716119,0 -1.402903,-0.284465 -1.909159,-0.790834 -0.506412,-0.506263 -0.790841,-1.19304 -0.790841,-1.909166 0,-0.716126 0.284469,-1.402903 0.790841,-1.909166 0.506256,-0.506399 1.19304,-0.790834 1.909159,-0.790834 0.716135,0 1.402898,0.284465 1.909175,0.790834 0.506397,0.506263 0.790825,1.19304 0.790825,1.909166 -0.0021,0.715577 -0.286601,1.401429 -0.792574,1.907417 -0.505992,0.505989 -1.191841,0.790971 -1.907426,0.792583 z m 10.200004,-6.6 c -1.034332,0 -2.026365,0.41088 -2.757743,1.142263 -0.731377,0.731383 -1.142261,1.723406 -1.142261,2.757737 0,1.034332 0.410884,2.026354 1.142261,2.757737 C -7.926363,29.589121 -6.93433,30 -5.899998,30 -4.865671,30 -3.873649,29.589121 -3.14226,28.857737 -2.410878,28.126354 -2,27.134332 -2,26.1 -2.0018,25.066217 -2.413038,24.07512 -3.144009,23.344011 -3.875122,22.61304 -4.866185,22.201612 -5.899998,22.2 Z m 0,6.6 c -0.716131,0 -1.402901,-0.284465 -1.909171,-0.790834 C -8.31557,27.502903 -8.599998,26.816126 -8.599998,26.1 c 0,-0.716126 0.284466,-1.402903 0.790829,-1.909166 C -7.302899,23.684435 -6.616129,23.4 -5.899998,23.4 c 0.716115,0 1.402903,0.284465 1.909155,0.790834 0.506412,0.506263 0.790845,1.19304 0.790845,1.909166 -0.002,0.715577 -0.286602,1.401429 -0.792582,1.907417 -0.50599,0.505989 -1.191845,0.790971 -1.907418,0.792583 z"
         id="path187-3"
         style="stroke-width:1.0;fill-opacity:1;fill:currentColor;"
         class="ColorScheme-Text" />
    </g>
  </g>
</svg>
