<?xml version="1.0" encoding="UTF-8" standalone="no"?>
<svg
   width="32"
   height="32"
   version="1.1"
   id="svg12"
   sodipodi:docname="audacious.svg"
   inkscape:version="1.2.1 (9c6d41e410, 2022-07-14)"
   xmlns:inkscape="http://www.inkscape.org/namespaces/inkscape"
   xmlns:sodipodi="http://sodipodi.sourceforge.net/DTD/sodipodi-0.dtd"
   xmlns="http://www.w3.org/2000/svg"
   xmlns:svg="http://www.w3.org/2000/svg"
   xmlns:rdf="http://www.w3.org/1999/02/22-rdf-syntax-ns#"
   xmlns:cc="http://creativecommons.org/ns#"
   xmlns:dc="http://purl.org/dc/elements/1.1/">
  <style
     type="text/css"
     id="current-color-scheme">
.ColorScheme-Text { 
    color:#eff0f1;
}
</style>
  <metadata
     id="metadata18">
    <rdf:RDF>
      <cc:Work
         rdf:about="">
        <dc:format>image/svg+xml</dc:format>
        <dc:type
           rdf:resource="http://purl.org/dc/dcmitype/StillImage" />
      </cc:Work>
    </rdf:RDF>
  </metadata>
  <defs
     id="defs16" />
  <sodipodi:namedview
     pagecolor="#ffffff"
     bordercolor="#000000"
     borderopacity="1"
     objecttolerance="10"
     gridtolerance="10"
     guidetolerance="10"
     inkscape:pageopacity="0"
     inkscape:pageshadow="2"
     inkscape:window-width="1920"
     inkscape:window-height="1000"
     id="namedview14"
     showgrid="false"
     inkscape:zoom="6.9384853"
     inkscape:cx="25.221643"
     inkscape:cy="29.185044"
     inkscape:window-x="0"
     inkscape:window-y="0"
     inkscape:window-maximized="1"
     inkscape:current-layer="svg12"
     inkscape:lockguides="true"
     inkscape:document-rotation="0"
     inkscape:showpageshadow="2"
     inkscape:pagecheckerboard="0"
     inkscape:deskcolor="#cccccc">
    <inkscape:grid
       type="xygrid"
       id="grid235"
       originx="0"
       originy="0" />
  </sodipodi:namedview>
  <g
     id="audacious">
    <rect
       style="opacity:0.00100002"
       width="32"
       height="32"
       x="0"
       y="0"
       id="rect7" />
    <path
       d="m 20.724999,9.7 v 2.1735 C 20.317743,11.407347 19.845218,10.999601 19.321115,10.667065 18.359519,10.056945 17.224296,9.7 15.999999,9.7 c -3.479168,0 -6.3000001,2.820825 -6.3000001,6.3 0,3.479175 2.8208321,6.3 6.3000001,6.3 1.891582,0 3.570532,-0.852075 4.725,-2.1735 V 22.3 h 1.575 V 9.7 Z m -4.725,9.45 c -1.7388,0 -3.15,-1.4112 -3.15,-3.15 0,-1.7388 1.4112,-3.15 3.15,-3.15 1.737232,0 3.15,1.4112 3.15,3.15 0,1.7388 -1.412768,3.15 -3.15,3.15 z"
       id="path4-3"
       style="stroke-width:1.0;fill-opacity:1;fill:currentColor;"
       sodipodi:nodetypes="ccsssscccccsssss"
       class="ColorScheme-Text" />
    <path
       style="stroke-width:1.0;fill-opacity:1;fill:currentColor;"
       class="ColorScheme-Text "
       d="M 16,4 C 9.364,4 4,9.364 4,15.999999 4,22.636 9.364,28 16,28 22.636,28 28,22.636 28,15.999999 28,9.364 22.636,4 16,4 Z m 0,1.5 c 5.80498,0 10.5,4.695 10.5,10.499999 C 26.5,21.80498 21.80498,26.5 16,26.5 10.19498,26.5 5.5,21.80498 5.5,15.999999 5.5,10.195 10.19498,5.5 16,5.5 Z m 1.12498,8.578498 v 0 0 0 0 0 c 0,0 -0.05091,0.012 0,0 z m -1.171491,6.750005 z"
       id="path58"
       sodipodi:nodetypes="ssssssssssccccccccccccccccc" />
  </g>
  <g
     id="22-22-audacious"
     transform="translate(32,10.000001)">
    <rect
       style="opacity:0.00100002"
       width="22"
       height="22"
       x="0"
       y="0"
       id="rect2" />
    <path
       d="M 14.150016,6.8000015 V 8.2490014 C 13.380375,7.368052 12.261071,6.8000015 11.000024,6.8000015 c -2.3194467,0 -4.1999997,1.88055 -4.1999997,4.1999985 0,2.319449 1.880553,4.199999 4.1999997,4.199999 1.261047,0 2.380351,-0.56805 3.149992,-1.448999 v 1.448999 h 1.050006 V 6.8000015 Z m -3.149992,6.2999975 c -1.1591997,0 -2.0999997,-0.9408 -2.0999997,-2.099999 0,-1.1591995 0.9408,-2.0999989 2.0999997,-2.0999989 1.15815,0 2.099997,0.9407994 2.099997,2.0999989 0,1.159199 -0.941847,2.099999 -2.099997,2.099999 z"
       id="path4-3-3"
       style="stroke-width:1.0;fill-opacity:1;fill:currentColor;"
       class="ColorScheme-Text" />
    <path
       sodipodi:nodetypes="cscscsssss"
       inkscape:connector-curvature="0"
       style="stroke-width:1.0;fill-opacity:1;fill:currentColor;"
       d="M 11,3 C 6.581754,2.99989 3,6.581644 3,11 3,15.418357 6.581754,19.000111 11,19.000001 15.418246,19.000111 19,15.418357 19,11 19,6.581644 15.418246,2.99989 11,3 Z m 0,1.40678 c 3.865993,0 6.59322,2.86282 6.59322,6.728814 0,3.865993 -2.727227,6.457627 -6.59322,6.457627 C 7.134007,17.593221 4.542373,14.865994 4.542373,11 4.542373,7.134007 7.134007,4.40678 11,4.40678 Z"
       class="ColorScheme-Text"
       id="path7" />
  </g>
</svg>
