<?xml version="1.0" encoding="UTF-8" standalone="no"?>
<svg
   id="svg36"
   viewBox="0 0 32 32"
   version="1.1"
   sodipodi:docname="audio.svg"
   inkscape:version="1.2.1 (9c6d41e410, 2022-07-14)"
   width="32"
   height="32"
   xmlns:inkscape="http://www.inkscape.org/namespaces/inkscape"
   xmlns:sodipodi="http://sodipodi.sourceforge.net/DTD/sodipodi-0.dtd"
   xmlns="http://www.w3.org/2000/svg"
   xmlns:svg="http://www.w3.org/2000/svg"
   xmlns:rdf="http://www.w3.org/1999/02/22-rdf-syntax-ns#"
   xmlns:cc="http://creativecommons.org/ns#"
   xmlns:dc="http://purl.org/dc/elements/1.1/">
  <metadata
     id="metadata70">
    <rdf:RDF>
      <cc:Work
         rdf:about="">
        <dc:format>image/svg+xml</dc:format>
        <dc:type
           rdf:resource="http://purl.org/dc/dcmitype/StillImage" />
      </cc:Work>
    </rdf:RDF>
  </metadata>
  <defs
     id="defs68" />
  <sodipodi:namedview
     inkscape:document-rotation="0"
     pagecolor="#ffffff"
     bordercolor="#000000"
     borderopacity="1"
     objecttolerance="10"
     gridtolerance="10"
     guidetolerance="10"
     inkscape:pageopacity="0"
     inkscape:pageshadow="2"
     inkscape:window-width="1920"
     inkscape:window-height="1000"
     id="namedview66"
     showgrid="false"
     inkscape:zoom="5.6568543"
     inkscape:cx="-28.814601"
     inkscape:cy="36.504387"
     inkscape:window-x="0"
     inkscape:window-y="0"
     inkscape:window-maximized="1"
     inkscape:current-layer="svg36"
     inkscape:showpageshadow="2"
     inkscape:pagecheckerboard="0"
     inkscape:deskcolor="#cccccc">
    <inkscape:grid
       type="xygrid"
       id="grid761"
       originx="-96.000003"
       originy="0" />
  </sodipodi:namedview>
  <style
     type="text/css"
     id="current-color-scheme">.ColorScheme-Text { color:#eff0f1; }
.ColorScheme-NegativeText { color:#d40000; }
</style>
  <g
     id="audio-volume-high"
     transform="translate(-96.000003)">
    <path
       id="path22-6"
       d="M 0,0 H 32.000001 V 32.000001 H 0 Z"
       fill="none" />
    <path
       d="M 14,26.602062 V 15.402949 C 14,14.628114 13.702404,14 13.332634,14 H 10.665777 C 10.29888,14 10,14.627559 10,15.402949 V 26.602062 C 10,27.373537 10.298879,28 10.665777,28 h 2.666857 C 13.70271,28 14,27.374102 14,26.602062"
       id="path69"
       style="fill:currentColor;fill-opacity:1;stroke-width:1"
       class="ColorScheme-Text" />
    <path
       d="M 21,26.644232 V 10.355219 C 21,9.6083962 20.702425,9 20.332593,9 l -2.666659,5.598e-4 C 17.298984,9.0005598 17,9.6089356 17,10.355779 V 26.644782 C 17,27.392685 17.298979,28 17.665934,28 h 2.666941 C 20.70269,27.99945 21,27.392704 21,26.64424"
       id="path71"
       style="fill:currentColor;fill-opacity:1;stroke-width:1"
       class="ColorScheme-Text" />
    <path
       d="M 24,5.33299 V 26.668601 C 24,27.403357 24.298872,28 24.665775,28 h 2.666851 C 27.70247,28 28,27.403366 28,26.668601 L 27.999662,5.33299 C 27.999662,4.5982335 27.70216,4 27.332293,4 h -2.66681 C 24.298872,4.00054 23.99998,4.5982245 23.99998,5.33299"
       id="path73"
       style="fill:currentColor;fill-opacity:1;stroke-width:1"
       class="ColorScheme-Text" />
    <path
       d="M 7,27.101326 V 19.901899 C 7,19.403784 6.702404,19 6.332634,19 H 3.665777 C 3.29888,19 3,19.403426 3,19.901899 v 7.199427 C 3,27.597273 3.298879,28 3.665777,28 H 6.332634 C 6.70271,28 7,27.597638 7,27.101326"
       id="path69-3"
       style="fill:currentColor;fill-opacity:1;stroke-width:1"
       class="ColorScheme-Text" />
  </g>
  <g
     id="audio-volume-low">
    <path
       id="path2-5"
       d="M -32.000001,0 H 0 v 32.000001 h -32.000001 z"
       fill="none"
       style="stroke-width:1.45455" />
    <path
       d="M -18.000003,26.602062 V 15.402949 C -18.000003,14.628114 -18.297599,14 -18.667369,14 h -2.666857 c -0.366897,0 -0.665777,0.627559 -0.665777,1.402949 v 11.199113 c 0,0.771475 0.298879,1.397938 0.665777,1.397938 h 2.666857 c 0.370076,0 0.667366,-0.625898 0.667366,-1.397938"
       id="path69-6"
       style="fill:#eff0f1;fill-opacity:0.2;stroke-width:1"
       class="ColorScheme-Text" />
    <path
       d="M -11.000003,26.644232 V 10.355219 C -11.000003,9.608396 -11.297578,9 -11.66741,9 l -2.666659,5.6e-4 c -0.36695,0 -0.665934,0.608376 -0.665934,1.355219 v 16.289003 c 0,0.747903 0.298979,1.355218 0.665934,1.355218 h 2.666941 c 0.369815,-5.5e-4 0.667125,-0.607296 0.667125,-1.35576"
       id="path71-7"
       style="fill:#eff0f1;fill-opacity:0.1;stroke-width:1"
       class="ColorScheme-Text" />
    <path
       d="M -8.000003,5.33299 V 26.668601 C -8.000003,27.403357 -7.701131,28 -7.334228,28 h 2.666855 c 0.36984,0 0.66737,-0.596634 0.66737,-1.331399 L -4.000343,5.33299 C -4.000343,4.598234 -4.297843,4 -4.667713,4 H -7.33452 c -0.366611,5.4e-4 -0.665503,0.598225 -0.665503,1.33299"
       id="path73-5"
       style="fill:#eff0f1;fill-opacity:0.01;stroke-width:1"
       class="ColorScheme-Text" />
    <path
       d="M -25.000003,27.101326 V 19.901899 C -25.000003,19.403784 -25.297599,19 -25.667369,19 h -2.666857 c -0.366897,0 -0.665777,0.403426 -0.665777,0.901899 v 7.199427 c 0,0.495947 0.298879,0.898674 0.665777,0.898674 h 2.666857 c 0.370076,0 0.667366,-0.402362 0.667366,-0.898674"
       id="path69-3-3"
       style="fill:currentColor;fill-opacity:1;stroke-width:1"
       class="ColorScheme-Text" />
  </g>
  <g
     id="audio-volume-medium"
     transform="translate(-30.000003,32)">
    <path
       id="path12-7"
       d="M -33.999999,-32 H -1.999998 V 1e-6 h -32.000001 z"
       fill="none"
       style="stroke-width:1.45455" />
    <path
       d="M -20,-5.397939 V -16.597051 C -20,-17.371887 -20.297596,-18 -20.667366,-18 h -2.666857 C -23.70112,-18 -24,-17.372441 -24,-16.597051 V -5.397938 C -24,-4.626463 -23.701121,-4 -23.334223,-4 h 2.666857 C -20.29729,-4 -20,-4.625898 -20,-5.397938"
       id="path69-5"
       style="fill:currentColor;fill-opacity:1;stroke-width:1"
       class="ColorScheme-Text" />
    <path
       d="M -13,-5.355768 V -21.644781 C -13,-22.391604 -13.297575,-23 -13.667407,-23 l -2.666659,5.6e-4 c -0.36695,0 -0.665934,0.608376 -0.665934,1.355219 V -5.355219 C -17,-4.607315 -16.701021,-4 -16.334066,-4 h 2.666941 C -13.29731,-4.00055 -13,-4.607296 -13,-5.355761"
       id="path71-6"
       style="fill:#eff0f1;fill-opacity:0.5;stroke-width:1"
       class="ColorScheme-Text" />
    <path
       d="M -10,-26.66701 V -5.331399 C -10,-4.596643 -9.701128,-4 -9.334225,-4 h 2.666851 C -6.29753,-4 -6,-4.596635 -6,-5.331399 L -6.000338,-26.66701 C -6.000338,-27.401766 -6.29784,-28 -6.667707,-28 h -2.66681 c -0.366611,5.4e-4 -0.665503,0.598225 -0.665503,1.33299"
       id="path73-2"
       style="fill:#eff0f1;fill-opacity:0.2;stroke-width:1"
       class="ColorScheme-Text" />
    <path
       d="m -27,-4.898674 v -7.199427 C -27,-12.596216 -27.297596,-13 -27.667366,-13 h -2.666857 C -30.70112,-13 -31,-12.596574 -31,-12.098101 v 7.199427 C -31,-4.402727 -30.701121,-4 -30.334223,-4 h 2.666857 C -27.29729,-4 -27,-4.402362 -27,-4.898674"
       id="path69-3-9"
       style="fill:currentColor;fill-opacity:1;stroke-width:1"
       class="ColorScheme-Text" />
  </g>
  <g
     id="audio-volume-muted">
    <path
       id="path30-6"
       d="M 0,0 H 32.000001 V 32.000001 H 0 Z"
       fill="none"
       style="stroke-width:1.45455" />
    <path
       d="M 13.999997,26.602062 V 15.40295 c 0,-0.774835 -0.297596,-1.402949 -0.667366,-1.402949 h -2.666857 c -0.366897,0 -0.665777,0.627559 -0.665777,1.402949 V 26.602062 C 9.999997,27.373537 10.298876,28 10.665774,28 h 2.666857 c 0.370076,0 0.667366,-0.625898 0.667366,-1.397938"
       id="path69-6-1"
       style="fill:#bf616a;fill-opacity:1;stroke-width:1" />
    <path
       d="M 6.999997,27.101326 V 19.901899 C 6.999997,19.403785 6.702401,19 6.332631,19 H 3.665774 c -0.366897,0 -0.665777,0.403426 -0.665777,0.901899 v 7.199427 C 2.999997,27.597274 3.298876,28 3.665774,28 h 2.666857 c 0.370076,0 0.667366,-0.402362 0.667366,-0.898674"
       id="path69-3-3-0"
       style="fill:#bf616a;fill-opacity:1;stroke-width:1" />
    <path
       d="M 20.999997,26.644232 V 10.35522 C 20.999997,9.608397 20.702422,9 20.33259,9 l -2.666659,5.6e-4 c -0.36695,0 -0.665934,0.608377 -0.665934,1.35522 v 16.289001 c 0,0.747904 0.298979,1.355218 0.665934,1.355218 h 2.666941 c 0.369815,-5.5e-4 0.667125,-0.607296 0.667125,-1.35576"
       id="path71-7-9"
       style="fill:#bf616a;fill-opacity:1;stroke-width:1" />
    <path
       d="M 24.000167,5.33299 V 26.6686 c 0,0.734756 0.298872,1.3314 0.665775,1.3314 h 2.666855 c 0.36984,0 0.66737,-0.596635 0.66737,-1.3314 L 27.999827,5.33299 C 27.999827,4.598234 27.702327,4 27.332457,4 H 24.66565 c -0.366611,5.4e-4 -0.665503,0.598225 -0.665503,1.33299"
       id="path73-5-3"
       style="fill:#bf616a;fill-opacity:1;stroke-width:1" />
  </g>
  <g
     id="22-22-audio-volume-high"
     transform="translate(-30.000003,32)">
    <path
       id="path22"
       d="m -66,0 h 22 v 22 h -22 z"
       fill="none" />
    <path
       d="M -56,18.101323 V 10.901896 C -56,10.403787 -56.223197,10 -56.500524,10 h -2.000143 C -58.77584,10 -59,10.403435 -59,10.901896 v 7.199427 C -59,18.597276 -58.775841,19 -58.500667,19 h 2.000143 C -56.222968,19 -56,18.597644 -56,18.101323"
       id="path69-0"
       style="fill:currentColor;fill-opacity:1;stroke-width:1"
       class="ColorScheme-Text" />
    <path
       d="M -51,18.14355 V 7.8557587 c 0,-0.4716833 -0.223181,-0.8559322 -0.500555,-0.8559322 l -1.999995,3.499e-4 C -53.775762,7.0001764 -54,7.38441 -54,7.8561104 V 18.143896 c 0,0.472363 0.224234,0.85593 0.49945,0.85593 h 2.000206 C -51.222982,18.999481 -51,18.616269 -51,18.143557"
       id="path71-62"
       style="fill:currentColor;fill-opacity:1;stroke-width:1"
       class="ColorScheme-Text" />
    <path
       d="m -48.999982,4.833125 v 13.334752 c 0,0.45922 0.224152,0.832123 0.499331,0.832123 h 2.000122 C -46.223146,19 -46,18.627106 -46,18.167877 L -46.000252,4.833125 C -46.000252,4.3738924 -46.223379,4 -46.500782,4 h -2.000091 C -48.77583,4.0003358 -49,4.3738877 -49,4.833125"
       id="path73-6"
       style="fill:currentColor;fill-opacity:1;stroke-width:1"
       class="ColorScheme-Text" />
    <path
       d="M -61,18.400883 V 13.60126 C -61,13.269197 -61.223197,13 -61.500524,13 h -2.000143 C -63.77584,13 -64,13.268945 -64,13.60126 v 4.799622 C -64,18.731513 -63.775841,19 -63.500667,19 h 2.000143 C -61.222968,19 -61,18.731761 -61,18.400882"
       id="path69-3-1"
       style="fill:currentColor;fill-opacity:1;stroke-width:1"
       class="ColorScheme-Text" />
  </g>
  <g
     id="22-22-audio-volume-medium"
     transform="translate(-30.000003,32)">
    <path
       id="path12"
       d="m -44,0 h 22 v 22 h -22 z"
       fill="none" />
    <path
       d="M -34,18.101323 V 10.901896 C -34,10.403787 -34.223197,10 -34.500524,10 h -2.000143 C -36.77584,10 -37,10.403435 -37,10.901896 v 7.199427 C -37,18.597276 -36.775841,19 -36.500667,19 h 2.000143 C -34.222968,19 -34,18.597645 -34,18.101323"
       id="path69-0-8"
       style="fill:currentColor;fill-opacity:1;stroke-width:1"
       class="ColorScheme-Text" />
    <path
       d="M -29,18.14355 V 7.8557584 C -29,7.3840755 -29.223181,6.999826 -29.500555,6.999826 l -1.999995,3.509e-4 C -31.775762,7.0001769 -32,7.3844103 -32,7.8561104 V 18.143896 c 0,0.472363 0.224234,0.85593 0.49945,0.85593 h 2.000206 C -29.222982,18.99948 -29,18.616268 -29,18.143558"
       id="path71-62-7"
       style="fill:currentColor;fill-opacity:0.7;stroke-width:1"
       class="ColorScheme-Text" />
    <path
       d="M -26.999982,4.8331255 V 18.167877 c 0,0.45922 0.224152,0.832123 0.499331,0.832123 h 2.000121 C -24.223146,19 -24,18.627106 -24,18.167877 L -24.000252,4.8331255 C -24.000252,4.3738924 -24.223379,4 -24.500782,4 h -2.000092 C -26.77583,4.0003358 -27,4.3738877 -27,4.8331255"
       id="path73-6-9"
       style="fill:currentColor;fill-opacity:0.5;stroke-width:1"
       class="ColorScheme-Text" />
    <path
       d="M -39,18.400883 V 13.60126 C -39,13.269197 -39.223197,13 -39.500524,13 h -2.000143 C -41.77584,13 -42,13.268946 -42,13.60126 v 4.799623 C -42,18.731513 -41.775841,19 -41.500667,19 h 2.000143 C -39.222968,19 -39,18.731761 -39,18.400883"
       id="path69-3-1-2"
       style="fill:currentColor;fill-opacity:1;stroke-width:1"
       class="ColorScheme-Text" />
  </g>
  <g
     id="22-22-audio-volume-low"
     transform="translate(-30.000003,32)">
    <path
       id="path2"
       d="M -22,0 H 0 v 22 h -22 z"
       fill="none" />
    <path
       d="M -12,18.101323 V 10.901897 C -12,10.403787 -12.223197,10 -12.500524,10 h -2.000143 C -14.77584,10 -15,10.403436 -15,10.901897 v 7.199426 C -15,18.597276 -14.775841,19 -14.500667,19 h 2.000143 C -12.222968,19 -12,18.597645 -12,18.101323"
       id="path69-0-0"
       style="fill:currentColor;fill-opacity:0.7;stroke-width:1"
       class="ColorScheme-Text" />
    <path
       d="M -7,18.143549 V 7.8557585 C -7,7.3840756 -7.223181,6.999826 -7.500555,6.999826 L -9.50055,7.0001769 C -9.775762,7.0001769 -10,7.3844104 -10,7.8561104 V 18.143895 c 0,0.472365 0.224234,0.855931 0.49945,0.855931 h 2.000206 C -7.222982,18.99948 -7,18.616269 -7,18.143557"
       id="path71-62-2"
       style="fill:currentColor;fill-opacity:0.5;stroke-width:1"
       class="ColorScheme-Text" />
    <path
       d="M -4.9999815,4.8331255 V 18.167877 c 0,0.45922 0.224152,0.832123 0.4993305,0.832123 h 2.0001214 C -2.2231464,19 -2,18.627106 -2,18.167877 L -2.0002517,4.8331255 C -2.0002517,4.3738924 -2.2233786,4 -2.5007822,4 H -4.5008735 C -4.7758295,4.0003358 -5,4.3738877 -5,4.8331255"
       id="path73-6-3"
       style="fill:currentColor;fill-opacity:0.500892;stroke-width:1"
       class="ColorScheme-Text" />
    <path
       d="m -17,18.400884 v -4.799623 c 0,-0.332063 -0.223197,-0.60126 -0.500524,-0.60126 h -2.000143 C -19.77584,13.000001 -20,13.268947 -20,13.601261 v 4.799623 c 0,0.33063 0.224159,0.599117 0.499333,0.599117 h 2.000143 c 0.277556,0 0.500524,-0.268239 0.500524,-0.599117"
       id="path69-3-1-7"
       style="fill:currentColor;fill-opacity:1;stroke-width:1"
       class="ColorScheme-Text" />
  </g>
  <g
     id="22-22-audio-volume-muted"
     transform="translate(-30.000003,32)">
    <path
       id="path30"
       d="M 0,0 H 22 V 22 H 0 Z"
       fill="none" />
    <path
       d="M 10,18.101324 V 10.901896 C 10,10.403787 9.776803,10 9.499476,10 H 7.499333 C 7.22416,10 7,10.403435 7,10.901896 v 7.199428 C 7,18.597276 7.224159,19 7.499333,19 H 9.499476 C 9.777032,19 10,18.597645 10,18.101324"
       id="path69-0-5"
       style="fill:#bf616a;fill-opacity:1;stroke-width:1" />
    <path
       d="M 15,18.14355 V 7.8557584 C 15,7.3840755 14.776819,6.999826 14.499445,6.999826 L 12.49945,7.0001769 C 12.224238,7.0001769 12,7.3844103 12,7.8561104 V 18.143896 c 0,0.472363 0.224234,0.85593 0.49945,0.85593 h 2.000206 C 14.777018,18.99948 15,18.616268 15,18.143558"
       id="path71-62-9"
       style="fill:#bf616a;fill-opacity:1;stroke-width:1" />
    <path
       d="M 17.000018,4.8331246 V 18.167877 C 17.000018,18.627097 17.22417,19 17.499349,19 H 19.49947 C 19.776854,19 20,18.627106 20,18.167877 L 19.999748,4.8331246 C 19.999748,4.3738924 19.776621,4 19.499218,4 H 17.499126 C 17.22417,4.0003358 17,4.3738877 17,4.8331246"
       id="path73-6-2"
       style="fill:#bf616a;fill-opacity:1;stroke-width:1" />
    <path
       d="M 5,18.400885 V 13.601261 C 5,13.269198 4.776803,13.000001 4.499476,13.000001 H 2.499333 C 2.22416,13.000001 2,13.268947 2,13.601261 v 4.799624 c 0,0.330629 0.224159,0.599116 0.499333,0.599116 H 4.499476 C 4.777032,19.000001 5,18.731763 5,18.400885"
       id="path69-3-1-28"
       style="fill:#bf616a;fill-opacity:1;stroke-width:1" />
  </g>
</svg>
