<?xml version="1.0" encoding="UTF-8" standalone="no"?>
<svg
   id="svg50"
   width="32"
   height="32"
   version="1.1"
   sodipodi:docname="audio.svg"
   inkscape:version="1.2.2 (b0a8486541, 2022-12-01)"
   xmlns:inkscape="http://www.inkscape.org/namespaces/inkscape"
   xmlns:sodipodi="http://sodipodi.sourceforge.net/DTD/sodipodi-0.dtd"
   xmlns="http://www.w3.org/2000/svg"
   xmlns:svg="http://www.w3.org/2000/svg"
   xmlns:rdf="http://www.w3.org/1999/02/22-rdf-syntax-ns#"
   xmlns:cc="http://creativecommons.org/ns#"
   xmlns:dc="http://purl.org/dc/elements/1.1/">
  <style
     id="current-color-scheme"
     type="text/css">.ColorScheme-Text { color:#e5e9ef; }
</style>
  <metadata
     id="metadata67">
    <rdf:RDF>
      <cc:Work
         rdf:about="">
        <dc:format>image/svg+xml</dc:format>
        <dc:type
           rdf:resource="http://purl.org/dc/dcmitype/StillImage" />
      </cc:Work>
    </rdf:RDF>
  </metadata>
  <defs
     id="defs65" />
  <sodipodi:namedview
     pagecolor="#ffffff"
     bordercolor="#000000"
     borderopacity="1"
     objecttolerance="10"
     gridtolerance="10"
     guidetolerance="10"
     inkscape:pageopacity="0"
     inkscape:pageshadow="2"
     inkscape:window-width="1920"
     inkscape:window-height="1000"
     id="namedview63"
     showgrid="false"
     inkscape:zoom="5.6568545"
     inkscape:cx="48.525201"
     inkscape:cy="-2.2980969"
     inkscape:window-x="0"
     inkscape:window-y="0"
     inkscape:window-maximized="1"
     inkscape:current-layer="svg50"
     inkscape:document-rotation="0"
     inkscape:lockguides="true"
     inkscape:showpageshadow="true"
     inkscape:pagecheckerboard="false"
     inkscape:deskcolor="#cccccc">
    <inkscape:grid
       type="xygrid"
       id="grid1330"
       originx="96.000003"
       originy="0" />
  </sodipodi:namedview>
  <g
     id="audio-volume-high">
    <path
       style="opacity:0.00100002;fill:#e5e9ef;fill-opacity:1"
       d="M 0,0 H 32.000001 V 32.000001 H 0 Z"
       id="path2" />
    <path
       d="M 20,5.6698871 C 20,4.2317543 18.333356,3.4687961 17.279346,4.4243508 L 11.405769,9.7485969 C 11.22623,9.9113542 10.994356,10 10.754103,10 H 5.9423108 C 4.3173166,10 3,11.34438 3,13.001202 v 5.9971 C 3,20.65507 4.3173166,22 5.9423108,22 h 4.8117262 c 0.24027,0 0.472175,0.08806 0.651723,0.250861 l 5.873462,5.324832 C 18.333356,28.531459 20,27.768534 20,26.330289 Z M 12.709099,11.243262 18,6.4122603 V 25.587918 L 12.709165,20.756402 C 12.170525,20.26801 11.474809,20 10.754037,20 H 5.9423108 C 5.4006532,20 5,19.550558 5,18.998302 v -5.9971 C 5,12.448919 5.4006532,12 5.9423108,12 h 4.8117922 c 0.72072,0 1.416374,-0.268494 1.954996,-0.756738 z"
       id="path2057"
       style="fill:currentColor;fill-opacity:1;stroke-width:1.3205"
       sodipodi:nodetypes="sccssssssccssccccssssssc"
       class="ColorScheme-Text" />
    <path
       d="m 24.988951,8.1886215 c 0.44372,-0.3155696 1.06997,-0.2259955 1.398758,0.2000489 1.641289,2.1274466 2.612329,4.7619276 2.612329,7.6113146 0,2.849386 -0.97104,5.483869 -2.612329,7.611344 -0.328788,0.426102 -0.955038,0.51558 -1.398758,0.200051 -0.443854,-0.315512 -0.537056,-0.916726 -0.208387,-1.342831 1.394892,-1.807991 2.219535,-4.044388 2.219535,-6.468564 0,-2.42405 -0.824642,-4.660501 -2.219535,-6.468551 -0.328669,-0.4260452 -0.235467,-1.0272446 0.208387,-1.3428125 z"
       id="path2059"
       style="fill:currentColor;fill-opacity:1;stroke-width:1.30642"
       class="ColorScheme-Text" />
    <path
       d="m 22.524215,11.352758 c 0.485595,-0.252398 1.09251,-0.07907 1.355428,0.38721 0.714925,1.26797 1.120517,2.719932 1.120517,4.260017 0,1.540084 -0.405592,2.992106 -1.120517,4.260068 -0.262918,0.466173 -0.869833,0.639611 -1.355428,0.387197 -0.485712,-0.252414 -0.666371,-0.835067 -0.403453,-1.301242 0.56065,-0.994294 0.879448,-2.132978 0.879448,-3.346023 0,-1.213047 -0.318798,-2.351731 -0.879448,-3.345989 -0.262918,-0.466246 -0.08227,-1.048834 0.403453,-1.301238 z"
       id="path2061"
       style="fill:currentColor;fill-opacity:1;stroke-width:1.30642"
       class="ColorScheme-Text" />
  </g>
  <g
     id="22-22-audio-volume-high"
     transform="translate(0,-22)">
    <path
       style="opacity:0.00100002;fill:#e5e9ef;fill-opacity:1"
       d="M 0,0 H 22 V 22 H 0 Z"
       id="path7-5" />
    <path
       d="m 14,4.0370168 c 0,-0.958748 -1.176456,-1.367133 -1.920462,-0.730102 l -4.146054,3.54947 c -0.126734,0.108504 -0.290409,0.167601 -0.46,0.167601 H 4.076925 C 2.92987,7.0239858 2,7.9202318 2,9.0247708 v 3.9980352 c 0,1.104503 0.92987,2.001116 2.076925,2.001116 h 3.396512 c 0.169603,0 0.333301,0.05871 0.46004,0.167239 l 4.145971,3.54986 c 0.744095,0.637173 1.920555,0.282996 1.920555,-0.717004 z m -5.146519,3.516 4.146522,-3.529 V 18.024017 l -4.146475,-3.529 c -0.380217,-0.325592 -0.87131,-0.471 -1.380091,-0.471 H 4.000003 c -0.382346,0 -1,-0.631832 -1,-1 V 9.0240168 c 0,-0.368186 0.661152,-1 0.999997,-1 h 3.473484 c 0.508744,0 0.999793,-0.145506 1.379997,-0.471 z"
       id="path2057-3"
       style="fill:currentColor;fill-opacity:1;stroke-width:0.905853"
       sodipodi:nodetypes="sccssssssccssccccssssssc"
       class="ColorScheme-Text" />
    <path
       d="m 17.321,5.8164088 c 0.296361,-0.210378 0.714633,-0.150662 0.934228,0.133365 C 19.351444,7.3680608 20,9.1243678 20,11.023944 c 0,1.899576 -0.648556,3.655883 -1.744772,5.074189 -0.219596,0.284066 -0.637867,0.343717 -0.934228,0.133366 -0.296449,-0.21034 -0.358698,-0.611146 -0.139179,-0.895213 0.931644,-1.205318 1.482424,-2.696238 1.482424,-4.312342 0,-1.6160212 -0.550778,-3.1069762 -1.482424,-4.3123332 -0.219519,-0.284028 -0.15727,-0.684825 0.139179,-0.895202 z"
       id="path2059-6"
       style="fill:currentColor;fill-opacity:1;stroke-width:0.871748"
       class="ColorScheme-Text" />
    <path
       d="m 15.674806,7.9258168 c 0.324329,-0.168264 0.729686,-0.05271 0.905289,0.258138 0.477497,0.845307 0.748392,1.8132742 0.748392,2.8399892 0,1.026714 -0.270894,1.994722 -0.748392,2.840023 -0.175603,0.310779 -0.58096,0.426403 -0.905289,0.258129 -0.324405,-0.168275 -0.445067,-0.556707 -0.269466,-0.867488 0.374459,-0.662857 0.587384,-1.421974 0.587384,-2.230664 0,-0.808691 -0.212924,-1.5678082 -0.587384,-2.2306422 -0.175601,-0.310828 -0.05496,-0.699217 0.269466,-0.867485 z"
       id="path2061-7"
       style="fill:currentColor;fill-opacity:1;stroke-width:0.871748"
       class="ColorScheme-Text" />
  </g>
  <g
     id="audio-volume-medium"
     transform="translate(32.000001)">
    <path
       style="opacity:0.00100002;fill:#e5e9ef;fill-opacity:1"
       d="M 0,0 H 32.000001 V 32.000001 H 0 Z"
       id="path31" />
    <path
       d="M 20,5.669887 C 20,4.231754 18.333356,3.468796 17.279346,4.424351 L 11.405769,9.748597 C 11.22623,9.911354 10.994356,10 10.754103,10 H 5.942311 C 4.317317,10 3,11.34438 3,13.001202 v 5.9971 C 3,20.65507 4.317317,22 5.942311,22 h 4.811726 c 0.24027,0 0.472175,0.08806 0.651723,0.250861 l 5.873462,5.324832 C 18.333356,28.53146 20,27.768534 20,26.330289 Z M 12.709099,11.243262 18,6.41226 V 25.587918 L 12.709165,20.756402 C 12.170525,20.26801 11.474809,20 10.754037,20 H 5.942311 C 5.400653,20 5,19.550558 5,18.998302 v -5.9971 C 5,12.448919 5.400653,12 5.942311,12 h 4.811792 c 0.72072,0 1.416374,-0.268494 1.954996,-0.756738 z"
       id="path2057-36"
       style="fill:currentColor;fill-opacity:1;stroke-width:1.3205"
       sodipodi:nodetypes="sccssssssccssccccssssssc"
       class="ColorScheme-Text" />
    <path
       d="m 24.988951,8.188621 c 0.44372,-0.315569 1.06997,-0.225995 1.398758,0.200049 1.641289,2.127447 2.612329,4.761928 2.612329,7.611315 0,2.849386 -0.97104,5.483869 -2.612329,7.611344 -0.328788,0.426102 -0.955038,0.51558 -1.398758,0.200051 -0.443854,-0.315512 -0.537056,-0.916726 -0.208387,-1.342831 1.394892,-1.807991 2.219535,-4.044388 2.219535,-6.468564 0,-2.42405 -0.824642,-4.660501 -2.219535,-6.468551 -0.328669,-0.426045 -0.235467,-1.027245 0.208387,-1.342813 z"
       id="path2059-7"
       style="fill:currentColor;fill-opacity:1;stroke-width:1.30642"
       class="ColorScheme-Text" />
    <path
       d="m 22.524215,11.352758 c 0.485595,-0.252398 1.09251,-0.07907 1.355428,0.38721 0.714925,1.26797 1.120517,2.719932 1.120517,4.260017 0,1.540084 -0.405592,2.992106 -1.120517,4.260068 -0.262918,0.466173 -0.869833,0.639611 -1.355428,0.387197 -0.485712,-0.252414 -0.666371,-0.835067 -0.403453,-1.301242 0.56065,-0.994294 0.879448,-2.132978 0.879448,-3.346023 0,-1.213047 -0.318798,-2.351731 -0.879448,-3.345989 -0.262918,-0.466246 -0.08227,-1.048834 0.403453,-1.301238 z"
       id="path2061-5"
       style="fill:currentColor;fill-opacity:0.5;stroke-width:1.30642"
       class="ColorScheme-Text" />
  </g>
  <g
     id="22-22-audio-volume-medium"
     transform="translate(32.000001,-22)">
    <path
       style="opacity:0.00100002;fill:#e5e9ef;fill-opacity:1"
       d="M 0,0 H 22 V 22 H 0 Z"
       id="path12" />
    <path
       d="m 14,4.0370168 c 0,-0.958748 -1.176456,-1.367133 -1.920462,-0.730102 l -4.146054,3.54947 c -0.126734,0.108504 -0.290409,0.167601 -0.46,0.167601 H 4.076925 C 2.92987,7.0239858 2,7.9202318 2,9.0247708 v 3.9980352 c 0,1.104503 0.92987,2.001116 2.076925,2.001116 h 3.396512 c 0.169603,0 0.333301,0.05871 0.46004,0.167239 l 4.145971,3.54986 c 0.744095,0.637173 1.920555,0.282996 1.920555,-0.717004 z m -5.146519,3.516 4.146522,-3.529 V 18.024017 l -4.146475,-3.529 c -0.380217,-0.325592 -0.87131,-0.471 -1.380091,-0.471 H 4.000003 c -0.382346,0 -1,-0.631832 -1,-1 V 9.0240168 c 0,-0.368186 0.661152,-1 0.999997,-1 h 3.473484 c 0.508744,0 0.999793,-0.145506 1.379997,-0.471 z"
       id="path2057-3-0"
       style="fill:currentColor;fill-opacity:1;stroke-width:0.905853"
       sodipodi:nodetypes="sccssssssccssccccssssssc"
       class="ColorScheme-Text" />
    <path
       d="m 17.321,5.8164088 c 0.296361,-0.210378 0.714633,-0.150662 0.934228,0.133365 C 19.351444,7.3680608 20,9.1243678 20,11.023944 c 0,1.899576 -0.648556,3.655883 -1.744772,5.074189 -0.219596,0.284066 -0.637867,0.343717 -0.934228,0.133366 -0.296449,-0.21034 -0.358698,-0.611146 -0.139179,-0.895213 0.931644,-1.205318 1.482424,-2.696238 1.482424,-4.312342 0,-1.6160212 -0.550778,-3.1069762 -1.482424,-4.3123332 -0.219519,-0.284028 -0.15727,-0.684825 0.139179,-0.895202 z"
       id="path2059-6-9"
       style="fill:currentColor;fill-opacity:1;stroke-width:0.871748"
       class="ColorScheme-Text" />
    <path
       d="m 15.674806,7.9258168 c 0.324329,-0.168264 0.729686,-0.05271 0.905289,0.258138 0.477497,0.845307 0.748392,1.8132742 0.748392,2.8399892 0,1.026714 -0.270894,1.994722 -0.748392,2.840023 -0.175603,0.310779 -0.58096,0.426403 -0.905289,0.258129 -0.324405,-0.168275 -0.445067,-0.556707 -0.269466,-0.867488 0.374459,-0.662857 0.587384,-1.421974 0.587384,-2.230664 0,-0.808691 -0.212924,-1.5678082 -0.587384,-2.2306422 -0.175601,-0.310828 -0.05496,-0.699217 0.269466,-0.867485 z"
       id="path2061-7-3"
       style="fill:currentColor;fill-opacity:0.5;stroke-width:0.871748"
       class="ColorScheme-Text" />
  </g>
  <g
     id="audio-volume-muted"
     transform="translate(96.000003)">
    <path
       style="opacity:0.00100002;fill:#e5e9ef;fill-opacity:1"
       d="M 0,0 H 31.999997 V 32.000001 H 0 Z"
       id="path45" />
    <path
       d="M 4.664429,3.2855783 C 4.28368,2.9048213 3.66634,2.9048013 3.285579,3.2855543 2.90482,3.6663093 2.90481,4.2836413 3.28555,4.6644033 L 8.769118,10 H 5.924978 C 4.30956,10 3,11.457624 3,13.073038 v 5.847276 C 3,20.535683 4.20907,22 5.82449,22 h 5.183018 c 0.29164,0 0.17001,-0.06708 0.34849,0.09163 l 5.8391,5.19177 c 1.04792,0.93183 2.83421,0.187545 2.8049,-1.21432 v -4.790064 l 7.33501,7.435411 c 0.38076,0.380761 0.99813,0.380761 1.3789,0 0.38076,-0.380768 0.38076,-0.998134 0,-1.378895 z M 17.999998,19.329031 v 6.016214 l -5.34804,-4.710896 C 12.116498,20.158292 11.424888,20 10.708358,20 H 5.924978 C 5.38652,20 4.97039,19.45875 4.97499,18.920314 l 0.05,-5.847276 C 5.02999,12.534592 5.3865,12 5.924958,12 h 4.78344 c 0.003,0 0.007,10e-6 0.0104,0 z"
       id="path1707-36"
       style="fill:currentColor;fill-opacity:1;stroke-width:1.29999"
       sodipodi:nodetypes="ccccsssssccsccccccccsssssscc"
       class="ColorScheme-Text " />
    <path
       d="m 17.999998,6.6487703 v 7.1647977 l 2,1.949981 V 5.9249453 c 0,-1.40219 -1.63294,-2.146086 -2.68073,-1.214417 l -4.41927,3.92899 1.38119,1.3812307 z"
       id="path1709-7"
       style="fill:currentColor;fill-opacity:1;stroke-width:1.29999"
       sodipodi:nodetypes="cccscccc"
       class="ColorScheme-Text " />
    <path
       d="m 22.683128,18.546822 1.47939,1.479525 c 0.60033,-1.214847 0.93728,-2.582564 0.93728,-4.026459 0,-1.564144 -0.39545,-3.03882 -1.0925,-4.326602 -0.25636,-0.473544 -0.84811,-0.649613 -1.32157,-0.393255 -0.47358,0.256348 -0.64974,0.848038 -0.39338,1.321571 0.54665,1.009811 0.85748,2.16628 0.85748,3.398286 0,0.898294 -0.16523,1.756548 -0.4667,2.546934 z"
       id="path1711-5"
       style="fill:currentColor;fill-opacity:1;stroke-width:1.29999"
       class="ColorScheme-Text " />
    <path
       d="m 25.604328,21.468162 1.42141,1.421405 c 1.25085,-1.997686 1.97404,-4.36029 1.97404,-6.889679 0,-2.893935 -0.94679,-5.569567 -2.54707,-7.7302527 -0.32058,-0.432702 -0.93119,-0.523676 -1.36382,-0.203179 -0.43277,0.320488 -0.52364,0.9310797 -0.20319,1.3637957 1.36005,1.836299 2.1641,4.107718 2.1641,6.569636 0,1.990412 -0.52546,3.85616 -1.44547,5.468274 z"
       id="path1713-3"
       style="fill:currentColor;fill-opacity:1;stroke-width:1.29999"
       class="ColorScheme-Text " />
  </g>
  <g
     id="22-22-audio-volume-muted"
     transform="translate(96.000003,-22)">
    <path
       style="opacity:0.00100002;fill:#e5e9ef;fill-opacity:1"
       d="M 0,0 H 21.999997 V 22 H 0 Z"
       id="path26" />
    <path
       d="M 4.024263,3.1757404 C 3.789955,2.9414284 3.410052,2.9414164 3.175744,3.1757254 2.941428,3.4100364 2.94142,3.7899334 3.175726,4.0242484 L 6.15,7.0080004 4.799986,7.0000004 C 3.805899,6.9941004 3,7.9048994 3,8.8990004 V 13.097 c 0,1.202883 0.805895,1.902797 1.8,1.902846 L 7.927695,15 c 0.17947,9e-6 0.40447,-0.04867 0.51431,0.049 l 3.293,2.895 c 0.64487,0.573434 1.265,0.256 1.265,-0.548 v -3.647 l 4.97539,5.075258 c 0.23432,0.234314 0.61423,0.234314 0.84855,0 0.23431,-0.234319 0.23431,-0.614236 0,-0.848551 z M 12.000005,12.8 l 0.031,3.951 -2.891,-2.551 C 8.810485,13.907042 8.184555,14 7.743615,14 H 4.800007 C 4.468647,14 4.000014,13.531357 4.000014,13.2 V 8.8000004 c 0,-0.331363 0.46862,-0.8 0.79998,-0.8 h 3.200021 c 0.002,0 -0.8521,6e-6 -0.85001,0 z"
       id="path1707-3-5"
       style="fill:currentColor;fill-opacity:1;stroke-width:0.799994"
       sodipodi:nodetypes="ccccsssssccsccccccccsssssscc"
       class="ColorScheme-Text " />
    <path
       d="m 12.000005,5.2453974 v 4.409107 l 1,1.1994956 V 4.5000004 c 0,-0.5 -0.54335,-1.020702 -1.18815,-0.447367 l -2.71955,2.41784 0.7497,0.749527 z"
       id="path1709-5-6"
       style="fill:currentColor;fill-opacity:1;stroke-width:0.799994"
       sodipodi:nodetypes="cccscccc"
       class="ColorScheme-Text " />
    <path
       d="m 15.112695,12.567276 0.91039,0.910477 c 0.36944,-0.747599 0.5768,-1.589271 0.5768,-2.477821 0,-0.962551 -0.24336,-1.8700436 -0.67232,-2.6625246 -0.15775,-0.291412 -0.52191,-0.399762 -0.81327,-0.242003 -0.29143,0.157753 -0.39983,0.52187 -0.24208,0.813275 0.3364,0.621422 0.52768,1.3330946 0.52768,2.0912526 0,0.552796 -0.10168,1.080952 -0.2872,1.567344 z"
       id="path1711-6-2"
       style="fill:currentColor;fill-opacity:1;stroke-width:0.799994"
       class="ColorScheme-Text " />
    <path
       d="m 16.910365,14.365024 0.87471,0.87471 c 0.76975,-1.229345 1.21479,-2.683255 1.21479,-4.239802 0,-1.7808836 -0.58263,-3.4274266 -1.56743,-4.7570796 -0.19728,-0.266278 -0.57303,-0.322262 -0.83927,-0.125033 -0.26632,0.197224 -0.32224,0.572973 -0.12504,0.839259 0.83695,1.130031 1.33175,2.527827 1.33175,4.0428536 0,1.224869 -0.32336,2.373021 -0.88951,3.365092 z"
       id="path1713-2-9"
       style="fill:currentColor;fill-opacity:1;stroke-width:0.799994"
       class="ColorScheme-Text " />
  </g>
  <g
     id="22-22-audio-volume-low"
     transform="translate(64.000002,-22)">
    <path
       style="opacity:0.00100002;fill:#e5e9ef;fill-opacity:1"
       d="M 0,0 H 22 V 22 H 0 Z"
       id="path19" />
    <path
       d="m 14.000001,4.0370168 c 0,-0.958748 -1.17646,-1.367133 -1.92046,-0.730102 l -4.146061,3.54947 c -0.12673,0.108504 -0.29041,0.167601 -0.46,0.167601 H 4.07693 C 2.92987,7.0239858 2,7.9202318 2,9.0247708 v 3.9980352 c 0,1.104503 0.92987,2.001116 2.07693,2.001116 h 3.39651 c 0.1696,0 0.3333,0.05871 0.46004,0.167239 l 4.145971,3.54986 c 0.74409,0.637173 1.92055,0.282996 1.92055,-0.717004 z m -5.146521,3.516 4.146521,-3.529 V 18.024017 l -4.146471,-3.529 c -0.38022,-0.325592 -0.87131,-0.471 -1.38009,-0.471 H 4 c -0.38234,0 -1,-0.631832 -1,-1 V 9.0240168 c 0,-0.368186 0.66115,-1 1,-1 h 3.47348 c 0.50875,0 0.9998,-0.145506 1.38,-0.471 z"
       id="path2057-3-1-3"
       style="fill:currentColor;fill-opacity:1;stroke-width:0.905853"
       sodipodi:nodetypes="sccssssssccssccccssssssc"
       class="ColorScheme-Text " />
    <path
       d="m 17.321001,5.8164088 c 0.29636,-0.210378 0.71463,-0.150662 0.93423,0.133365 1.09621,1.418287 1.74477,3.174594 1.74477,5.0741702 0,1.899576 -0.64856,3.655883 -1.74477,5.074189 -0.2196,0.284066 -0.63787,0.343717 -0.93423,0.133366 -0.29645,-0.21034 -0.3587,-0.611146 -0.13918,-0.895213 0.93164,-1.205318 1.48242,-2.696238 1.48242,-4.312342 0,-1.6160212 -0.55077,-3.1069762 -1.48242,-4.3123332 -0.21952,-0.284028 -0.15727,-0.684825 0.13918,-0.895202 z"
       id="path2059-6-2-6"
       style="fill:currentColor;fill-opacity:0.5;stroke-width:0.871748"
       class="ColorScheme-Text " />
    <path
       d="m 15.674811,7.9258168 c 0.32432,-0.168264 0.72968,-0.05271 0.90528,0.258138 0.4775,0.845307 0.7484,1.8132742 0.7484,2.8399892 0,1.026714 -0.2709,1.994722 -0.7484,2.840023 -0.1756,0.310779 -0.58096,0.426403 -0.90528,0.258129 -0.32441,-0.168275 -0.44507,-0.556707 -0.26947,-0.867488 0.37446,-0.662857 0.58738,-1.421974 0.58738,-2.230664 0,-0.808691 -0.21292,-1.5678082 -0.58738,-2.2306422 -0.1756,-0.310828 -0.055,-0.699217 0.26947,-0.867485 z"
       id="path2061-7-7-7"
       style="fill:currentColor;fill-opacity:0.5;stroke-width:0.871748"
       class="ColorScheme-Text " />
  </g>
  <g
     id="audio-volume-low"
     transform="translate(64.000002)">
    <path
       style="opacity:0.00100002;fill:#e5e9ef;fill-opacity:1"
       d="M 0,0 H 32.000001 V 32.000001 H 0 Z"
       id="path38" />
    <path
       d="m 19.999999,5.678887 c 0,-1.438133 -1.666643,-2.201091 -2.720654,-1.245536 L 11.405769,9.757597 C 11.22623,9.920354 10.994355,10.009 10.754103,10.009 H 5.942311 C 4.317317,10.009 3,11.35338 3,13.010202 v 5.9971 C 3,20.66407 4.317317,22.009 5.942311,22.009 h 4.811726 c 0.240269,0 0.472175,0.08806 0.651723,0.250861 l 5.873461,5.324832 c 1.054133,0.955767 2.720777,0.192841 2.720777,-1.245404 z m -7.2909,5.573375 L 18,6.42126 V 25.596918 L 12.709165,20.765402 C 12.170525,20.27701 11.474809,20.009 10.754037,20.009 H 5.942311 C 5.400653,20.009 5,19.559558 5,19.007302 v -5.9971 C 5,12.457919 5.400653,12.009 5.942311,12.009 h 4.811792 c 0.72072,0 1.416374,-0.268494 1.954996,-0.756738 z"
       id="path2057-35-5"
       style="fill:currentColor;fill-opacity:1;stroke-width:1.3205"
       sodipodi:nodetypes="sccssssssccssccccssssssc"
       class="ColorScheme-Text " />
    <path
       d="m 24.98895,8.197621 c 0.443719,-0.315569 1.069969,-0.225995 1.398758,0.200049 1.641289,2.127447 2.612329,4.761928 2.612329,7.611315 0,2.849386 -0.97104,5.483869 -2.612329,7.611344 -0.328789,0.426102 -0.955037,0.51558 -1.398758,0.200051 -0.443855,-0.315512 -0.537056,-0.916726 -0.208388,-1.342831 1.394892,-1.807991 2.219535,-4.044388 2.219535,-6.468564 0,-2.42405 -0.824641,-4.660501 -2.219535,-6.468551 C 24.451894,9.114389 24.545095,8.513189 24.98895,8.197621 Z"
       id="path2059-62-3"
       style="fill:currentColor;fill-opacity:0.5;stroke-width:1.30642"
       class="ColorScheme-Text " />
    <path
       d="m 22.524213,11.361758 c 0.485595,-0.252398 1.092511,-0.07907 1.355428,0.38721 0.714926,1.26797 1.120517,2.719932 1.120517,4.260017 0,1.540084 -0.405591,2.992106 -1.120517,4.260068 -0.262917,0.466173 -0.869833,0.639611 -1.355428,0.387197 -0.485712,-0.252414 -0.666371,-0.835067 -0.403452,-1.301242 0.560649,-0.994294 0.879448,-2.132978 0.879448,-3.346023 0,-1.213047 -0.318799,-2.351731 -0.879448,-3.345989 -0.262918,-0.466246 -0.08227,-1.048834 0.403452,-1.301238 z"
       id="path2061-9-5"
       style="fill:currentColor;fill-opacity:0.5;stroke-width:1.30642"
       class="ColorScheme-Text " />
  </g>
</svg>
