<?xml version="1.0" encoding="UTF-8" standalone="no"?>
<svg
   width="22"
   height="22"
   version="1.1"
   id="svg12"
   sodipodi:docname="bookmarks.svg"
   inkscape:version="1.2.1 (9c6d41e410, 2022-07-14)"
   xmlns:inkscape="http://www.inkscape.org/namespaces/inkscape"
   xmlns:sodipodi="http://sodipodi.sourceforge.net/DTD/sodipodi-0.dtd"
   xmlns="http://www.w3.org/2000/svg"
   xmlns:svg="http://www.w3.org/2000/svg"
   xmlns:rdf="http://www.w3.org/1999/02/22-rdf-syntax-ns#"
   xmlns:cc="http://creativecommons.org/ns#"
   xmlns:dc="http://purl.org/dc/elements/1.1/">
  <style
     id="current-color-scheme"
     type="text/css">.ColorScheme-Text { color:#eff0f1; }
</style>
  <metadata
     id="metadata18">
    <rdf:RDF>
      <cc:Work
         rdf:about="">
        <dc:format>image/svg+xml</dc:format>
        <dc:type
           rdf:resource="http://purl.org/dc/dcmitype/StillImage" />
      </cc:Work>
    </rdf:RDF>
  </metadata>
  <defs
     id="defs16" />
  <sodipodi:namedview
     pagecolor="#ffffff"
     bordercolor="#000000"
     borderopacity="1"
     objecttolerance="10"
     gridtolerance="10"
     guidetolerance="10"
     inkscape:pageopacity="0"
     inkscape:pageshadow="2"
     inkscape:window-width="1920"
     inkscape:window-height="1000"
     id="namedview14"
     showgrid="false"
     inkscape:zoom="8.0000004"
     inkscape:cx="2.9999999"
     inkscape:cy="15.062499"
     inkscape:window-x="0"
     inkscape:window-y="0"
     inkscape:window-maximized="1"
     inkscape:current-layer="svg12"
     inkscape:document-rotation="0"
     inkscape:pagecheckerboard="0"
     inkscape:showpageshadow="true"
     inkscape:lockguides="true"
     inkscape:deskcolor="#cccccc">
    <inkscape:grid
       type="xygrid"
       id="grid1632"
       originx="-32"
       originy="-10" />
  </sodipodi:namedview>
  <g
     id="g997"
     transform="translate(6.84211,31.897411)" />
  <g
     id="g999"
     transform="translate(38.84211,41.897411)" />
  <g
     id="bookmarks"
     transform="translate(-32,-10)">
    <rect
       y="0"
       x="0"
       height="32"
       width="32"
       id="rect820"
       style="clip-rule:evenodd;fill:#2020ff;fill-opacity:0;fill-rule:evenodd;stroke-linejoin:round;stroke-miterlimit:1.41421" />
    <text
       xml:space="preserve"
       style="font-weight:bold;font-size:11.2309px;line-height:1.25;font-family:sans-serif;-inkscape-font-specification:'sans-serif Bold';fill:currentColor;fill-opacity:1;stroke-width:1;stroke-dasharray:none"
       x="7.281477"
       y="17.08816"
       id="text2140"
       transform="scale(0.96847251,1.0325538)"
       class="ColorScheme-Text"><tspan
         sodipodi:role="line"
         id="tspan2138"
         x="7.281477"
         y="17.08816"
         style="stroke-width:1.01155;stroke-dasharray:none">Top</tspan></text>
    <path
       d="m 16.005022,27.99977 c -0.170583,0 -0.34118,-0.0667 -0.477491,-0.19996 L 4.3061675,16.933255 C 3.8286749,16.499855 3.4534859,15.999932 3.1122884,15.466544 1.2705967,12.499909 1.7481109,8.69995 4.3061675,6.23331 5.7726682,4.800111 7.7509606,4 9.8315155,4 c 1.3984655,0 2.7969425,0.366675 3.9905775,1.066774 0.545773,0.299944 1.057268,0.700112 1.53478,1.166774 0.238864,0.233444 0.44347,0.466649 0.648099,0.700111 0.204603,-0.233444 0.40922,-0.46665 0.648103,-0.700111 C 17.130572,5.800147 17.642068,5.400223 18.18785,5.066774 19.381741,4.366663 20.779957,4 22.178427,4 c 2.08055,0 4.058847,0.800051 5.525346,2.23331 2.524015,2.466699 3.035573,6.266599 1.193891,9.233234 -0.341178,0.533382 -0.716387,1.033263 -1.193891,1.466711 L 16.482412,27.79981 C 16.346086,27.93327 16.175504,28 16.004922,28 Z M 9.8315668,5.333343 c -1.7394183,0 -3.34247,0.6666 -4.5703423,1.833373 -2.0805544,2.033312 -2.4897874,5.166671 -0.9889977,7.599919 0.2728967,0.4334 0.6138183,0.866598 0.9889977,1.233261 L 16.005081,26.39978 26.748941,15.999896 c 0.375189,-0.366675 0.71638,-0.766599 0.988986,-1.233261 1.500791,-2.4667 1.125551,-5.599821 -0.988986,-7.599919 -1.22787,-1.166773 -2.864967,-1.833373 -4.570345,-1.833373 -1.159589,0 -2.319189,0.299943 -3.308421,0.866598 -0.443472,0.266693 -0.886737,0.566631 -1.261917,0.966537 -0.409224,0.399924 -0.75037,0.833325 -1.023288,1.266714 -0.136325,0.199962 -0.341175,0.333424 -0.579796,0.333424 -0.238875,0 -0.477493,-0.133231 -0.579794,-0.333424 C 15.152481,7.966542 14.811563,7.533141 14.402092,7.166478 14.026892,6.799803 13.583453,6.466368 13.140176,6.233155 12.150933,5.63328 10.991342,5.333343 9.8317508,5.333343 Z"
       id="path1265"
       style="fill:currentColor;fill-opacity:1;stroke-width:1;stroke-dasharray:none"
       class="ColorScheme-Text" />
  </g>
  <g
     id="22-22-bookmarks">
    <rect
       y="0"
       x="0"
       height="22"
       width="22"
       id="rect820-6"
       style="clip-rule:evenodd;fill:#2020ff;fill-opacity:0;fill-rule:evenodd;stroke-width:0.6875;stroke-linejoin:round;stroke-miterlimit:1.41421" />
    <text
       xml:space="preserve"
       style="font-weight:bold;font-size:8.22022px;line-height:1.25;font-family:sans-serif;-inkscape-font-specification:'sans-serif Bold';fill:currentColor;fill-opacity:1;stroke-width:1;stroke-dasharray:none"
       x="4.8760471"
       y="11.562113"
       id="text2140-3"
       transform="scale(0.94513245,1.0580528)"
       class="ColorScheme-Text"><tspan
         sodipodi:role="line"
         id="tspan2138-6"
         x="4.8760471"
         y="11.562113"
         style="stroke-width:0.740379;stroke-dasharray:none">Top</tspan></text>
    <path
       d="m 11.003587,19.99982 c -0.121846,0 -0.243696,-0.05002 -0.341066,-0.149969 L 2.6472628,11.699934 C 2.3061969,11.374884 2.0382049,10.999942 1.7944916,10.599901 0.47899778,8.374925 0.82007916,5.524955 2.6472628,3.674975 3.6947635,2.600076 5.1078301,1.999993 6.5939401,1.999993 c 0.9989047,0 1.9978163,0.275006 2.8504121,0.800081 0.3898378,0.224958 0.7551898,0.525084 1.0962728,0.87508 0.170618,0.175083 0.316764,0.349987 0.462925,0.525083 0.14615,-0.175083 0.292304,-0.349987 0.462936,-0.525083 0.341064,-0.325051 0.706419,-0.624994 1.096263,-0.87508 0.852779,-0.525084 1.851509,-0.800081 2.850412,-0.800081 1.486113,0 2.899177,0.600038 3.946679,1.674982 1.802866,1.850025 2.168263,4.69995 0.852778,6.924926 -0.243698,0.400036 -0.511706,0.774947 -0.852778,1.100033 l -8.015259,8.149916 c -0.09736,0.100095 -0.219221,0.150143 -0.341066,0.150143 z M 6.5939771,3 C 5.3515355,3 4.2064981,3.49995 3.329447,4.37503 1.8433359,5.900014 1.551027,8.250033 2.6230198,10.074969 c 0.1949265,0.32505 0.4384418,0.649949 0.7064272,0.924946 l 7.674185,7.799913 7.674184,-7.799913 c 0.267993,-0.275006 0.511698,-0.574949 0.70642,-0.924946 C 20.456229,8.224944 20.188199,5.875103 18.677816,4.37503 17.800764,3.49995 16.631411,3 15.413287,3 c -0.82828,0 -1.656567,0.224958 -2.363162,0.649949 -0.316765,0.20002 -0.633384,0.424973 -0.901369,0.724903 -0.292301,0.299943 -0.535979,0.624993 -0.730919,0.950035 -0.09737,0.149971 -0.243699,0.250068 -0.414138,0.250068 -0.170625,0 -0.341068,-0.09992 -0.414143,-0.250068 C 10.394631,4.9749 10.151115,4.649849 9.8586391,4.374852 9.5906388,4.099845 9.2738957,3.849769 8.9572707,3.674859 8.2506683,3.224953 7.4223885,3 6.5941086,3 Z"
       id="path1265-7"
       style="fill:currentColor;fill-opacity:1;stroke-width:1;stroke-dasharray:none"
       class="ColorScheme-Text" />
  </g>
</svg>
