<?xml version="1.0" encoding="UTF-8" standalone="no"?>
<svg
   width="32"
   height="32"
   version="1.1"
   id="svg12"
   sodipodi:docname="choqok.svg"
   inkscape:version="1.2.1 (9c6d41e410, 2022-07-14)"
   xmlns:inkscape="http://www.inkscape.org/namespaces/inkscape"
   xmlns:sodipodi="http://sodipodi.sourceforge.net/DTD/sodipodi-0.dtd"
   xmlns="http://www.w3.org/2000/svg"
   xmlns:svg="http://www.w3.org/2000/svg"
   xmlns:rdf="http://www.w3.org/1999/02/22-rdf-syntax-ns#"
   xmlns:cc="http://creativecommons.org/ns#"
   xmlns:dc="http://purl.org/dc/elements/1.1/">
  <style
     id="current-color-scheme"
     type="text/css">.ColorScheme-Background {
    color:#31363b;
}
.ColorScheme-Text { color:#eff0f1; }
</style>
  <metadata
     id="metadata18">
    <rdf:RDF>
      <cc:Work
         rdf:about="">
        <dc:format>image/svg+xml</dc:format>
        <dc:type
           rdf:resource="http://purl.org/dc/dcmitype/StillImage" />
      </cc:Work>
    </rdf:RDF>
  </metadata>
  <defs
     id="defs16" />
  <sodipodi:namedview
     pagecolor="#ffffff"
     bordercolor="#000000"
     borderopacity="1"
     objecttolerance="10"
     gridtolerance="10"
     guidetolerance="10"
     inkscape:pageopacity="0"
     inkscape:pageshadow="2"
     inkscape:window-width="1920"
     inkscape:window-height="1000"
     id="namedview14"
     showgrid="false"
     inkscape:zoom="8.0000004"
     inkscape:cx="37.874998"
     inkscape:cy="19.812499"
     inkscape:window-x="0"
     inkscape:window-y="0"
     inkscape:window-maximized="1"
     inkscape:current-layer="svg12"
     inkscape:document-rotation="0"
     inkscape:lockguides="true"
     inkscape:pagecheckerboard="0"
     inkscape:showpageshadow="true"
     inkscape:deskcolor="#cccccc">
    <inkscape:grid
       type="xygrid"
       id="grid941"
       originx="0"
       originy="0" />
  </sodipodi:namedview>
  <g
     id="choqok">
    <rect
       style="opacity:0.00100002"
       width="32"
       height="32"
       x="0"
       y="0"
       id="rect7" />
    <path
       inkscape:connector-curvature="0"
       style="stroke-width:0.395029;fill-rule:evenodd;fill-opacity:1;fill:currentColor;"
       id="path4411-1-6"
       d="m 12.96192,18.6741 c 3.151521,2.933261 6.06992,2.825378 7.490744,1.151699 1.420806,-1.67367 0.357688,-3.103309 0.357688,-3.103309 z"
       class="ColorScheme-Text" />
    <path
       inkscape:connector-curvature="0"
       style="fill:currentColor;fill-opacity:1;fill-rule:evenodd;stroke-width:0.395029"
       id="path4411-7"
       d="m 13.36172,18.6767 c 2.394824,2.409088 5.550228,2.287467 6.629897,0.91287 1.079664,-1.374582 0.271806,-2.54876 0.271806,-2.54876 z"
       class="ColorScheme-Background" />
    <path
       inkscape:connector-curvature="0"
       style="stroke-opacity:1;stroke-width:1.0;stroke:#eff0f1;fill-rule:evenodd;fill-opacity:1;fill:currentColor;"
       id="path4284-9"
       d="m 12.96192,18.6741 c 0,0 0.572384,-1.685771 3.570497,-2.446038 2.998133,-0.76024 4.4245,0.494428 4.4245,0.494428 0.399244,1.135105 -3.463762,2.898779 -3.463762,2.898779 0,0 -4.277273,0.224777 -4.531235,-0.947169 z"
       class="ColorScheme-Text" />
    <path
       inkscape:connector-curvature="0"
       style="stroke-linejoin:round;stroke-linecap:round;stroke-width:1.0;fill-opacity:1;fill:currentColor;"
       id="path4170-3"
       d="m 8.1588869,11.044997 c -0.8110071,0 -1.5571431,0.02642 -2.1588869,0.468387 v 5.850712 c 0.6017438,0.441989 1.3478798,0.706698 2.1588869,0.706698 1.9871971,0 4.0928871,-0.870193 4.0928871,-2.810318 0,-1.940121 -2.10569,-4.215479 -4.0928871,-4.215479 z"
       class="ColorScheme-Text" />
    <ellipse
       cx="9.1184015"
       cy="14.557889"
       style="fill:currentColor;stroke-width:1.42211;stroke-linecap:round;stroke-linejoin:round"
       id="path4267-6"
       class="ColorScheme-Background"
       rx="1.6791346"
       ry="1.6393534" />
    <path
       inkscape:connector-curvature="0"
       style="stroke-linejoin:round;stroke-linecap:round;stroke-width:1.0;fill-opacity:1;fill:currentColor;"
       id="path4170-8-7"
       d="m 21.017949,9 c -1.180458,1.408722 -1.933001,3.115781 -1.373891,4.778423 0.782127,2.325811 3.480273,2.616296 5.695342,1.906277 C 25.572587,15.60995 25.791206,15.512106 26,15.400755 V 9 Z"
       class="ColorScheme-Text" />
    <ellipse
       cx="21.848293"
       cy="12.424735"
       style="fill:currentColor;stroke-width:1.64091;stroke-linecap:round;stroke-linejoin:round"
       id="path4267-9-5"
       class="ColorScheme-Background"
       rx="1.937463"
       ry="1.891562" />
    <path
       d="M 27.999999,23.755093 V 6.2449065 c 0,-1.234694 -0.9,-2.244921 -1.999997,-2.244921 h -20 C 4.899999,3.9999855 4,5.0102125 4,6.2449065 V 23.755093 c 0,1.234696 0.899999,2.244892 2.000002,2.244892 h 5 l 5,3 5,-3 h 5 C 27.1,25.999985 28,24.989789 27.999999,23.755093 Z M 6.000002,24.999985 c -0.549994,0 -0.999994,-0.627569 -0.999994,-1.244892 V 6.2449065 c 0,-0.617373 0.45,-1.244921 0.999994,-1.244921 h 19.999999 c 0.549998,0 0.999998,0.627548 0.999998,1.244921 V 23.755093 c 0,0.617323 -0.45,1.244892 -0.999998,1.244892 z"
       id="path2-3-3-3"
       style="stroke-width:1;fill-opacity:1;fill:currentColor;"
       sodipodi:nodetypes="ssssssscccsssssssssss"
       class="ColorScheme-Text" />
  </g>
  <g
     id="22-22-choqok"
     transform="translate(32,10)">
    <rect
       style="opacity:0.00100002"
       width="22"
       height="22"
       x="0"
       y="0"
       id="rect2" />
    <path
       d="M 19,15.571432 V 4.428586 C 19,3.642872 18.4,3 17.666668,3 H 4.333335 C 3.6,3 3,3.642872 3,4.428586 V 15.571432 C 3,16.357149 3.6,17 4.333335,17 H 8 l 3,3 3,-3 h 3.666668 C 18.4,17 19,16.357149 19,15.571432 Z M 5,16 C 4,16 4,16 4,15 V 5 C 4,4 4,4 5,4 h 12 c 1,0 1,0 1,1 v 10 c 0,1 0,1 -1,1 z"
       id="path2-3-3-3-0"
       style="stroke-width:1.0;fill-opacity:1;fill:currentColor;"
       sodipodi:nodetypes="ssssssscccsscscccsscc"
       class="ColorScheme-Text" />
    <path
       inkscape:connector-curvature="0"
       style="stroke-width:0.249832;fill-rule:evenodd;fill-opacity:1;fill:currentColor;"
       id="path4411-1-6-3"
       d="m 9.177153,12.449401 c 1.890911,1.955507 3.64195,1.883584 4.494446,0.767797 0.852482,-1.115781 0.214611,-2.068872 0.214611,-2.068872 z"
       class="ColorScheme-Text" />
    <path
       inkscape:connector-curvature="0"
       style="fill:currentColor;fill-opacity:1;fill-rule:evenodd;stroke-width:0.249832"
       id="path4411-7-6"
       d="m 9.4170327,12.451134 c 1.4368953,1.606056 3.3301343,1.524978 3.9779363,0.608581 0.6478,-0.916391 0.163086,-1.699178 0.163086,-1.699178 z"
       class="ColorScheme-Background" />
    <path
       inkscape:connector-curvature="0"
       style="stroke-opacity:1;stroke-width:1.0;stroke:#eff0f1;fill-rule:evenodd;fill-opacity:1;fill:currentColor;"
       id="path4284-9-7"
       d="m 9.177153,12.449401 c 0,0 0.3434301,-1.123846 2.142301,-1.630695 1.798876,-0.506825 2.654698,0.32962 2.654698,0.32962 0.239547,0.756737 -2.078254,1.932518 -2.078254,1.932518 0,0 -2.5663678,0.149852 -2.718745,-0.631443 z"
       class="ColorScheme-Text" />
    <path
       inkscape:connector-curvature="0"
       style="stroke-linejoin:round;stroke-linecap:round;stroke-width:1.0;fill-opacity:1;fill:currentColor;"
       id="path4170-3-5"
       d="M 6.2953325,7.3633298 C 5.8087283,7.3633298 5.3610469,7.3809527 5,7.6755868 v 3.9004752 c 0.3610469,0.294661 0.8087283,0.471132 1.2953325,0.471132 1.1923183,0 2.4557331,-0.580125 2.4557331,-1.873545 0,-1.2934135 -1.2634148,-2.8103192 -2.4557331,-2.8103192 z"
       class="ColorScheme-Text" />
    <ellipse
       cx="6.7715001"
       cy="9.7052565"
       style="fill:currentColor;stroke-width:0.943045;stroke-linecap:round;stroke-linejoin:round"
       id="path4267-6-3"
       class="ColorScheme-Background"
       rx="1.1075"
       ry="1.0929027" />
    <path
       inkscape:connector-curvature="0"
       style="stroke-linejoin:round;stroke-linecap:round;stroke-width:1.0;fill-opacity:1;fill:currentColor;"
       id="path4170-8-7-5"
       d="M 14.010768,6 C 13.302502,6.9391489 12.850974,8.0771869 13.186437,9.1856169 13.655716,10.736154 15.274601,10.929811 16.60364,10.456467 16.743552,10.406607 16.874726,10.341401 17,10.267168 V 6 Z"
       class="ColorScheme-Text" />
    <ellipse
       cx="14.8095"
       cy="8.2831545"
       style="fill:currentColor;stroke-width:1.08158;stroke-linecap:round;stroke-linejoin:round"
       id="path4267-9-5-6"
       class="ColorScheme-Background "
       rx="1.2625"
       ry="1.2610412" />
  </g>
</svg>
