<?xml version="1.0" encoding="UTF-8" standalone="no"?>
<svg
   width="32"
   height="32"
   version="1.1"
   id="svg12"
   sodipodi:docname="choqok_offline.svg"
   inkscape:version="1.2.1 (9c6d41e410, 2022-07-14)"
   xmlns:inkscape="http://www.inkscape.org/namespaces/inkscape"
   xmlns:sodipodi="http://sodipodi.sourceforge.net/DTD/sodipodi-0.dtd"
   xmlns="http://www.w3.org/2000/svg"
   xmlns:svg="http://www.w3.org/2000/svg"
   xmlns:rdf="http://www.w3.org/1999/02/22-rdf-syntax-ns#"
   xmlns:cc="http://creativecommons.org/ns#"
   xmlns:dc="http://purl.org/dc/elements/1.1/">
  <metadata
     id="metadata18">
    <rdf:RDF>
      <cc:Work
         rdf:about="">
        <dc:format>image/svg+xml</dc:format>
        <dc:type
           rdf:resource="http://purl.org/dc/dcmitype/StillImage" />
      </cc:Work>
    </rdf:RDF>
  </metadata>
  <defs
     id="defs16" />
  <sodipodi:namedview
     pagecolor="#ffffff"
     bordercolor="#000000"
     borderopacity="1"
     objecttolerance="10"
     gridtolerance="10"
     guidetolerance="10"
     inkscape:pageopacity="0"
     inkscape:pageshadow="2"
     inkscape:window-width="1920"
     inkscape:window-height="1004"
     id="namedview14"
     showgrid="false"
     inkscape:zoom="9.8125"
     inkscape:cx="19.974522"
     inkscape:cy="19.006369"
     inkscape:window-x="0"
     inkscape:window-y="0"
     inkscape:window-maximized="1"
     inkscape:current-layer="svg12"
     inkscape:document-rotation="0"
     inkscape:pagecheckerboard="0"
     inkscape:showpageshadow="true"
     inkscape:lockguides="true"
     inkscape:deskcolor="#cccccc">
    <inkscape:grid
       type="xygrid"
       id="grid941"
       originx="16.911343"
       originy="48.13958" />
  </sodipodi:namedview>
  <g
     id="choqok_offline">
    <rect
       style="opacity:0.00100002"
       width="32"
       height="32"
       x="0"
       y="0"
       id="rect7-3" />
    <path
       inkscape:connector-curvature="0"
       style="fill:#bf616a;fill-opacity:1;fill-rule:evenodd;stroke-width:0.395029"
       id="path4411-1-6"
       d="m 12.96192,18.6741 c 3.151521,2.933261 6.06992,2.825378 7.490744,1.151699 1.420806,-1.67367 0.357688,-3.103309 0.357688,-3.103309 z" />
    <path
       inkscape:connector-curvature="0"
       style="color:#31363b;fill:#1a1a1a;fill-opacity:1;fill-rule:evenodd;stroke-width:1;stroke-dasharray:none"
       id="path4411-7"
       d="m 13.36172,18.6767 c 2.394824,2.409088 5.550228,2.287467 6.629897,0.91287 1.079664,-1.374582 0.271806,-2.54876 0.271806,-2.54876 z"
       class="ColorScheme-Background" />
    <path
       inkscape:connector-curvature="0"
       style="fill:#bf616a;fill-opacity:1;fill-rule:evenodd;stroke:#bf616a;stroke-width:0.395029;stroke-opacity:1"
       id="path4284-9"
       d="m 12.96192,18.6741 c 0,0 0.572384,-1.685771 3.570497,-2.446038 2.998133,-0.76024 4.4245,0.494428 4.4245,0.494428 0.399244,1.135105 -3.463762,2.898779 -3.463762,2.898779 0,0 -4.277273,0.224777 -4.531235,-0.947169 z" />
    <path
       inkscape:connector-curvature="0"
       style="color:#d6dbf1;fill:#bf616a;fill-opacity:1;stroke-width:1;stroke-linecap:round;stroke-linejoin:round;stroke-dasharray:none"
       id="path4170-3"
       d="m 8.1588869,11.044997 c -0.8110071,0 -1.5571431,0.02642 -2.1588869,0.468387 v 5.850712 c 0.6017438,0.441989 1.3478798,0.706698 2.1588869,0.706698 1.9871971,0 4.0928871,-0.870193 4.0928871,-2.810318 0,-1.940121 -2.10569,-4.215479 -4.0928871,-4.215479 z"
       class="ColorScheme-Text" />
    <ellipse
       cx="9.1184015"
       cy="14.557889"
       style="color:#31363b;fill:#333333;stroke-width:1;stroke-linecap:round;stroke-linejoin:round;stroke-dasharray:none"
       id="path4267-6"
       class="ColorScheme-Background"
       rx="1.6791346"
       ry="1.6393534" />
    <path
       inkscape:connector-curvature="0"
       style="color:#d6dbf1;fill:#bf616a;fill-opacity:1;stroke-width:1;stroke-linecap:round;stroke-linejoin:round;stroke-dasharray:none"
       id="path4170-8-7"
       d="m 21.017949,9 c -1.180458,1.408722 -1.933001,3.115781 -1.373891,4.778423 0.782127,2.325811 3.480273,2.616296 5.695342,1.906277 C 25.572587,15.60995 25.791206,15.512106 26,15.400755 V 9 Z"
       class="ColorScheme-Text" />
    <ellipse
       cx="21.848293"
       cy="12.424735"
       style="color:#31363b;fill:#333333;stroke-width:1;stroke-linecap:round;stroke-linejoin:round;stroke-dasharray:none;fill-opacity:1"
       id="path4267-9-5"
       class="ColorScheme-Background"
       rx="1.937463"
       ry="1.891562" />
    <path
       d="M 27.999999,23.755093 V 6.2449065 c 0,-1.234694 -0.9,-2.244921 -1.999997,-2.244921 h -20 C 4.899999,3.9999855 4,5.0102125 4,6.2449065 V 23.755093 c 0,1.234696 0.899999,2.244892 2.000002,2.244892 h 5 l 5,3 5,-3 h 5 C 27.1,25.999985 28,24.989789 27.999999,23.755093 Z M 6.000002,24.999985 c -0.549994,0 -0.999994,-0.627569 -0.999994,-1.244892 V 6.2449065 c 0,-0.617373 0.45,-1.244921 0.999994,-1.244921 h 19.999999 c 0.549998,0 0.999998,0.627548 0.999998,1.244921 V 23.755093 c 0,0.617323 -0.45,1.244892 -0.999998,1.244892 z"
       id="path2-3-3-3"
       style="fill:#bf616a;fill-opacity:1;stroke-width:1;stroke-dasharray:none"
       sodipodi:nodetypes="ssssssscccsssssssssss" />
  </g>
  <g
     id="22-22-choqok_offline">
    <rect
       style="opacity:0.00100002"
       width="22"
       height="22"
       x="32"
       y="10"
       id="rect2-6" />
    <path
       d="M 51,25.571432 V 14.428586 C 51,13.642872 50.4,13 49.666668,13 H 36.333335 C 35.6,13 35,13.642872 35,14.428586 V 25.571432 C 35,26.357149 35.6,27 36.333335,27 H 40 l 3,3 3,-3 h 3.666668 C 50.4,27 51,26.357149 51,25.571432 Z M 37,26 c -1,0 -1,0 -1,-1 V 15 c 0,-1 0,-1 1,-1 h 12 c 1,0 1,0 1,1 v 10 c 0,1 0,1 -1,1 z"
       id="path2-3-3-3-0"
       style="fill:#bf616a;fill-opacity:1;stroke-width:1;stroke-dasharray:none"
       sodipodi:nodetypes="ssssssscccsscscccsscc" />
    <path
       inkscape:connector-curvature="0"
       style="fill:#1a1a1a;fill-opacity:1;fill-rule:evenodd;stroke:#bf616a;stroke-width:0.249832;stroke-opacity:1"
       id="path4411-1-6-3"
       d="m 41.277023,22.449401 c 1.890911,1.955507 3.64195,1.883584 4.494446,0.767797 0.852482,-1.115781 0.202683,-2.068872 0.202683,-2.068872 z"
       sodipodi:nodetypes="cscc" />
    <path
       inkscape:connector-curvature="0"
       style="color:#31363b;fill:#1a1a1a;fill-opacity:1;fill-rule:evenodd;stroke-width:0.249832"
       id="path4411-7-6"
       d="m 41.417033,22.451134 c 1.436895,1.606056 3.330134,1.524978 3.977936,0.608581 0.6478,-0.916391 0.163086,-1.699178 0.163086,-1.699178 z"
       class="ColorScheme-Background" />
    <path
       inkscape:connector-curvature="0"
       style="fill:#bf616a;fill-opacity:1;fill-rule:evenodd;stroke:#bf616a;stroke-width:1;stroke-opacity:1;stroke-dasharray:none"
       id="path4284-9-7"
       d="m 41.177147,22.349329 c 0,0 0.343406,-1.12385 2.142154,-1.630701 1.798752,-0.506827 2.654517,0.329621 2.654517,0.329621 0.23953,0.75674 -2.078113,1.932525 -2.078113,1.932525 0,0 -2.566192,0.149852 -2.718558,-0.631445 z" />
    <path
       inkscape:connector-curvature="0"
       style="color:#d6dbf1;fill:#bf616a;fill-opacity:1;stroke-width:1;stroke-linecap:round;stroke-linejoin:round;stroke-dasharray:none"
       id="path4170-3-5"
       d="m 38.295332,17.36333 c -0.486604,0 -0.934285,0.01762 -1.295332,0.312257 v 3.900475 c 0.361047,0.294661 0.808728,0.471132 1.295332,0.471132 1.192319,0 2.455734,-0.580125 2.455734,-1.873545 0,-1.293413 -1.263415,-2.810319 -2.455734,-2.810319 z"
       class="ColorScheme-Text" />
    <ellipse
       cx="38.971058"
       cy="19.705257"
       style="color:#31363b;fill:#333333;stroke-width:0.943045;stroke-linecap:round;stroke-linejoin:round;fill-opacity:1"
       id="path4267-6-3"
       class="ColorScheme-Background"
       rx="1.1075"
       ry="1.0929027" />
    <path
       inkscape:connector-curvature="0"
       style="color:#d6dbf1;fill:#bf616a;fill-opacity:1;stroke-width:1;stroke-linecap:round;stroke-linejoin:round;stroke-dasharray:none"
       id="path4170-8-7-5"
       d="m 46.010768,16 c -0.708266,0.939149 -1.159794,2.077187 -0.824331,3.185617 0.469279,1.550537 2.088164,1.744194 3.417203,1.27085 C 48.743552,20.406607 48.874726,20.341401 49,20.267168 V 16 Z"
       class="ColorScheme-Text" />
    <ellipse
       cx="46.609501"
       cy="18.283041"
       style="color:#31363b;fill:#333333;stroke-width:1.08158;stroke-linecap:round;stroke-linejoin:round;fill-opacity:1"
       id="path4267-9-5-6"
       class="ColorScheme-Background"
       rx="1.2625"
       ry="1.2610412" />
  </g>
</svg>
