<?xml version="1.0" encoding="UTF-8" standalone="no"?>
<svg
   sodipodi:docname="configure.svg"
   height="32"
   width="32"
   inkscape:version="1.2.1 (9c6d41e410, 2022-07-14)"
   version="1.1"
   id="svg"
   viewBox="0 0 32 32"
   xmlns:inkscape="http://www.inkscape.org/namespaces/inkscape"
   xmlns:sodipodi="http://sodipodi.sourceforge.net/DTD/sodipodi-0.dtd"
   xmlns="http://www.w3.org/2000/svg"
   xmlns:svg="http://www.w3.org/2000/svg"
   xmlns:rdf="http://www.w3.org/1999/02/22-rdf-syntax-ns#"
   xmlns:cc="http://creativecommons.org/ns#"
   xmlns:dc="http://purl.org/dc/elements/1.1/">
  <defs
     id="defs81">
    <style
       type="text/css"
       id="current-color-scheme">
.ColorScheme-Text { 
    color:#eff0f1;
}
.ColorScheme-Background { color:#EFF0F1; }
.ColorScheme-Highlight { color:#3daee9; }
.ColorScheme-ViewText { color:#7B7C7E; }
.ColorScheme-ViewBackground { color:#FCFCFC; }
.ColorScheme-ViewHover { color:#3DAEE6; }
.ColorScheme-ViewFocus { color:#1E92FF; }
.ColorScheme-ButtonText { color:#7B7C7E; }
.ColorScheme-ButtonBackground { color:#EFF0F1; }
.ColorScheme-ButtonHover { color:#3DAEE6; }
.ColorScheme-ButtonFocus { color:#1E92FF; }
</style>
    <linearGradient
       id="linearGradient5606"
       inkscape:swatch="solid">
      <stop
         id="stop5608"
         offset="0"
         style="stop-color:#000000;stop-opacity:1;" />
    </linearGradient>
  </defs>
  <metadata
     id="metadata34">
    <rdf:RDF>
      <cc:Work
         rdf:about="">
        <dc:format>image/svg+xml</dc:format>
        <dc:type
           rdf:resource="http://purl.org/dc/dcmitype/StillImage" />
      </cc:Work>
    </rdf:RDF>
  </metadata>
  <sodipodi:namedview
     inkscape:document-rotation="0"
     inkscape:showpageshadow="true"
     inkscape:snap-bbox="true"
     inkscape:guide-bbox="true"
     showguides="false"
     borderlayer="true"
     inkscape:current-layer="svg"
     inkscape:window-maximized="1"
     inkscape:window-y="0"
     inkscape:window-x="0"
     inkscape:cy="18.686932"
     inkscape:cx="23.228057"
     inkscape:zoom="12.44185"
     showgrid="false"
     id="namedview32"
     inkscape:window-height="1000"
     inkscape:window-width="1920"
     inkscape:pageshadow="2"
     inkscape:pageopacity="0.10196078"
     guidetolerance="10"
     gridtolerance="10"
     objecttolerance="10"
     borderopacity="1"
     bordercolor="#000000"
     pagecolor="#ffffff"
     inkscape:pagecheckerboard="0"
     inkscape:deskcolor="#cccccc">
    <inkscape:grid
       snapvisiblegridlinesonly="true"
       enabled="true"
       visible="true"
       empspacing="4"
       id="grid3046"
       type="xygrid"
       originx="6.9921875e-07"
       originy="6.164673e-06" />
  </sodipodi:namedview>
  <g
     transform="translate(-486.16354,15.513279)"
     style="display:inline"
     inkscape:label="status"
     id="layer9" />
  <g
     transform="translate(-245.16334,-601.48672)"
     style="display:inline"
     inkscape:label="places"
     id="layer1" />
  <g
     transform="translate(-486.16354,15.513279)"
     style="display:inline"
     inkscape:label="mimetypes"
     id="layer14" />
  <g
     transform="translate(-486.16354,15.513279)"
     style="display:inline"
     inkscape:label="emblems"
     id="layer15" />
  <g
     transform="translate(-486.16354,15.513279)"
     style="display:inline"
     inkscape:label="emotes"
     id="g71291" />
  <g
     transform="translate(-245.16334,-451.48672)"
     style="display:inline"
     inkscape:label="apps"
     id="g6058" />
  <g
     transform="translate(-486.16354,15.513279)"
     style="display:inline"
     inkscape:label="actions"
     id="layer12" />
  <g
     id="configure">
    <rect
       y="0"
       x="0"
       height="32"
       width="31.999992"
       id="rect2985"
       style="opacity:0.00100002;fill:#000000;fill-opacity:1;stroke:none;stroke-width:1.45455" />
    <rect
       id="rect4156"
       style="stroke-width:0.99999981;stroke:none;fill-opacity:1;fill:currentColor;stroke-dasharray:none"
       rx="1.5000001"
       y="13.000002"
       height="6.0000005"
       width="6.0000005"
       x="4"
       class="ColorScheme-Text" />
    <rect
       id="rect4158"
       style="stroke-width:1;stroke:none;fill-opacity:1;fill:currentColor;stroke-dasharray:none"
       width="6.0000005"
       height="6.0000005"
       x="21.999998"
       y="13.000002"
       rx="1.5000001"
       class="ColorScheme-Text" />
    <rect
       id="rect4160"
       style="stroke-width:1;stroke:none;fill-opacity:1;fill:currentColor;stroke-dasharray:none"
       rx="1.5000001"
       x="13.000002"
       height="6.0000005"
       width="6.0000005"
       y="4"
       class="ColorScheme-Text" />
    <rect
       id="rect4162"
       style="stroke-width:1;stroke:none;fill-opacity:1;fill:currentColor;stroke-dasharray:none"
       width="6.0000005"
       height="6.0000005"
       x="13.000002"
       y="22.000004"
       rx="1.5000001"
       class="ColorScheme-Text" />
    <rect
       id="rect4164"
       style="stroke-width:1.5;stroke:none;fill-opacity:1;fill:currentColor;"
       transform="rotate(45)"
       width="6.0000005"
       height="6.0000005"
       x="10.627856"
       y="-3.0000021"
       rx="1.5000001"
       class="ColorScheme-Text" />
    <rect
       id="rect4166"
       style="stroke-width:1;stroke:none;fill-opacity:1;fill:currentColor;stroke-dasharray:none"
       transform="rotate(45)"
       rx="1.5000001"
       y="-3.0000021"
       x="28.627857"
       height="6.0000005"
       width="6.0000005"
       class="ColorScheme-Text" />
    <rect
       id="rect4168"
       style="stroke-width:1;stroke:none;fill-opacity:1;fill:currentColor;stroke-dasharray:none"
       transform="rotate(45)"
       width="6.0000005"
       height="6.0000005"
       x="19.62785"
       y="-12.000003"
       rx="1.5000001"
       class="ColorScheme-Text" />
    <rect
       id="rect4170"
       style="stroke-width:1;stroke:none;fill-opacity:1;fill:currentColor;stroke-dasharray:none"
       transform="rotate(45)"
       rx="1.5000001"
       y="5.9999981"
       x="19.62785"
       height="6.0000005"
       width="6.0000005"
       class="ColorScheme-Text" />
    <path
       id="path4172"
       style="stroke-width:1;stroke:none;fill-opacity:1;fill:currentColor;stroke-dasharray:none"
       d="m 15.815243,6.0652421 a 9.7500006,9.7500006 0 0 0 -9.7499997,9.7499999 9.7500006,9.7500006 0 0 0 9.7499997,9.749999 9.7500006,9.7500006 0 0 0 9.750002,-9.75 9.7500006,9.7500006 0 0 0 -9.750002,-9.7499989 m 0,5.2499999 a 4.5000003,4.5000003 0 0 1 4.500002,4.499999 4.5000003,4.5000003 0 0 1 -4.500002,4.5 4.5000003,4.5000003 0 0 1 -4.500001,-4.499999 4.5000003,4.5000003 0 0 1 4.500001,-4.5"
       inkscape:connector-curvature="0"
       class="ColorScheme-Text" />
    <path
       id="path4174"
       style="stroke:none;fill-opacity:1;fill:currentColor;"
       d="m 16.000001,8.4999992 a 7.5000004,7.5000004 0 0 0 -7.4999996,7.4999998 7.5000004,7.5000004 0 0 0 7.4999996,7.5 7.5000004,7.5000004 0 0 0 7.500001,-7.5 7.5000004,7.5000004 0 0 0 -7.500001,-7.4999998 m 0,4.4999998 a 3.0000002,3.0000002 0 0 1 3,3 3.0000002,3.0000002 0 0 1 -3,3 3.0000002,3.0000002 0 0 1 -3,-3 3.0000002,3.0000002 0 0 1 3,-3"
       inkscape:connector-curvature="0"
       class="ColorScheme-Highlight" />
    <path
       d="m 16.030572,12.669443 c -1.926512,0 -3.330572,1.400433 -3.330572,3.330563 0,1.930138 1.40406,3.330568 3.330572,3.330568 1.92651,0 3.330574,-1.40043 3.330574,-3.330568 0,-1.93013 -1.404064,-3.330563 -3.330574,-3.330563 z"
       id="path6"
       style="fill:currentColor;fill-opacity:1;stroke:none;stroke-width:1;stroke-opacity:0.560784;stroke-dasharray:none"
       class="ColorScheme-Text" />
  </g>
  <g
     id="22-22-configure"
     transform="translate(12.997742,9.242858)">
    <rect
       style="opacity:0.00100002;fill:#000000;fill-opacity:1;stroke:none"
       id="rect4159"
       width="16"
       height="16.000004"
       x="22"
       y="5.9999952" />
    <rect
       id="rect4165"
       style="fill:currentColor;fill-opacity:1;stroke:none"
       rx="0.875"
       y="12.25"
       height="3.5"
       width="3.5"
       x="23"
       class="ColorScheme-Text" />
    <rect
       id="rect4167"
       style="fill:currentColor;fill-opacity:1;stroke:none"
       width="3.5"
       height="3.5"
       x="33.5"
       y="12.25"
       rx="0.875"
       class="ColorScheme-Text" />
    <rect
       id="rect4169"
       style="fill:currentColor;fill-opacity:1;stroke:none"
       rx="0.875"
       x="28.25"
       height="3.5"
       width="3.5"
       y="7"
       class="ColorScheme-Text " />
    <rect
       id="rect4171"
       style="fill:currentColor;fill-opacity:1;stroke:none"
       width="3.5"
       height="3.5"
       x="28.25"
       y="17.5"
       rx="0.875"
       class="ColorScheme-Text" />
    <rect
       id="rect4173"
       style="fill:currentColor;fill-opacity:1;stroke:none"
       transform="rotate(45)"
       width="3.5"
       height="3.5"
       x="24.112953"
       y="-13.063709"
       rx="0.875"
       class="ColorScheme-Text" />
    <rect
       id="rect4175"
       style="fill:currentColor;fill-opacity:1;stroke:none"
       transform="rotate(45)"
       rx="0.875"
       y="-13.063709"
       x="34.612953"
       height="3.5"
       width="3.5"
       class="ColorScheme-Text" />
    <rect
       id="rect4177"
       style="fill:currentColor;fill-opacity:1;stroke:none"
       transform="rotate(45)"
       width="3.5"
       height="3.5"
       x="29.362953"
       y="-18.313709"
       rx="0.875"
       class="ColorScheme-Text" />
    <rect
       id="rect4179"
       style="fill:currentColor;fill-opacity:1;stroke:none"
       transform="rotate(45)"
       rx="0.875"
       y="-7.8137093"
       x="29.362953"
       height="3.5"
       width="3.5"
       class="ColorScheme-Text" />
    <path
       id="path4181"
       style="fill:currentColor;fill-opacity:1;stroke:none"
       d="M 30,8.3124998 A 5.6875,5.6875 0 0 0 24.3125,14 5.6875,5.6875 0 0 0 30,19.6875 5.6875,5.6875 0 0 0 35.6875,14 5.6875,5.6875 0 0 0 30,8.3124998 M 30,11.375 A 2.625,2.625 0 0 1 32.625,14 2.625,2.625 0 0 1 30,16.625 2.625,2.625 0 0 1 27.375,14 2.625,2.625 0 0 1 30,11.375"
       inkscape:connector-curvature="0"
       class="ColorScheme-Text" />
    <path
       id="path4242"
       d="m 30,10 a 4,4 0 0 0 -4,4 4,4 0 0 0 4,4 4,4 0 0 0 4,-4 4,4 0 0 0 -4,-4 z m 0,2 a 2,2 0 0 1 2,2 2,2 0 0 1 -2,2 2,2 0 0 1 -2,-2 2,2 0 0 1 2,-2 z"
       style="fill:currentColor;fill-opacity:1;stroke:none"
       class="ColorScheme-Highlight" />
    <path
       d="m 30.022642,11.757142 c -1.284343,0 -2.220384,0.933623 -2.220384,2.220378 0,1.286754 0.936041,2.220376 2.220384,2.220376 1.28434,0 2.220382,-0.933622 2.220382,-2.220376 0,-1.286755 -0.936042,-2.220378 -2.220382,-2.220378 z"
       id="path6-3"
       style="fill:currentColor;fill-opacity:1;stroke:none;stroke-width:1;stroke-opacity:0.560784;stroke-dasharray:none"
       class="ColorScheme-Text" />
  </g>
</svg>
