<?xml version="1.0" encoding="UTF-8" standalone="no"?>
<svg
   width="32"
   height="32"
   version="1.1"
   id="svg12"
   sodipodi:docname="device.svg"
   inkscape:version="1.2.1 (9c6d41e410, 2022-07-14)"
   xmlns:inkscape="http://www.inkscape.org/namespaces/inkscape"
   xmlns:sodipodi="http://sodipodi.sourceforge.net/DTD/sodipodi-0.dtd"
   xmlns="http://www.w3.org/2000/svg"
   xmlns:svg="http://www.w3.org/2000/svg"
   xmlns:rdf="http://www.w3.org/1999/02/22-rdf-syntax-ns#"
   xmlns:cc="http://creativecommons.org/ns#"
   xmlns:dc="http://purl.org/dc/elements/1.1/">
  <style
     id="current-color-scheme"
     type="text/css">.ColorScheme-Text { color:#eff0f1; }
</style>
  <metadata
     id="metadata18">
    <rdf:RDF>
      <cc:Work
         rdf:about="">
        <dc:format>image/svg+xml</dc:format>
        <dc:type
           rdf:resource="http://purl.org/dc/dcmitype/StillImage" />
      </cc:Work>
    </rdf:RDF>
  </metadata>
  <defs
     id="defs16" />
  <sodipodi:namedview
     pagecolor="#ffffff"
     bordercolor="#000000"
     borderopacity="1"
     objecttolerance="10"
     gridtolerance="10"
     guidetolerance="10"
     inkscape:pageopacity="0"
     inkscape:pageshadow="2"
     inkscape:window-width="1920"
     inkscape:window-height="1000"
     id="namedview14"
     showgrid="false"
     inkscape:zoom="13.876971"
     inkscape:cx="28.68061"
     inkscape:cy="18.195613"
     inkscape:window-x="0"
     inkscape:window-y="0"
     inkscape:window-maximized="1"
     inkscape:current-layer="svg12"
     inkscape:document-rotation="0"
     inkscape:lockguides="false"
     inkscape:showpageshadow="true"
     inkscape:pagecheckerboard="0"
     inkscape:deskcolor="#cccccc">
    <inkscape:grid
       type="xygrid"
       id="grid580"
       originx="32"
       originy="9.999999" />
  </sodipodi:namedview>
  <g
     id="device-notifier">
    <rect
       style="opacity:0.00100002"
       width="32"
       height="32"
       x="0"
       y="-4.6325681e-08"
       id="rect7" />
    <path
       style="fill:currentColor;fill-opacity:1;fill-rule:evenodd;stroke-width:1;image-rendering:optimizeQuality;shape-rendering:geometricPrecision;text-rendering:geometricPrecision;stroke-dasharray:none"
       d="m 16.503956,14 -1.506537,0.262282 v 5.185117 l 1.498731,-0.193053 -0.0078,-2.337108 1.768026,2.586708 1.736803,-0.2496 L 17.994874,16.576959 20,14.330533 18.241735,14.006822 16.488342,16.253255 Z m -3.1682,1.324064 c -0.0145,9.38e-4 -0.02811,0.0075 -0.03904,0.0185 l -0.517138,0.522609 c -0.02249,0.0226 -0.02621,0.05785 -0.0087,0.08484 l 0.62447,0.958438 c -0.117806,0.208906 -0.206811,0.437965 -0.264428,0.677634 l -1.078176,0.26423 C 12.022847,17.857615 12,17.884665 12,17.915655 v 0.34028 0.34028 c 0,0.03097 0.02282,0.05801 0.05274,0.06535 l 1.078175,0.264224 c 0.05759,0.239673 0.14662,0.468732 0.264428,0.677637 l -0.624469,0.958432 c -0.01744,0.02698 -0.01369,0.06223 0.0087,0.08483 l 0.517142,0.522608 c 0.02177,0.02201 0.05566,0.02378 0.08193,0.0078 L 14.3573,20.577468 c 0.191997,0.111771 0.492335,0.201698 0.711308,0.261302 L 15.29791,21.9454 C 15.30461,21.97733 15.3297,22 15.36131,22 h 0.385412 0.385415 c 0.03169,0 0.05704,-0.02262 0.0634,-0.0546 l 0.2293,-1.10663 c 0.218976,-0.05963 0.51931,-0.149537 0.711311,-0.261307 l 0.978661,0.599631 c 0.02634,0.01595 0.06012,0.01419 0.08192,-0.0078 l 0.517146,-0.522609 c 0.02248,-0.02261 0.02622,-0.05785 0.0088,-0.08483 l -0.520064,-0.79853 -0.06441,0.0096 -0.364926,-0.534309 c -0.372711,0.780738 -1.160931,1.278277 -2.026592,1.279216 -1.241582,0 -2.248086,-1.005758 -2.248086,-2.246426 9.06e-4,-0.852711 0.484513,-1.631498 1.248933,-2.010478 v -0.490389 c -0.142494,0.04746 -0.282511,0.10104 -0.39029,0.163807 l -0.97862,-0.599612 c -0.01319,-0.008 -0.02843,-0.01192 -0.04296,-0.01065 z"
       class="ColorScheme-Text "
       id="path10-3" />
    <path
       d="M 18.000005,6.4999949 V 7.499997 c 0,0.276114 -0.22389,0.5 -0.499999,0.5 -0.27612,0 -0.5,-0.223886 -0.5,-0.5 V 6.4999949 c 0,-0.2761139 0.22388,-0.4999999 0.5,-0.4999999 0.276109,0 0.499999,0.223886 0.499999,0.4999999 z M 14.500006,5.999995 c -0.27612,0 -0.50001,0.223886 -0.50001,0.4999999 V 7.499997 c 0,0.276114 0.22389,0.5 0.50001,0.5 0.276109,0 0.499999,-0.223886 0.499999,-0.5 V 6.4999949 c 0,-0.1325879 -0.0527,-0.2598229 -0.14643,-0.3535709 -0.0937,-0.09375 -0.220989,-0.146429 -0.353569,-0.146429 z M 22.000005,10.5 v 15.000018 c 0,0.662971 -0.263389,1.298859 -0.732109,1.767888 -0.468971,0.468748 -1.104921,0.732115 -1.767891,0.732115 h -7.000009 c -0.66297,0 -1.298861,-0.263395 -1.767881,-0.732115 -0.46875,-0.468972 -0.732119,-1.104917 -0.732119,-1.767888 V 10.5 c 0,-0.397766 0.15803,-0.779486 0.439289,-1.060687 0.28125,-0.2812 0.66297,-0.439286 1.06068,-0.439286 h 0.500001 V 4.5000219 c 0,-0.2761149 0.22389,-0.5000009 0.5,-0.5000009 h 7.000009 c 0.132591,0 0.25983,0.05268 0.353571,0.146429 0.0937,0.09375 0.14643,0.220983 0.14643,0.3535719 V 9.000027 h 0.499999 c 0.39777,0 0.77949,0.158034 1.060691,0.439286 0.2812,0.281252 0.43929,0.662972 0.43929,1.060687 z m -9.00001,-1.500002 h 6.000011 V 4.999994 H 12.999995 Z M 21.000005,10.5 c 0,-0.132589 -0.0527,-0.259823 -0.14643,-0.353572 C 20.759875,10.052678 20.632595,10 20.500005,10 h -9.00001 c -0.276109,0 -0.499999,0.223886 -0.499999,0.5 v 15.000018 c 0,0.397765 0.15804,0.779487 0.43929,1.060687 0.28125,0.281199 0.66297,0.439286 1.06068,0.439286 h 7.000009 c 0.39777,0 0.77949,-0.158034 1.06069,-0.439286 0.281201,-0.281253 0.43929,-0.662973 0.43929,-1.060687 z"
       id="path1424"
       style="fill:currentColor;fill-opacity:1;stroke-width:1;stroke-dasharray:none"
       class="ColorScheme-Text" />
  </g>
  <g
     id="22-22-device-notifier"
     transform="translate(32,9.999999)">
    <rect
       style="opacity:0.00100002"
       width="22"
       height="22"
       x="0"
       y="4.6325681e-08"
       id="rect2" />
    <path
       style="fill:currentColor;fill-opacity:1;fill-rule:evenodd;stroke-width:1;image-rendering:optimizeQuality;shape-rendering:geometricPrecision;text-rendering:geometricPrecision;stroke-dasharray:none"
       d="m 11.365209,10.000001 -0.941606,0.163921 v 3.240514 l 0.936735,-0.120662 -0.0052,-1.460602 1.105042,1.616595 1.085531,-0.155993 -1.248961,-1.673265 1.253237,-1.403941 -1.098944,-0.202301 -1.095893,1.403933 z m -1.9801691,0.827496 c -0.00911,5.88e-4 -0.01762,0.0049 -0.0244,0.01158 L 9.0374202,11.16569 c -0.01402,0.01413 -0.01637,0.03614 -0.0056,0.05303 l 0.3903039,0.598988 c -0.07365,0.13056 -0.1292533,0.273713 -0.1652634,0.423495 L 8.5829899,12.406335 C 8.5643081,12.411084 8.55,12.427819 8.55,12.447144 v 0.212657 0.212667 c 0,0.01934 0.01432,0.03624 0.03299,0.04078 l 0.673876,0.165134 c 0.03601,0.149789 0.091637,0.292944 0.1652713,0.423497 l -0.3903022,0.598993 c -0.01092,0.01681 -0.0086,0.03883 0.0056,0.05299 l 0.3232232,0.326612 c 0.01356,0.01375 0.03476,0.01484 0.0512,0.0052 l 0.6116647,-0.37473 c 0.119992,0.06984 0.307718,0.126052 0.444579,0.163304 l 0.143313,0.691606 c 0.0041,0.01999 0.01991,0.03415 0.03967,0.03415 h 0.240886 0.24089 c 0.01981,0 0.03565,-0.01415 0.03968,-0.03415 l 0.143319,-0.691606 c 0.136857,-0.03727 0.324576,-0.09345 0.444574,-0.163307 l 0.61168,0.374748 c 0.01643,0.01002 0.03755,0.0088 0.05123,-0.0052 l 0.323226,-0.326605 c 0.01402,-0.01414 0.01635,-0.03614 0.0058,-0.05299 l -0.325045,-0.499053 -0.04026,0.0065 -0.228085,-0.333927 c -0.232947,0.487935 -0.725598,0.798879 -1.266648,0.799465 -0.776011,0 -1.4050911,-0.628561 -1.4050911,-1.403934 5.675e-4,-0.532916 0.3028273,-1.019626 0.7806061,-1.256476 v -0.306485 c -0.08909,0.02967 -0.176594,0.06317 -0.243957,0.10237 L 9.4120374,10.834435 c -0.0083,-0.0053 -0.01772,-0.0069 -0.026876,-0.0069 z"
       class="ColorScheme-Text"
       id="path10-3-3" />
    <path
       d="m 12.333338,4.666665 v 0.666668 c 0,0.184076 -0.149259,0.333334 -0.333332,0.333334 -0.18408,0 -0.333334,-0.149258 -0.333334,-0.333334 V 4.666665 c 0,-0.184076 0.149254,-0.333333 0.333334,-0.333333 0.184073,0 0.333332,0.149257 0.333332,0.333333 z M 10.000007,4.333332 c -0.18408,0 -0.33334,0.149257 -0.33334,0.333333 v 0.666668 c 0,0.184076 0.14926,0.333334 0.33334,0.333334 0.184072,0 0.333332,-0.149258 0.333332,-0.333334 V 4.666665 c 0,-0.08839 -0.03513,-0.173215 -0.09762,-0.235714 -0.06247,-0.0625 -0.147326,-0.09762 -0.235712,-0.09762 z m 4.999998,3.000003 v 10.000012 c 0,0.441981 -0.175593,0.865906 -0.488073,1.178592 -0.312646,0.312499 -0.736614,0.488077 -1.178594,0.488077 H 8.666667 c -0.44198,0 -0.865908,-0.175597 -1.178588,-0.488077 C 7.175579,18.199291 7,17.775328 7,17.333347 V 7.333335 C 7,7.068158 7.105353,6.813678 7.292859,6.626211 7.480359,6.438744 7.734839,6.333353 7.999979,6.333353 L 8,6.000001 7.9996765,3.333 C 7.9996542,3.148923 8.181926,3.0000165 8.366,3.000016 L 11,3.000001 h 2.6 c 0.2,0 0.4,0.1 0.4,0.332999 V 6.000001 6.333 c 0.4,0 0.519647,0.105498 0.707113,0.293 0.187467,0.187501 0.29286,0.442193 0.29286,0.707336 z M 9,6.000001 h 4 v -2 H 9 Z m 5,1 v 0 h 5e-6 H 7.999999 8 v 11 0 0 h 5 1 v 0 z"
       id="path1424-3"
       style="fill:currentColor;fill-opacity:1;stroke-width:1;stroke-dasharray:none"
       sodipodi:nodetypes="ssssssssssssscsscscsscsscscssscsccsccccccccccccccccccc"
       class="ColorScheme-Text" />
  </g>
</svg>
