<?xml version="1.0" encoding="UTF-8" standalone="no"?>
<svg
   width="32"
   height="32"
   version="1.1"
   id="svg32"
   sodipodi:docname="document.svg"
   inkscape:version="1.2.1 (9c6d41e410, 2022-07-14)"
   xmlns:inkscape="http://www.inkscape.org/namespaces/inkscape"
   xmlns:sodipodi="http://sodipodi.sourceforge.net/DTD/sodipodi-0.dtd"
   xmlns="http://www.w3.org/2000/svg"
   xmlns:svg="http://www.w3.org/2000/svg"
   xmlns:rdf="http://www.w3.org/1999/02/22-rdf-syntax-ns#"
   xmlns:cc="http://creativecommons.org/ns#"
   xmlns:dc="http://purl.org/dc/elements/1.1/">
  <style
     type="text/css"
     id="current-color-scheme">.ColorScheme-Text { color:#eff0f1; }
</style>
  <metadata
     id="metadata38">
    <rdf:RDF>
      <cc:Work
         rdf:about="">
        <dc:format>image/svg+xml</dc:format>
        <dc:type
           rdf:resource="http://purl.org/dc/dcmitype/StillImage" />
      </cc:Work>
    </rdf:RDF>
  </metadata>
  <defs
     id="defs36" />
  <sodipodi:namedview
     pagecolor="#ffffff"
     bordercolor="#000000"
     borderopacity="1"
     objecttolerance="10"
     gridtolerance="10"
     guidetolerance="10"
     inkscape:pageopacity="0"
     inkscape:pageshadow="2"
     inkscape:window-width="1920"
     inkscape:window-height="1000"
     id="namedview34"
     showgrid="false"
     inkscape:zoom="6.9384854"
     inkscape:cx="36.030918"
     inkscape:cy="19.60082"
     inkscape:window-x="0"
     inkscape:window-y="0"
     inkscape:window-maximized="1"
     inkscape:current-layer="svg32"
     inkscape:document-rotation="0"
     inkscape:lockguides="true"
     inkscape:pagecheckerboard="0"
     inkscape:showpageshadow="2"
     inkscape:deskcolor="#cccccc"
     showguides="false">
    <inkscape:grid
       type="xygrid"
       id="grid937" />
  </sodipodi:namedview>
  <g
     id="document-open-recent"
     style="fill:#eff0f1;fill-opacity:1">
    <rect
       style="opacity:0.00100002;fill:#eff0f1;fill-opacity:1"
       width="32"
       height="32"
       x="0"
       y="0"
       id="rect17" />
    <path
       class="fil0  ColorScheme-Text"
       d="M 7.124655,4 H 22.853 C 24,4 24.014369,4.812048 24,5.624654 V 18.215317 L 22.998286,17.931003 23,17.809154 V 5 H 6.9999995 V 27 H 17 c 0.44281,0.595627 0.568535,0.647345 1.437999,1 L 7.124655,27.96365 C 5.9061699,27.959735 5.9999995,27.151321 5.9999995,26.338994 V 5.624654 C 5.9999995,4.811921 5.9999995,4 7.124655,4 Z M 25.78887,23.710509 v 0 l 6.09e-4,6.5e-4 v 0 l -6.09e-4,-6.5e-4 6.09e-4,6.5e-4 0.0012,-0.0022 v 0 l -0.0012,0.0022 v 0 l -6.09e-4,-6.5e-4 6.09e-4,6.5e-4 0.0012,-0.0022 v 0 l -0.0012,0.0022 z M 9.347994,9 C 9.123791,9 8.94183,8.724202 8.94183,8.5 8.94183,8.275797 9.123791,8 9.347994,8 h 10.600867 c 0.224203,0 0.406164,0.275797 0.406164,0.5 0,0.224202 -0.181961,0.5 -0.406164,0.5 z m 0,15 C 9.123791,24 8.94183,23.724202 8.94183,23.5 c 0,-0.224202 0.181961,-0.5 0.406164,-0.5 h 6.538826 c 0.224608,0 0.40657,0.275794 0.40657,0.5 0,0.224202 -0.181962,0.5 -0.40657,0.5 z m 0,-3 C 9.123791,21 8.94183,20.724203 8.94183,20.5 c 0,-0.224202 0.181961,-0.5 0.406164,-0.5 h 7.351559 c 0.224202,0 0.406164,0.275802 0.406164,0.5 0,0.224203 -0.181961,0.5 -0.406164,0.5 z m 0,-3 C 9.123791,18 8.94183,17.724202 8.94183,17.5 c 0,-0.224202 0.181961,-0.5 0.406164,-0.5 h 10.600867 c 0.224203,0 0.406164,0.275798 0.406164,0.5 0,0.224202 -0.181961,0.5 -0.406164,0.5 z m 0,-3 C 9.1237913,14.99964 8.94183,14.724202 8.94183,14.5 c 0,-0.224203 0.181961,-0.5004 0.406164,-0.500392 L 19.948861,14 c 0.224203,8e-6 0.406164,0.275797 0.406164,0.5 0,0.224202 -0.181961,0.51736 -0.406164,0.517 z m 0,-3 C 9.123791,12 8.94183,11.724202 8.94183,11.5 c 0,-0.224202 0.181961,-0.5 0.406164,-0.5 h 10.600867 c 0.224203,0 0.406164,0.275798 0.406164,0.5 0,0.224202 -0.181961,0.5 -0.406164,0.5 z"
       id="path6"
       sodipodi:nodetypes="sssccccccccsssssccccccscccscccssssscsssssssssssssssssssssssssssssssssssss"
       style="text-rendering:geometricPrecision;shape-rendering:geometricPrecision;image-rendering:optimizeQuality;stroke-dasharray:none;stroke-width:1;fill-opacity:1;fill:currentColor;" />
    <path
       d="m 21.644343,27.936842 a 4.8654329,4.8654329 0 1 0 -4.865433,-4.865433 4.8722565,4.8722565 0 0 0 4.865433,4.865433 z m 0,-8.756415 a 3.8909816,3.8909816 0 1 1 -3.890981,3.890982 3.8955296,3.8955296 0 0 1 3.890981,-3.890982 z"
       id="path12"
       style="text-rendering:geometricPrecision;shape-rendering:geometricPrecision;image-rendering:optimizeQuality;stroke-width:0.324817;fill-opacity:1;fill:currentColor;"
       class="ColorScheme-Text" />
    <path
       d="m 21.928658,23.816058 h 1.759212 a 0.515697,0.515697 0 0 0 0,-1.031394 h -1.243515 v -2.082039 a 0.515697,0.515697 0 1 0 -1.031393,0 v 2.597736 a 0.5156969,0.5156969 0 0 0 0.515696,0.515697 z"
       id="path14-3"
       style="text-rendering:geometricPrecision;shape-rendering:geometricPrecision;image-rendering:optimizeQuality;stroke-width:0.343798;fill-opacity:1;fill:currentColor;"
       class="ColorScheme-Text" />
  </g>
  <g
     id="22-22-document-open-recent"
     style="fill:#eff0f1;fill-opacity:1">
    <rect
       style="opacity:0.00100002;fill:#eff0f1;fill-opacity:1"
       width="22"
       height="22"
       x="-5e-07"
       y="-22"
       id="rect7" />
    <path
       class="fil0  ColorScheme-Text"
       d="m 5,-19 h 10 c 0.798665,0 1.001313,0.458181 1,1 v 8.277 L 15.469293,-9.913 15,-10 v -8 H 5 v 14 h 6.69378 c 0.290242,0.397073 0.806208,0.764888 1.376095,1 H 5 C 4.201336,-3 3.9999995,-3.565789 3.9999995,-4.107332 L 4,-18 c 0,-0.541821 0.2013344,-1 1,-1 z m 12.298387,13.140348 v 0 l 4.03e-4,4.21e-4 v 0 l -4.03e-4,-4.21e-4 4.03e-4,4.21e-4 0.0012,-0.0021 v 0 l -0.0012,0.0021 v 0 l -4.03e-4,-4.21e-4 4.03e-4,4.21e-4 0.0012,-0.0021 v 0 l -0.0012,0.0021 z m -10.7762084,-9.82822 c -0.1469487,0 -0.2662261,-0.121307 -0.2662261,-0.270776 0,-0.149468 0.1192786,-0.24073 0.2662261,-0.241352 l 6.9483554,-0.02942 c 0.146959,-6.22e-4 0.266226,0.121307 0.266226,0.270775 0,0.149469 -0.119266,0.270776 -0.266226,0.270776 z m 0,9.747929 c -0.1469487,0 -0.2662261,-0.121309 -0.2662261,-0.270781 0,-0.149471 0.1192774,-0.270778 0.2662261,-0.270778 H 10.80808 c 0.14721,0 0.266481,0.121307 0.266481,0.270778 0,0.149472 -0.119273,0.270781 -0.266481,0.270781 z m 0,-1.949584 c -0.1469487,0 -0.2662261,-0.121313 -0.2662261,-0.270778 0,-0.149474 0.1192774,-0.270778 0.2662261,-0.270778 h 4.8185924 c 0.146957,0 0.26623,0.121304 0.26623,0.270778 0,0.149465 -0.119273,0.270778 -0.26623,0.270778 z m 0,-1.949592 c -0.1469487,0 -0.2662261,-0.121304 -0.2662261,-0.270773 0,-0.149469 0.1192774,-0.270776 0.2662261,-0.270776 h 6.9483554 c 0.14696,0 0.266226,0.121307 0.266226,0.270776 0,0.149469 -0.119266,0.270773 -0.266226,0.270773 z m 0,-1.949582 c -0.1469487,0 -0.2662261,-0.121307 -0.2662261,-0.270777 0,-0.149469 0.1192774,-0.270775 0.2662261,-0.270775 h 6.9483554 c 0.14696,0 0.266226,0.121306 0.266226,0.270775 0,0.14947 -0.119266,0.270777 -0.266226,0.270777 z m 0,-1.949585 c -0.1469487,0 -0.2662261,-0.121308 -0.2662261,-0.270778 0,-0.149467 0.1192774,-0.270773 0.2662261,-0.270773 h 6.9483554 c 0.14696,0 0.266226,0.121306 0.266226,0.270773 0,0.14947 -0.119266,0.270778 -0.266226,0.270778 z"
       id="path6-6"
       sodipodi:nodetypes="sssccccccccsssssccccccscccscccssssscsssssssssssssssssssssssssssssssssssss"
       style="text-rendering:geometricPrecision;shape-rendering:geometricPrecision;image-rendering:optimizeQuality;stroke-width:0.268494;fill-opacity:1;fill:currentColor;" />
    <path
       d="m 14.762903,-3.2417548 a 3.2436226,3.2436226 0 1 0 -3.243623,-3.243613 3.2481707,3.2481707 0 0 0 3.243623,3.243613 z m 0,-5.837611 a 2.5939881,2.5939881 0 1 1 -2.593998,2.593998 2.5970198,2.5970198 0 0 1 2.593998,-2.593998 z"
       id="path12-7"
       style="text-rendering:geometricPrecision;shape-rendering:geometricPrecision;image-rendering:optimizeQuality;stroke-width:0.216554;fill-opacity:1;fill:currentColor;"
       class="ColorScheme-Text" />
    <path
       d="m 14.652799,-5.9896524 h 1.172799 a 0.34379799,0.34379799 0 0 0 0,-0.687581 h -0.829 v -1.388036 a 0.34379976,0.34379976 0 1 0 -0.687597,0 v 1.731829 a 0.34379792,0.34379792 0 0 0 0.343798,0.343788 z"
       id="path14-3-5"
       style="text-rendering:geometricPrecision;shape-rendering:geometricPrecision;image-rendering:optimizeQuality;stroke-width:0.2292;fill-opacity:1;fill:currentColor;"
       class="ColorScheme-Text" />
  </g>
  <g
     id="document-encrypt"
     style="fill:#eff0f1;fill-opacity:1">
    <rect
       style="opacity:0.00100002;fill:#eff0f1;fill-opacity:1"
       width="32"
       height="32"
       x="32"
       y="0"
       id="rect22" />
    <path
       d="M 55.902651,12.8872 H 55.69156 C 55.665525,7.651467 52.510949,4 48,4 43.48956,4 40.334726,7.651467 40.308697,12.8872 H 40.097099 C 38.943644,12.8872 38,13.8728 38,15.078667 v 10.7304 C 38,27.014667 38.943644,28 40.097099,28 H 55.902651 C 57.056357,28 58,27.014667 58,25.809067 v -10.7304 C 58,13.8728 57.0561,12.8872 55.902651,12.8872 Z m -7.028949,7.602667 -0.0064,1.973066 c -0.0011,0.602667 -0.403799,1.095734 -0.895146,1.095734 -0.491092,0 -0.892337,-0.4936 -0.891572,-1.095734 l 0.004,-1.997333 c -0.57507,-0.336 -0.963806,-0.977333 -0.963806,-1.715733 0,-1.084 0.841542,-1.962934 1.879369,-1.962934 1.03783,0 1.878863,0.878934 1.878863,1.962934 -2.57e-4,0.755733 -0.407372,1.4112 -1.005411,1.74 z M 43.264435,13 C 43.283554,9.396267 45.21502,6.770133 48,6.770133 c 2.784724,0 4.8175,2.626134 4.83613,6.229867 z"
       id="path2"
       style="stroke-width:0.260894;fill-opacity:1;fill:currentColor;"
       sodipodi:nodetypes="scscssssssssccsccsscccscc"
       class="ColorScheme-Text" />
  </g>
  <g
     id="document-decrypt"
     style="fill:#eff0f1;fill-opacity:1">
    <rect
       style="opacity:0.00100002;fill:#eff0f1;fill-opacity:1"
       width="32"
       height="32"
       x="64"
       y="0"
       id="rect27" />
    <path
       d="M 87.997477,13 H 75.999159 c -0.0072,-0.119713 -0.0051,-0.887139 -0.0051,-1.009 0,-2.702676 1.78176,-5.202008 3.972262,-5.202008 1.367923,0 2.765635,0.965759 3.495087,2.379773 0,5.36e-4 0.148558,0.454807 0.148558,0.454807 0,0 0.487439,-0.0048 1.104439,0 0.800035,0.0056 1.77614,0 1.77614,0 0,0 -0.186802,-0.836075 -0.315267,-1.079411 C 85.091102,5.904385 82.553645,3.978353 79.966306,4.000184 75.678065,4.036364 73.140011,7.83018 73.103243,12.090473 L 72.99958,13 H 71.99972 C 70,13 70,14 70,15 v 11 c 0,1 0,2 1.99972,2 h 15.997757 c 2.162857,0 1.99972,-1 1.99972,-2 V 15 c 0,-1 0,-2 -1.99972,-2 z m -7.055011,7.488 v 2.164892 c 0,0.562331 -0.357018,1.019108 -0.919807,1.019108 -0.563057,0 -0.918935,-0.456777 -0.918935,-1.019108 V 20.488 C 78.54581,20 78.071869,19.559109 78.071869,18.683 c 0,-1.243301 0.706599,-1.951 1.949726,-1.951 1.243127,0 1.951727,0.707699 1.951727,1.951 0,0.875571 -0.363811,1.317 -1.030856,1.805 z"
       id="path2-3"
       style="stroke-width:0.268396;fill-opacity:1;fill:currentColor;"
       sodipodi:nodetypes="scsscccccscccscssssscssscsssc"
       class="ColorScheme-Text" />
  </g>
  <g
     id="22-22-document-encrypt"
     style="fill:#eff0f1;fill-opacity:1">
    <rect
       style="opacity:0.00100002;fill:#eff0f1;fill-opacity:1"
       width="22"
       height="22"
       x="32"
       y="-22"
       id="rect2" />
    <path
       d="M 48.531855,-13.0752 H 48.384093 C 48.365864,-16.565685 46.157656,-19 43.000003,-19 c -3.157317,0 -5.365689,2.434315 -5.383918,5.9248 H 37.467961 C 36.660544,-13.0752 36,-12.418138 36,-11.614217 v 7.1536 C 36,-3.65688 36.660544,-3 37.467961,-3 H 48.531855 C 49.339454,-3 50,-3.65688 50,-4.460617 v -7.1536 c 0,-0.803921 -0.660728,-1.460983 -1.468145,-1.460983 z m -4.920256,5.068439 -0.0042,1.315378 c -0.0011,0.401783 -0.282658,0.730503 -0.626599,0.730503 -0.343763,0 -0.624635,-0.329081 -0.624102,-0.730503 l 0.0029,-1.331555 c -0.402538,-0.224 -0.674659,-0.651542 -0.674659,-1.143823 0,-0.722656 0.589084,-1.308622 1.315561,-1.308622 0.726478,0 1.315201,0.585966 1.315201,1.308622 -1.78e-4,0.503823 -0.285165,0.9408 -0.703785,1.16 z m -3.93758,-5.068439 c 0.01345,-2.40248 1.376486,-4.078044 3.325984,-4.078044 1.949307,0 3.312572,1.675564 3.325615,4.078044 z"
       id="path2-5"
       style="stroke-width:0.178229;fill-opacity:1;fill:currentColor;"
       class="ColorScheme-Text" />
  </g>
  <g
     id="22-22-document-decrypt"
     style="fill:#eff0f1;fill-opacity:1">
    <rect
       style="opacity:0.00100002;fill:#eff0f1;fill-opacity:1"
       width="22"
       height="22"
       x="64"
       y="-22"
       id="rect12" />
    <path
       d="m 80.303034,-13.165334 h -8.022919 c -0.0051,-0.07981 -0.01003,-0.426094 -0.01003,-0.507334 0,-1.801783 1.208817,-3.468004 2.694945,-3.468004 0.928053,0 1.876326,0.643839 2.371204,1.586516 0,3.56e-4 0.100786,0.303204 0.100786,0.303204 0,0 0.330704,-0.0032 0.749296,0 0.542778,0.0038 1.205011,0 1.205011,0 0,0 -0.126744,-0.557383 -0.213893,-0.719607 -0.735609,-1.759851 -2.457114,-3.043872 -4.212471,-3.029318 -2.909324,0.02412 -4.631229,2.55333 -4.656187,5.393526 V -13.14 l -0.604302,0.01263 C 68.69384,-13.106152 68,-12.619019 68,-11.698 v 7.03024 C 67.999995,-3.746736 68.759814,-3 69.696971,-3 H 80.303034 C 81.240014,-3 82,-3.746736 82,-4.66776 v -7.296607 c 0,-0.920841 -0.759816,-1.200967 -1.696966,-1.200967 z m -4.675723,5.157335 v 1.443261 c 0,0.374891 -0.242208,0.679738 -0.624041,0.679738 -0.382,0 -0.589858,-0.304847 -0.589858,-0.679738 v -1.443261 c -0.378515,-0.325336 -0.73363,-0.619263 -0.73363,-1.203331 0,-0.828871 0.479391,-1.30067 1.322771,-1.30067 0.843382,0 1.324127,0.471799 1.324127,1.30067 0,0.583711 -0.246821,0.877995 -0.699369,1.203331 z"
       id="path2-3-6"
       style="stroke-width:0.18051;fill-opacity:1;fill:currentColor;"
       sodipodi:nodetypes="scsscccccsccsscssssscssscsssc"
       class="ColorScheme-Text" />
  </g>
</svg>
