<?xml version="1.0" encoding="UTF-8" standalone="no"?>
<svg
   width="32"
   height="32"
   version="1.1"
   id="svg2222"
   sodipodi:docname="emblem.svg"
   inkscape:version="1.2.1 (9c6d41e410, 2022-07-14)"
   xmlns:inkscape="http://www.inkscape.org/namespaces/inkscape"
   xmlns:sodipodi="http://sodipodi.sourceforge.net/DTD/sodipodi-0.dtd"
   xmlns="http://www.w3.org/2000/svg"
   xmlns:svg="http://www.w3.org/2000/svg">
  <style
     id="current-color-scheme"
     type="text/css">
.ColorScheme-Text { 
    color:#eff0f1;
}
</style>
  <defs
     id="defs2226" />
  <sodipodi:namedview
     id="namedview2224"
     pagecolor="#ffffff"
     bordercolor="#000000"
     borderopacity="1"
     inkscape:showpageshadow="2"
     inkscape:pageopacity="0"
     inkscape:pagecheckerboard="0"
     inkscape:deskcolor="#cccccc"
     showgrid="false"
     inkscape:zoom="10.429825"
     inkscape:cx="26.270815"
     inkscape:cy="18.744322"
     inkscape:window-width="1920"
     inkscape:window-height="1000"
     inkscape:window-x="0"
     inkscape:window-y="0"
     inkscape:window-maximized="1"
     inkscape:current-layer="svg2222">
    <inkscape:grid
       type="xygrid"
       id="grid2709"
       originx="0"
       originy="0" />
  </sodipodi:namedview>
  <g
     id="22-22-emblem-shared-symbolic"
     style="fill:#d6dbf1;fill-opacity:1"
     transform="translate(32.000001,10.000001)">
    <rect
       style="opacity:0.00100002;fill:#d6dbf1;fill-opacity:1"
       width="22"
       height="22"
       x="0"
       y="0"
       id="rect2212" />
    <path
       style="opacity:1;fill:currentColor;fill-opacity:1"
       d="m 15,3 a 3,3 0 0 0 -3,3 3,3 0 0 0 0.228516,1.1425781 L 9.2402344,9.0097656 A 3,3 0 0 0 7,8 3,3 0 0 0 4,11 3,3 0 0 0 7,14 3,3 0 0 0 9.2421875,12.990234 l 2.9843745,1.867188 A 3,3 0 0 0 12,16 a 3,3 0 0 0 3,3 3,3 0 0 0 3,-3 3,3 0 0 0 -3,-3 3,3 0 0 0 -2.242188,1.009766 L 9.7734375,12.142578 A 3,3 0 0 0 10,11 3,3 0 0 0 9.7714844,9.8574219 L 12.759766,7.9902344 A 3,3 0 0 0 15,9 3,3 0 0 0 18,6 3,3 0 0 0 15,3 Z"
       id="path2214"
       class="ColorScheme-Text" />
  </g>
  <g
     id="emblem-shared-symbolic"
     style="fill:#d6dbf1;fill-opacity:1">
    <rect
       style="opacity:0.00100002;fill:#d6dbf1;fill-opacity:1"
       width="32"
       height="32"
       x="0"
       y="0"
       id="rect2217" />
    <path
       style="stroke-width:1.0;fill-opacity:1;fill:currentColor;opacity:1;"
       d="m 22.285713,4 a 4.7142854,4.695652 0 0 0 -4.714284,4.695652 4.7142854,4.695652 0 0 0 0.409227,1.897417 l -4.487167,2.606657 A 4.7142854,4.695652 0 0 0 9.7142834,11.30435 4.7142854,4.695652 0 0 0 5,16 4.7142854,4.695652 0 0 0 9.7142834,20.69565 4.7142854,4.695652 0 0 0 13.493489,18.798235 l 4.485122,2.606657 A 4.7142854,4.695652 0 0 0 17.571429,23.30435 4.7142854,4.695652 0 0 0 22.285713,28 4.7142854,4.695652 0 0 0 27,23.30435 4.7142854,4.695652 0 0 0 22.285713,18.608696 4.7142854,4.695652 0 0 0 18.506509,20.506113 L 14.021391,17.899456 A 4.7142854,4.695652 0 0 0 14.428571,16 4.7142854,4.695652 0 0 0 14.019344,14.102581 l 4.487165,-2.606657 a 4.7142854,4.695652 0 0 0 3.779204,1.89538 A 4.7142854,4.695652 0 0 0 27,8.695652 4.7142854,4.695652 0 0 0 22.285713,4 Z"
       id="path2219"
       class="ColorScheme-Text" />
  </g>
</svg>
