<?xml version="1.0" encoding="UTF-8" standalone="no"?>
<svg
   width="32"
   height="32"
   id="svg3869"
   version="1.1"
   inkscape:version="1.2.1 (9c6d41e410, 2022-07-14)"
   sodipodi:docname="kdeconnect.svg"
   viewBox="0 0 32 32"
   xmlns:inkscape="http://www.inkscape.org/namespaces/inkscape"
   xmlns:sodipodi="http://sodipodi.sourceforge.net/DTD/sodipodi-0.dtd"
   xmlns="http://www.w3.org/2000/svg"
   xmlns:svg="http://www.w3.org/2000/svg"
   xmlns:rdf="http://www.w3.org/1999/02/22-rdf-syntax-ns#"
   xmlns:cc="http://creativecommons.org/ns#"
   xmlns:dc="http://purl.org/dc/elements/1.1/">
  <defs
     id="defs3871">
    <style
       type="text/css"
       id="current-color-scheme">.ColorScheme-Highlight { color:#47beff; }
.ColorScheme-Text { color:#eff0f1; }
</style>
  </defs>
  <sodipodi:namedview
     id="base"
     pagecolor="#ffffff"
     bordercolor="#000000"
     borderopacity="1"
     inkscape:pageopacity="0"
     inkscape:pageshadow="2"
     inkscape:zoom="8.0000004"
     inkscape:cx="0.99999995"
     inkscape:cy="23.312499"
     inkscape:document-units="px"
     inkscape:current-layer="layer1"
     showgrid="false"
     fit-margin-top="0"
     fit-margin-left="0"
     fit-margin-right="0"
     fit-margin-bottom="0"
     inkscape:window-width="1920"
     inkscape:window-height="1000"
     inkscape:window-x="0"
     inkscape:window-y="0"
     inkscape:window-maximized="1"
     inkscape:showpageshadow="true"
     inkscape:snap-bbox="true"
     inkscape:bbox-nodes="true"
     inkscape:document-rotation="0"
     showguides="false"
     inkscape:lockguides="false"
     inkscape:pagecheckerboard="0"
     inkscape:deskcolor="#cccccc">
    <sodipodi:guide
       position="7,25.000009"
       orientation="18,0"
       id="guide4138"
       inkscape:locked="false" />
    <sodipodi:guide
       position="7,7.0000078"
       orientation="0,18"
       id="guide4140"
       inkscape:locked="false" />
    <sodipodi:guide
       position="25,7.0000078"
       orientation="-18,0"
       id="guide4142"
       inkscape:locked="false" />
    <sodipodi:guide
       position="25,25.000009"
       orientation="0,-18"
       id="guide4144"
       inkscape:locked="false" />
    <sodipodi:guide
       position="8,24.000009"
       orientation="16,0"
       id="guide4146"
       inkscape:locked="false" />
    <sodipodi:guide
       position="8,8.0000078"
       orientation="0,16"
       id="guide4148"
       inkscape:locked="false" />
    <sodipodi:guide
       position="24,8.0000078"
       orientation="-16,0"
       id="guide4150"
       inkscape:locked="false" />
    <sodipodi:guide
       position="24,24.000009"
       orientation="0,-16"
       id="guide4152"
       inkscape:locked="false" />
    <sodipodi:guide
       position="2,30.000006"
       orientation="28,0"
       id="guide4265"
       inkscape:locked="false" />
    <sodipodi:guide
       position="2,2.0000052"
       orientation="0,28"
       id="guide4267"
       inkscape:locked="false" />
    <sodipodi:guide
       position="30,2.0000052"
       orientation="-28,0"
       id="guide4269"
       inkscape:locked="false" />
    <sodipodi:guide
       position="30,30.000006"
       orientation="0,-28"
       id="guide4271"
       inkscape:locked="false" />
    <inkscape:grid
       type="xygrid"
       id="grid680"
       originx="0"
       originy="-7.8171875e-06" />
  </sodipodi:namedview>
  <metadata
     id="metadata3874">
    <rdf:RDF>
      <cc:Work
         rdf:about="">
        <dc:format>image/svg+xml</dc:format>
        <dc:type
           rdf:resource="http://purl.org/dc/dcmitype/StillImage" />
      </cc:Work>
    </rdf:RDF>
  </metadata>
  <g
     inkscape:label="Capa 1"
     inkscape:groupmode="layer"
     id="layer1"
     transform="translate(-321,-529.36218)">
    <g
       id="16-16-kdeconnect">
      <rect
         y="537.36218"
         x="303"
         height="16"
         width="16"
         id="rect4442"
         style="fill:none;fill-opacity:1;stroke:none;stroke-width:0.10079;stroke-linecap:square;stroke-linejoin:miter;stroke-miterlimit:4;stroke-dasharray:none;stroke-dashoffset:0;stroke-opacity:1" />
      <path
         style="clip-rule:nonzero;display:inline;overflow:visible;visibility:visible;isolation:auto;mix-blend-mode:normal;color-interpolation:sRGB;color-interpolation-filters:linearRGB;solid-color:#000000;solid-opacity:1;fill:currentColor;fill-opacity:1;fill-rule:nonzero;stroke:none;stroke-width:0.9197;stroke-linecap:butt;stroke-linejoin:miter;stroke-miterlimit:4;stroke-dasharray:none;stroke-dashoffset:0;stroke-opacity:1;color-rendering:auto;image-rendering:auto;shape-rendering:auto;text-rendering:auto;enable-background:accumulate"
         d="m 308.68969,542.16018 c -0.21234,0.003 -0.42436,0.0183 -0.63464,0.0481 l -0.24709,1.17994 c -0.0812,0.0212 -0.16168,0.0449 -0.24129,0.0714 v 1.61403 c 0.34112,-0.1975 0.72848,-0.302 1.12302,-0.303 1.24046,0 2.24608,1.00175 2.24608,2.23747 -6.6e-4,0.75053 -0.379,1.45072 -1.0075,1.86457 h 1.99601 c 0.17956,-0.3076 0.31397,-0.63919 0.39922,-0.98472 l 1.18592,-0.24762 c 0.0295,-0.2095 0.045,-0.42068 0.0467,-0.63222 -0.003,-0.21156 -0.0182,-0.42272 -0.0483,-0.63219 l -1.18444,-0.24619 c -0.0909,-0.37399 -0.2394,-0.73173 -0.44015,-1.06048 l 0.66387,-1.01095 c -0.25943,-0.33498 -0.56179,-0.63467 -0.89933,-0.89149 l -1.0119,0.66134 c -0.33,-0.19999 -0.68909,-0.3479 -1.06452,-0.43846 l -0.24712,-1.18282 c -0.21031,-0.0294 -0.42233,-0.0449 -0.63467,-0.0466 z"
         id="path6302-1-3-7"
         inkscape:connector-curvature="0"
         sodipodi:nodetypes="ccccccccccccccccccccc"
         class="ColorScheme-Text" />
      <path
         d="m 313.896,539.36218 h -5.792 c -0.608,0 -1.104,0.39199 -1.104,0.8725 v 10.25501 c 0,0.4805 0.496,0.87249 1.104,0.87249 h 5.792 c 0.608,0 1.104,-0.39199 1.104,-0.87249 v -10.25501 c 0,-0.48051 -0.496,-0.8725 -1.104,-0.8725 z m -4.368,0.69547 h 2.912 c 0.112,0 0.192,0.0632 0.192,0.15174 0,0.0885 -0.08,0.15174 -0.192,0.15174 h -2.912 c -0.112,0 -0.192,-0.0632 -0.192,-0.15174 0,-0.0759 0.08,-0.15174 0.192,-0.15174 z m 1.456,10.54584 c -0.32,0 -0.576,-0.20232 -0.576,-0.45522 0,-0.2529 0.256,-0.45522 0.576,-0.45522 0.32,0 0.576,0.20232 0.576,0.45522 -0.016,0.2529 -0.272,0.45522 -0.576,0.45522 z M 314,548.36217 h -6 v -7 h 6 z"
         id="path10-6-5"
         style="fill:currentColor;fill-opacity:1;stroke-width:0.142238"
         sodipodi:nodetypes="ssssssssssssssssssscsccccc"
         class="ColorScheme-Text" />
    </g>
    <g
       id="kdeconnect">
      <rect
         y="529.36218"
         x="321"
         height="32"
         width="32"
         id="rect4436"
         style="fill:none;fill-opacity:1;stroke:none;stroke-width:0.1;stroke-linecap:square;stroke-linejoin:miter;stroke-miterlimit:4;stroke-dasharray:none;stroke-dashoffset:0;stroke-opacity:1" />
      <path
         style="clip-rule:nonzero;display:inline;overflow:visible;visibility:visible;isolation:auto;mix-blend-mode:normal;color-interpolation:sRGB;color-interpolation-filters:linearRGB;solid-color:#000000;solid-opacity:1;fill:currentColor;fill-opacity:1;fill-rule:nonzero;stroke:none;stroke-width:1.8394;stroke-linecap:butt;stroke-linejoin:miter;stroke-miterlimit:4;stroke-dasharray:none;stroke-dashoffset:0;stroke-opacity:1;color-rendering:auto;image-rendering:auto;shape-rendering:auto;text-rendering:auto;enable-background:accumulate"
         d="m 332.24605,538.95818 c -0.42469,0.005 -0.84872,0.0365 -1.26927,0.0963 l -0.4942,2.35986 c -0.16247,0.0424 -0.32335,0.0897 -0.48258,0.1427 v 3.22806 c 0.68225,-0.39499 1.45696,-0.604 2.24605,-0.60599 2.48092,0 4.49216,2.0035 4.49216,4.47494 -0.002,1.50106 -0.758,2.90144 -2.01501,3.72913 h 3.99202 c 0.35912,-0.61519 0.62795,-1.27838 0.79845,-1.96943 l 2.37183,-0.49525 c 0.059,-0.419 0.09,-0.84136 0.0935,-1.26443 -0.005,-0.42312 -0.0364,-0.84544 -0.0967,-1.26438 l -2.36888,-0.49239 c -0.18184,-0.74797 -0.4788,-1.46345 -0.8803,-2.12095 l 1.32775,-2.02191 c -0.51887,-0.66995 -1.12359,-1.26934 -1.79866,-1.78297 l -2.0238,1.32267 c -0.66,-0.39997 -1.37818,-0.6958 -2.12904,-0.87692 l -0.49425,-2.36563 c -0.42061,-0.0588 -0.84465,-0.0897 -1.26934,-0.0932 z"
         id="path6302-1"
         inkscape:connector-curvature="0"
         sodipodi:nodetypes="ccccccccccccccccccccc"
         class="ColorScheme-Text" />
      <path
         d="m 342.068,533.36218 h -10.136 c -1.064,0 -1.932,0.78399 -1.932,1.745 v 20.51001 c 0,0.96101 0.868,1.74499 1.932,1.74499 h 10.136 c 1.064,0 1.932,-0.78398 1.932,-1.74499 v -20.51001 c 0,-0.96101 -0.868,-1.745 -1.932,-1.745 z m -7.644,1.39094 h 5.096 c 0.196,0 0.336,0.12645 0.336,0.30348 0,0.17703 -0.14,0.30348 -0.336,0.30348 h -5.096 c -0.196,0 -0.336,-0.12645 -0.336,-0.30348 0,-0.15174 0.14,-0.30348 0.336,-0.30348 z m 2.548,21.09168 c -0.56,0 -1.008,-0.40464 -1.008,-0.91044 0,-0.50579 0.448,-0.91043 1.008,-0.91043 0.56,0 1.008,0.40464 1.008,0.91043 -0.028,0.5058 -0.476,0.91044 -1.008,0.91044 z M 343,552.36218 h -12 v -16 h 12 z"
         id="path10"
         style="fill:currentColor;fill-opacity:1;stroke-width:0.266104"
         sodipodi:nodetypes="ssssssssssssssssssscsccccc"
         class="ColorScheme-Text" />
    </g>
    <g
       id="22-22-kdeconnect">
      <rect
         style="fill:none;fill-opacity:1;stroke:none;stroke-width:0.138587;stroke-linecap:square;stroke-linejoin:miter;stroke-miterlimit:4;stroke-dasharray:none;stroke-dashoffset:0;stroke-opacity:1"
         id="rect4444"
         width="22"
         height="22"
         x="355"
         y="534.36218" />
      <path
         style="clip-rule:nonzero;display:inline;overflow:visible;visibility:visible;isolation:auto;mix-blend-mode:normal;color-interpolation:sRGB;color-interpolation-filters:linearRGB;solid-color:#000000;solid-opacity:1;fill:currentColor;fill-opacity:1;fill-rule:nonzero;stroke:none;stroke-width:1.37955;stroke-linecap:butt;stroke-linejoin:miter;stroke-miterlimit:4;stroke-dasharray:none;stroke-dashoffset:0;stroke-opacity:1;color-rendering:auto;image-rendering:auto;shape-rendering:auto;text-rendering:auto;enable-background:accumulate"
         d="m 362.53454,540.55918 c -0.31852,0.004 -0.63654,0.0274 -0.95196,0.0722 l -0.37064,1.7699 c -0.12186,0.0318 -0.24252,0.0673 -0.36194,0.10703 v 2.42104 c 0.51169,-0.29624 1.09272,-0.453 1.68454,-0.45449 1.86069,0 3.36912,1.50262 3.36912,3.3562 -10e-4,1.1258 -0.5685,2.17608 -1.51126,2.79685 h 2.99402 c 0.26934,-0.46139 0.47096,-0.95878 0.59883,-1.47707 l 1.77888,-0.37144 c 0.0442,-0.31425 0.0675,-0.63102 0.0701,-0.94832 -0.004,-0.31734 -0.0273,-0.63408 -0.0725,-0.94829 l -1.77666,-0.36929 c -0.13638,-0.56098 -0.3591,-1.09759 -0.66023,-1.59071 l 0.99581,-1.51643 c -0.38915,-0.50247 -0.84269,-0.95201 -1.34899,-1.33723 l -1.51785,0.992 c -0.495,-0.29998 -1.03364,-0.52185 -1.59678,-0.65769 l -0.37069,-1.77422 c -0.31546,-0.0441 -0.63349,-0.0673 -0.952,-0.0699 z"
         id="path6302-1-3"
         inkscape:connector-curvature="0"
         sodipodi:nodetypes="ccccccccccccccccccccc"
         class="ColorScheme-Text" />
      <path
         d="m 370.344,536.36218 h -8.688 c -0.912,0 -1.656,0.58799 -1.656,1.30875 v 15.38251 c 0,0.72075 0.744,1.30874 1.656,1.30874 h 8.688 c 0.912,0 1.656,-0.58799 1.656,-1.30874 v -15.38251 c 0,-0.72076 -0.744,-1.30875 -1.656,-1.30875 z m -6.552,1.0432 h 4.368 c 0.168,0 0.288,0.0948 0.288,0.22761 0,0.13278 -0.12,0.22761 -0.288,0.22761 h -4.368 c -0.168,0 -0.288,-0.0948 -0.288,-0.22761 0,-0.1138 0.12,-0.22761 0.288,-0.22761 z m 2.184,15.81876 c -0.48,0 -0.864,-0.30348 -0.864,-0.68283 0,-0.37934 0.384,-0.68282 0.864,-0.68282 0.48,0 0.864,0.30348 0.864,0.68282 -0.024,0.37935 -0.408,0.68283 -0.864,0.68283 z M 371,550.36218 h -10 v -12 h 10 z"
         id="path10-6"
         style="fill:currentColor;fill-opacity:1;stroke-width:0.213357"
         sodipodi:nodetypes="ssssssssssssssssssscsccccc"
         class="ColorScheme-Text" />
    </g>
  </g>
</svg>
