<?xml version="1.0" encoding="UTF-8" standalone="no"?>
<svg
   width="32"
   height="32"
   version="1.1"
   id="svg12"
   sodipodi:docname="kgpg.svg"
   inkscape:version="1.2.1 (9c6d41e410, 2022-07-14)"
   xmlns:inkscape="http://www.inkscape.org/namespaces/inkscape"
   xmlns:sodipodi="http://sodipodi.sourceforge.net/DTD/sodipodi-0.dtd"
   xmlns="http://www.w3.org/2000/svg"
   xmlns:svg="http://www.w3.org/2000/svg"
   xmlns:rdf="http://www.w3.org/1999/02/22-rdf-syntax-ns#"
   xmlns:cc="http://creativecommons.org/ns#"
   xmlns:dc="http://purl.org/dc/elements/1.1/">
  <style
     id="current-color-scheme"
     type="text/css">.ColorScheme-Text { color:#eff0f1; }
</style>
  <metadata
     id="metadata18">
    <rdf:RDF>
      <cc:Work
         rdf:about="">
        <dc:format>image/svg+xml</dc:format>
        <dc:type
           rdf:resource="http://purl.org/dc/dcmitype/StillImage" />
      </cc:Work>
    </rdf:RDF>
  </metadata>
  <defs
     id="defs16" />
  <sodipodi:namedview
     pagecolor="#ffffff"
     bordercolor="#000000"
     borderopacity="1"
     objecttolerance="10"
     gridtolerance="10"
     guidetolerance="10"
     inkscape:pageopacity="0"
     inkscape:pageshadow="2"
     inkscape:window-width="1920"
     inkscape:window-height="1000"
     id="namedview14"
     showgrid="false"
     inkscape:zoom="9.8125003"
     inkscape:cx="25.579617"
     inkscape:cy="20.127388"
     inkscape:window-x="0"
     inkscape:window-y="0"
     inkscape:window-maximized="1"
     inkscape:current-layer="svg12"
     inkscape:document-rotation="0"
     inkscape:lockguides="false"
     inkscape:showpageshadow="2"
     inkscape:pagecheckerboard="0"
     inkscape:deskcolor="#cccccc">
    <inkscape:grid
       type="xygrid"
       id="grid871"
       originx="-1e-06"
       originy="-4.6325683e-08" />
  </sodipodi:namedview>
  <g
     id="kgpg"
     style="fill:#eff0f1;fill-opacity:1">
    <rect
       style="opacity:0.00100002;fill:#eff0f1;fill-opacity:1"
       width="32"
       height="32"
       x="0"
       y="0"
       id="rect7" />
    <path
       d="M 25.288083,22 H 6.659884 C 5.082187,22 3.799999,23.323699 3.799999,24.949629 3.799999,26.676302 5.083423,28 6.659884,28 h 18.626963 c 1.577697,0 2.859884,-1.323698 2.859884,-2.949628 C 28.147931,23.323699 26.864544,22 25.288083,22 Z m -14.164652,3.834645 c 0.194121,0.158129 0.226268,0.448883 0.07295,0.649096 -0.08902,0.114772 -0.21885,0.173434 -0.351149,0.173434 -0.09768,0 -0.196594,-0.03188 -0.278199,-0.09947 l -0.442645,-0.362169 h -0.0087 -0.01113 -0.01113 -0.01113 -0.01113 -0.01113 -0.01113 -0.0012 l -0.0025,0.410626 c -0.0025,0.253773 -0.202777,0.457811 -0.448828,0.457811 H 9.59268 C 9.345392,27.062777 9.146325,26.85356 9.147562,26.598511 l 0.0025,-0.402975 h -0.0074 -0.01113 -0.01113 -0.01113 -0.01113 -0.01113 -0.01113 -0.0099 v 0 l -0.4377,0.346865 c -0.08161,0.06504 -0.176811,0.09564 -0.272017,0.09564 -0.134771,0 -0.26707,-0.06122 -0.354858,-0.178534 -0.152082,-0.202763 -0.114989,-0.492243 0.08037,-0.647822 l 0.273254,-0.216791 c -0.381715,-0.240325 -0.369359,-0.67245 0,-0.845482 l -0.26459,-0.216787 c -0.194121,-0.15813 -0.226268,-0.448884 -0.07295,-0.649097 0.155792,-0.200212 0.4377,-0.232093 0.629348,-0.07524 l 0.442646,0.362168 h 0.0099 0.01113 0.01113 0.01113 0.01113 0.01113 0.01113 0.0012 l 0.0025,-0.410628 c 0.0012,-0.255047 0.153318,-0.460359 0.4513,-0.45781 0.247288,0.0012 0.446355,0.210415 0.445118,0.465462 l -0.0049,0.402976 h 0.0099 0.01113 0.01113 0.01113 0.01113 0.01113 0.01113 0.0099 l 0.437699,-0.34814 c 0.196594,-0.154304 0.478503,-0.114772 0.628111,0.08416 0.150846,0.202763 0.113754,0.492243 -0.0816,0.647821 l -0.273254,0.216791 c 0.154584,0.08469 0.244724,0.215579 0.26055,0.358049 0.01837,0.16533 -0.06334,0.346257 -0.26055,0.48871 z m 6.386211,0 c 0.194121,0.158129 0.226269,0.450159 0.07295,0.649096 -0.08902,0.114772 -0.218849,0.173434 -0.351148,0.173434 -0.09768,0 -0.196594,-0.03188 -0.278199,-0.09947 l -0.442647,-0.362169 h -0.0087 -0.01113 -0.0099 -0.01113 -0.01113 -0.01113 -0.01113 -0.0012 l -0.0025,0.410626 c -0.0025,0.253773 -0.20154,0.457811 -0.447592,0.457811 h -0.0037 c -0.247288,-0.0012 -0.446355,-0.210414 -0.445118,-0.465462 l 0.0025,-0.402975 h -0.0099 -0.01113 -0.01113 -0.01113 -0.01113 -0.01113 -0.01113 -0.01113 v 0 l -0.4377,0.346865 c -0.0816,0.06504 -0.176811,0.09564 -0.272017,0.09564 -0.134772,0 -0.267071,-0.06122 -0.354858,-0.178534 -0.150846,-0.202763 -0.113752,-0.492243 0.08161,-0.647822 l 0.273253,-0.216791 c -0.261729,-0.291405 -0.311226,-0.562896 0,-0.845482 l -0.263361,-0.215516 c -0.194121,-0.15813 -0.226269,-0.45016 -0.07295,-0.649098 0.154555,-0.200212 0.437699,-0.232094 0.629347,-0.07524 l 0.442646,0.362168 h 0.0087 0.01113 0.01113 0.01113 0.01113 0.01113 0.01113 0.0012 l 0.0025,-0.410628 c 0.0025,-0.255047 0.196594,-0.460361 0.4513,-0.457811 0.247288,0.0012 0.446355,0.210415 0.445119,0.465462 l -0.0025,0.402977 h 0.0099 0.01113 0.01113 0.01113 0.01113 0.01113 0.01113 0.01113 l 0.4377,-0.348142 c 0.196594,-0.154304 0.477265,-0.116046 0.628111,0.08416 0.150846,0.202762 0.113752,0.492242 -0.08161,0.647821 l -0.273253,0.21679 c 0.27987,0.293066 0.300617,0.574553 0,0.84676 z m 6.387447,0 c 0.194122,0.158129 0.226268,0.450159 0.07295,0.649096 -0.08902,0.114772 -0.218848,0.173434 -0.351148,0.173434 -0.09768,0 -0.196594,-0.03188 -0.278199,-0.09947 L 22.898045,26.19554 h -0.0087 -0.01113 -0.01113 -0.01113 -0.01113 -0.01113 -0.0099 -0.0012 l -0.0025,0.410626 c -0.0025,0.253773 -0.20154,0.457811 -0.447592,0.457811 h -0.0037 c -0.247288,-0.0012 -0.446355,-0.210414 -0.445118,-0.465462 l 0.0025,-0.402975 h -0.0099 -0.01113 -0.01113 -0.0099 -0.01113 -0.01113 -0.01113 -0.01113 v 0 l -0.4377,0.346865 c -0.0816,0.06504 -0.17681,0.09564 -0.272016,0.09564 -0.134772,0 -0.267071,-0.06121 -0.354859,-0.178534 -0.150845,-0.202763 -0.113752,-0.492243 0.08161,-0.647822 l 0.273253,-0.216791 c -0.317851,-0.324527 -0.321013,-0.606781 0,-0.845482 L 20.866531,24.5339 c -0.194121,-0.15813 -0.226268,-0.45016 -0.07295,-0.649098 0.154555,-0.200212 0.436463,-0.232094 0.629348,-0.07524 l 0.442645,0.362168 h 0.0087 0.01113 0.01113 0.01113 0.01113 0.01113 0.01113 0.0012 l 0.0025,-0.410627 c 0.0025,-0.253774 0.201541,-0.457812 0.447591,-0.457812 h 0.0037 c 0.247288,0.0012 0.446355,0.210415 0.445118,0.465462 l -0.0049,0.401701 h 0.0099 0.01113 0.01113 0.01113 0.01113 0.01113 0.01113 0.01113 l 0.437699,-0.34814 c 0.196594,-0.154304 0.478502,-0.116046 0.628111,0.08416 0.150846,0.202763 0.113753,0.492243 -0.0816,0.647821 l -0.273253,0.216791 c 0.279332,0.254126 0.320628,0.532221 0,0.846759 z"
       id="path2"
       sodipodi:nodetypes="ssssscsccscccccccccccscccccccccccccsccccccccccccccccccccccccccccccccsccccscccccccccccscccccccccccccsccccccccccccccccccccccccccccccccccccscccccccccccscccccccccccccscccccccccccccccccsccccccccccccccccc"
       style="stroke-width:1.0;fill-opacity:1;fill:currentColor;"
       class="ColorScheme-Text" />
    <path
       d="M 16.505466,14.75 C 16.15679,14.75 15.75,15.034381 15.75,15.383058 v 0.95453 c 0,0.348676 0.406789,0.633057 0.755466,0.633057 0.348675,0 0.755465,-0.284381 0.755465,-0.633057 v -0.955767 c 0,-0.348675 -0.40679,-0.631821 -0.755465,-0.631821 z"
       id="path6"
       sodipodi:nodetypes="sssssss"
       style="stroke-width:1.0;fill-opacity:1;fill:currentColor;"
       class="ColorScheme-Text" />
    <path
       d="M 20.28171,10.997933 V 7.2814054 C 20.28171,5.472727 18.586579,4 16.499341,4 14.413422,4 12.716972,5.472727 12.716972,7.2814054 V 10.999173 C 11.027116,12.148347 10,13.923553 10,15.897107 10,19.262809 12.916317,22 16.50066,22 20.085001,22 23,19.262809 23,15.897107 c -0.0012,-1.974794 -1.029752,-3.75 -2.71829,-4.899174 z M 14.429266,7.2814054 c 0,-0.9210749 0.928107,-1.6710748 2.070075,-1.6710748 1.140649,0 2.068747,0.7499999 2.068747,1.6710748 v 2.8363626 c -0.08449,-0.02602 -0.168976,-0.05331 -0.254799,-0.07809 C 18.194472,10.008688 18.070378,9.976453 17.944957,9.951659 17.847264,9.930584 17.754852,9.914473 17.661118,9.897117 17.533059,9.876042 17.398397,9.85621 17.262416,9.840089 L 17.073631,9.822733 C 16.884834,9.80662 16.693411,9.795462 16.498022,9.795462 c -0.194071,0 -0.386824,0.012393 -0.576927,0.027271 l -0.176909,0.017356 c -0.147859,0.016111 -0.28252,0.035953 -0.415863,0.059505 -0.08581,0.016113 -0.178227,0.030991 -0.269325,0.050822 -0.132013,0.027271 -0.256117,0.059505 -0.378891,0.091739 -0.08186,0.02355 -0.167667,0.04959 -0.252161,0.07686 V 7.2814074 Z m 4.376459,8.9727246 c 0,1.125621 -1.107645,2.040497 -2.305065,2.040497 -1.198741,0 -2.306384,-0.914876 -2.306384,-2.040497 v -0.958263 c 0,-1.125621 1.107643,-2.040496 2.306384,-2.040496 1.19874,0 2.305065,0.914875 2.305065,2.040496 z"
       id="path8"
       sodipodi:nodetypes="cssscsscccssccccccsccccccccsssssss"
       style="stroke-width:1.0;fill-opacity:1;fill:currentColor;"
       class="ColorScheme-Text" />
  </g>
  <g
     id="22-22-kgpg"
     transform="translate(32,10.000001)"
     style="fill:#eff0f1;fill-opacity:1">
    <rect
       style="opacity:0.00100002;fill:#eff0f1;fill-opacity:1"
       width="22"
       height="22"
       x="0"
       y="0"
       id="rect2" />
    <path
       d="M 17.225393,14.999999 H 4.806588 C 3.754794,14.999999 2.9,15.882466 2.9,16.966417 c 0,1.151116 0.855618,2.033582 1.906588,2.033582 h 12.417968 c 1.051807,0 1.9066,-0.882466 1.9066,-1.966418 0.0012,-1.151115 -0.854793,-2.033582 -1.905763,-2.033582 z m -9.443107,2.55643 c 0.129416,0.10542 0.150849,0.299255 0.04861,0.432731 -0.05937,0.07652 -0.145903,0.115621 -0.234104,0.115621 -0.06514,0 -0.131056,-0.02126 -0.18546,-0.06631 L 7.116233,17.797025 h -0.0057 -0.0073 -0.0073 -0.0073 -0.0073 -0.0073 -0.0073 -0.0012 l -0.0017,0.27375 c -0.0018,0.169183 -0.13519,0.305207 -0.29922,0.305207 h -0.0022 C 6.597555,18.375157 6.464845,18.235707 6.465669,18.065674 l 0.0018,-0.268649 h -0.0046 -0.0073 -0.0073 -0.0073 -0.0073 -0.0073 -0.0073 -0.0065 v 0 l -0.291463,0.231243 c -0.05441,0.04335 -0.117874,0.06376 -0.181344,0.06376 -0.08983,0 -0.17805,-0.04081 -0.236572,-0.119024 -0.10138,-0.135175 -0.07664,-0.328162 0.0536,-0.431881 l 0.18242,-0.144527 c -0.254474,-0.160216 -0.24624,-0.448301 0,-0.563654 L 5.762882,16.688414 c -0.129421,-0.105419 -0.15085,-0.299256 -0.04862,-0.432731 0.103854,-0.133476 0.291793,-0.154729 0.419563,-0.05015 l 0.295101,0.241445 h 0.0065 0.0073 0.0073 0.0073 0.0073 0.0073 0.0073 0.0012 l 0.0017,-0.273751 c 0.0012,-0.170031 0.102216,-0.306906 0.300869,-0.305207 0.164857,8.26e-4 0.297567,0.140276 0.296745,0.310308 l -0.0032,0.26865 h 0.0065 0.0073 0.0073 0.0073 0.0073 0.0073 0.0073 0.0065 l 0.291763,-0.232094 c 0.131062,-0.10287 0.319004,-0.07651 0.418741,0.05611 0.100579,0.135175 0.0758,0.328162 -0.0544,0.43188 L 7.607262,16.8474 c 0.103072,0.05646 0.163148,0.143719 0.1737,0.238699 0.01226,0.110221 -0.04221,0.230838 -0.1737,0.325807 z m 4.257478,0 c 0.129412,0.10542 0.150842,0.300106 0.04861,0.432731 -0.05937,0.07652 -0.145894,0.115621 -0.234098,0.115621 -0.06513,0 -0.131061,-0.02126 -0.185466,-0.06631 l -0.295093,-0.241443 h -0.0057 -0.0073 -0.0065 -0.0073 -0.0073 -0.0073 -0.0073 -0.0012 l -0.0017,0.273751 c -0.0017,0.169181 -0.134361,0.305206 -0.298395,0.305206 h -0.0023 c -0.164863,-8.23e-4 -0.297573,-0.140273 -0.296746,-0.310306 l 0.0018,-0.268649 h -0.0065 -0.0073 -0.0073 -0.0073 -0.0073 -0.0073 -0.0073 -0.0073 v 0 l -0.292524,0.231242 c -0.0544,0.04335 -0.117875,0.06376 -0.181347,0.06376 -0.08983,0 -0.178048,-0.04081 -0.236568,-0.119023 -0.100579,-0.135175 -0.07578,-0.328161 0.05441,-0.431881 l 0.182169,-0.144527 c -0.174488,-0.194268 -0.207485,-0.375264 0,-0.563654 l -0.176205,-0.143678 c -0.12941,-0.105419 -0.150843,-0.300106 -0.0486,-0.43273 0.103029,-0.133475 0.291799,-0.154729 0.419566,-0.05015 l 0.295098,0.241444 h 0.0057 0.0073 0.0073 0.0073 0.0073 0.0073 0.0073 0.0012 l 0.0017,-0.273751 c 0.0017,-0.170031 0.131065,-0.306908 0.300867,-0.305206 0.16486,8.16e-4 0.297573,0.140277 0.296747,0.310307 l -0.0018,0.26865 h 0.0065 0.0073 0.0073 0.0073 0.0073 0.0073 0.0073 0.0073 l 0.291803,-0.232094 c 0.131062,-0.102869 0.318174,-0.07736 0.418742,0.05611 0.100578,0.135175 0.07578,0.328162 -0.05441,0.431881 l -0.182173,0.144527 c 0.18658,0.195377 0.200415,0.383035 0,0.564507 z m 4.258298,0 c 0.129414,0.10542 0.150845,0.300106 0.04861,0.432731 -0.05938,0.07652 -0.145893,0.115621 -0.234097,0.115621 -0.06513,0 -0.131064,-0.02126 -0.185467,-0.06631 l -0.295102,-0.241445 h -0.0057 -0.0073 -0.0073 -0.0073 -0.0073 -0.0073 -0.0065 -0.0012 l -0.0017,0.273752 c -0.0017,0.169181 -0.134358,0.305206 -0.298397,0.305206 h -0.0023 c -0.165558,-8.33e-4 -0.298266,-0.140275 -0.297444,-0.310309 l 0.0018,-0.268649 h -0.0065 -0.0073 -0.0073 -0.0065 -0.0073 -0.0073 -0.0073 -0.0073 v 0 l -0.291951,0.231243 c -0.0544,0.04335 -0.117873,0.06376 -0.181343,0.06376 -0.08983,0 -0.178052,-0.0408 -0.236574,-0.119023 -0.100578,-0.135175 -0.0758,-0.32816 0.05441,-0.43188 l 0.182172,-0.144528 c -0.2119,-0.216352 -0.214011,-0.404521 0,-0.563654 l -0.175046,-0.143679 c -0.129414,-0.105418 -0.150844,-0.300106 -0.04861,-0.432729 0.10303,-0.133476 0.290975,-0.154731 0.419566,-0.05015 l 0.295098,0.241444 h 0.0057 0.0073 0.0073 0.0073 0.0073 0.0073 0.0073 0.0012 l 0.0017,-0.273751 c 0.0018,-0.169182 0.134362,-0.305207 0.298393,-0.305207 h 0.0022 c 0.164859,8.24e-4 0.297573,0.140277 0.296747,0.310307 l -0.0032,0.267802 h 0.0065 0.0073 0.0073 0.0073 0.0073 0.0073 0.0073 0.0073 l 0.2918,-0.232094 c 0.131062,-0.10287 0.319004,-0.07736 0.418741,0.05611 0.100579,0.135175 0.0758,0.328162 -0.0544,0.431881 l -0.182167,0.14452 c 0.186222,0.169417 0.213754,0.354813 0,0.564505 z"
       id="path2-3"
       sodipodi:nodetypes="ssssscsccscccccccccccscccccccccccccsccccccccccccccccccccccccccccccccsccccscccccccccccscccccccccccccsccccccccccccccccccccccccccccccccccccscccccccccccscccccccccccccscccccccccccccccccsccccccccccccccccc"
       style="stroke-width:1.0;fill-opacity:1;fill:currentColor;"
       class="ColorScheme-Text" />
    <path
       d="m 10.978069,10.089744 c -0.232448,0 -0.503644,0.189587 -0.503644,0.422039 v 0.636352 c 0,0.232452 0.271195,0.422039 0.503644,0.422039 0.232453,0 0.503648,-0.189587 0.503648,-0.422039 v -0.637177 c 0,-0.23245 -0.271195,-0.421214 -0.503648,-0.421214 z"
       id="path6-6"
       sodipodi:nodetypes="sssssss"
       style="stroke-width:1.0;fill-opacity:1;fill:currentColor;"
       class="ColorScheme-Text" />
    <path
       d="M 13.339669,7.6531343 V 5.181903 C 13.339669,3.979257 12.28128,3 10.978069,3 9.675694,3 8.616469,3.979257 8.616469,5.181903 V 7.6539588 C 7.561381,8.4180783 6.920084,9.5984657 6.920084,10.91074 c 0,2.237955 1.820858,4.057995 4.058813,4.057995 2.237953,0 4.057994,-1.82004 4.057994,-4.057995 -0.0012,-1.3130981 -0.642948,-2.4934861 -1.697222,-3.2576057 z M 9.685583,5.181903 c 0,-0.612447 0.57948,-1.111145 1.292486,-1.111145 0.712191,0 1.291671,0.498698 1.291671,1.111145 v 1.8859827 c -0.05273,-0.017304 -0.105509,-0.035442 -0.15909,-0.05192 -0.07416,-0.020607 -0.151667,-0.042038 -0.229978,-0.058527 -0.06099,-0.014014 -0.118698,-0.024722 -0.177223,-0.036268 -0.07994,-0.014014 -0.164035,-0.0272 -0.248935,-0.03792 l -0.117875,-0.011541 c -0.117875,-0.01071 -0.237398,-0.018132 -0.359389,-0.018132 -0.121166,0 -0.241524,0.0082 -0.360216,0.018132 l -0.110457,0.011541 c -0.09234,0.01071 -0.176395,0.023906 -0.259654,0.039567 -0.05362,0.01071 -0.111278,0.020607 -0.168157,0.033792 -0.08242,0.018132 -0.159909,0.039565 -0.236568,0.060998 -0.05106,0.01566 -0.104686,0.032976 -0.15744,0.051106 V 5.181907 Z m 2.732528,5.966233 c 0,0.748458 -0.691579,1.356787 -1.439214,1.356787 -0.748459,0 -1.44004,-0.608329 -1.44004,-1.356787 v -0.637178 c 0,-0.7484583 0.691581,-1.3567863 1.44004,-1.3567863 0.748456,0 1.439214,0.608328 1.439214,1.3567863 z"
       id="path8-7"
       sodipodi:nodetypes="cssscsscccssccccccsccccccccsssssss"
       style="stroke-width:1.0;fill-opacity:1;fill:currentColor;"
       class="ColorScheme-Text" />
  </g>
</svg>
