<?xml version="1.0" encoding="UTF-8" standalone="no"?>
<svg
   viewBox="0 0 22 22"
   id="svg"
   version="1.1"
   width="22"
   height="22"
   sodipodi:docname="kpackagekit.svg"
   inkscape:version="1.2.1 (9c6d41e410, 2022-07-14)"
   xmlns:inkscape="http://www.inkscape.org/namespaces/inkscape"
   xmlns:sodipodi="http://sodipodi.sourceforge.net/DTD/sodipodi-0.dtd"
   xmlns="http://www.w3.org/2000/svg"
   xmlns:svg="http://www.w3.org/2000/svg"
   xmlns:rdf="http://www.w3.org/1999/02/22-rdf-syntax-ns#"
   xmlns:cc="http://creativecommons.org/ns#"
   xmlns:dc="http://purl.org/dc/elements/1.1/">
  <style
     id="current-color-scheme"
     type="text/css">
.ColorScheme-Text { 
    color:#eff0f1;
}
</style>
  <sodipodi:namedview
     pagecolor="#ffffff"
     bordercolor="#000000"
     borderopacity="1"
     objecttolerance="10"
     gridtolerance="10"
     guidetolerance="10"
     inkscape:pageopacity="0"
     inkscape:pageshadow="2"
     inkscape:window-width="1920"
     inkscape:window-height="1000"
     id="namedview18"
     showgrid="false"
     inkscape:zoom="7.5853272"
     inkscape:cx="23.861858"
     inkscape:cy="26.23486"
     inkscape:window-x="0"
     inkscape:window-y="0"
     inkscape:window-maximized="1"
     inkscape:current-layer="svg"
     inkscape:document-rotation="0"
     inkscape:showpageshadow="2"
     inkscape:pagecheckerboard="0"
     inkscape:deskcolor="#cccccc">
    <inkscape:grid
       type="xygrid"
       id="grid11084"
       originx="22"
       originy="0" />
  </sodipodi:namedview>
  <defs
     id="defs81">
    <style
       id="current-color-scheme"
       type="text/css" />
  </defs>
  <metadata
     id="metadata34">
    <rdf:RDF>
      <cc:Work
         rdf:about="">
        <dc:format>image/svg+xml</dc:format>
        <dc:type
           rdf:resource="http://purl.org/dc/dcmitype/StillImage" />
      </cc:Work>
    </rdf:RDF>
  </metadata>
  <g
     id="kpackagekit-important"
     transform="translate(-23,-1)">
    <rect
       style="fill:#ffffff;fill-opacity:0;stroke:none"
       id="rect3009"
       width="22"
       height="22"
       x="1"
       y="1" />
    <path
       id="rect8081-5"
       style="fill:currentColor;fill-opacity:1;stroke:none"
       d="m 11.2,15.2 v -1.6 h 1.6 v 1.6 z m 0,-7.2 h 1.6 v 4.8 H 11.2 Z M 12,20 c 4.431968,0 8,-3.568 8,-8 0,-1.44168 -0.382872,-2.78928 -1.04492,-3.95512 L 18.2168,8.7832 C 18.714168,9.74608 19,10.83752 19,12 c 0,3.878 -3.122032,7 -7,7 -1.162512,0 -2.253888,-0.28584 -3.2168,-0.7832 L 8.04492,18.95512 C 9.210712,19.61712 10.558288,20 12,20 Z M 5.04492,15.95512 5.7832,15.2168 C 5.285824,14.25392 5,13.16248 5,12 5,8.122 8.122032,5 12,5 c 1.162512,0 2.253888,0.28576 3.2168,0.7832 L 15.95508,5.04488 C 14.789288,4.38288 13.441712,4 12,4 7.568032,4 4,7.568 4,12 c 0,1.44168 0.382872,2.78928 1.04492,3.95512 z"
       class="ColorScheme-Text" />
  </g>
  <g
     id="kpackagekit-security"
     transform="translate(-1,-1)">
    <rect
       y="1"
       x="1"
       height="22"
       width="22"
       id="rect3085"
       style="fill:#ffffff;fill-opacity:0;stroke:none" />
    <path
       id="rect8081-1"
       style="fill:#bf616a;fill-opacity:1;stroke:none"
       d="m 11.2,15.2 v -1.6 h 1.6 v 1.6 z m 0,-7.2 h 1.6 v 4.8 H 11.2 Z M 12,20 c 4.431968,0 8,-3.568 8,-8 0,-1.44168 -0.382871,-2.78928 -1.044919,-3.95512 L 18.2168,8.7832 C 18.714169,9.74608 19,10.83752 19,12 c 0,3.878 -3.122032,7 -7,7 -1.162512,0 -2.253888,-0.28584 -3.2168,-0.7832 L 8.04492,18.95512 C 9.210712,19.61712 10.558288,20 12,20 Z M 5.04492,15.95512 5.7832,15.2168 C 5.285824,14.25392 5,13.16248 5,12 5,8.122 8.122032,5 12,5 c 1.162512,0 2.253888,0.28576 3.2168,0.7832 L 15.955081,5.04488 C 14.789287,4.38288 13.441712,4 12,4 7.568032,4 4,7.568 4,12 c 0,1.44168 0.382872,2.78928 1.04492,3.95512 z"
       class="ColorScheme-Text" />
  </g>
  <g
     id="kpackagekit-updates"
     transform="translate(21,-1)">
    <rect
       style="fill:#ffffff;fill-opacity:0;stroke:none"
       id="rect3869"
       width="22"
       height="22"
       x="1"
       y="1" />
    <path
       id="path3873-7-9"
       style="fill:currentColor;fill-opacity:1"
       d="m 9.6,11.2 c -0.441832,0 -0.8,0.35816 -0.8,0.8 0,0.44184 0.358168,0.8 0.8,0.8 0.441824,0 0.8,-0.35816 0.8,-0.8 0,-0.44184 -0.358176,-0.8 -0.8,-0.8 z m 2.4,0 c -0.441832,0 -0.8,0.35816 -0.8,0.8 0,0.44184 0.358168,0.8 0.8,0.8 0.441824,0 0.8,-0.35816 0.8,-0.8 0,-0.44184 -0.358176,-0.8 -0.8,-0.8 z m 2.4,0 c -0.441832,0 -0.8,0.35816 -0.8,0.8 0,0.44184 0.358168,0.8 0.8,0.8 0.441824,0 0.8,-0.35816 0.8,-0.8 0,-0.44184 -0.358176,-0.8 -0.8,-0.8 z M 12,20 c 4.431968,0 8,-3.568 8,-8 0,-1.44168 -0.382872,-2.78928 -1.04492,-3.95512 L 18.2168,8.7832 C 18.714168,9.74608 19,10.83752 19,12 c 0,3.878 -3.122032,7 -7,7 -1.162512,0 -2.253888,-0.28584 -3.2168,-0.7832 L 8.04492,18.95512 C 9.210712,19.61712 10.558288,20 12,20 Z M 5.04492,15.95512 5.7832,15.2168 C 5.285824,14.25392 5,13.16248 5,12 5,8.122 8.122032,5 12,5 c 1.162512,0 2.253888,0.28576 3.2168,0.7832 L 15.95508,5.04488 C 14.789288,4.38288 13.441712,4 12,4 7.568032,4 4,7.568 4,12 c 0,1.44168 0.382872,2.78928 1.04492,3.95512 z"
       class="ColorScheme-Text " />
  </g>
  <g
     id="kpackagekit-inactive"
     transform="translate(43,-1)">
    <rect
       y="1"
       x="1"
       height="22"
       width="22"
       id="rect3887"
       style="fill:#ffffff;fill-opacity:0;stroke:none" />
    <path
       style="opacity:0.4;fill:currentColor;fill-opacity:1;stroke:none"
       d="m 12,20 c 4.431966,0 8,-3.568 8,-8 0,-1.4417 -0.382871,-2.7893 -1.044922,-3.9551 L 18.216797,8.7832 C 18.714171,9.7461 19,10.8375 19,12 c 0,3.878 -3.12203,7 -7,7 -1.162509,0 -2.25389,-0.2858 -3.216797,-0.7832 L 8.044922,18.9551 C 9.210711,19.6171 10.558286,20 12,20 Z M 5.044922,15.9551 5.783203,15.2168 C 5.285828,14.2539 5,13.1625 5,12 5,8.122 8.12203,5 12,5 c 1.16251,0 2.25389,0.2858 3.216797,0.7832 L 15.955078,5.0449 C 14.789289,4.3829 13.441714,4 12,4 7.568034,4 4,7.568 4,12 c 0,1.4417 0.382871,2.7893 1.044922,3.9551 z"
       id="path8157-9"
       class="ColorScheme-Text" />
  </g>
</svg>
