<?xml version="1.0" encoding="UTF-8" standalone="no"?>
<svg
   width="32"
   height="32"
   version="1.1"
   id="svg12"
   sodipodi:docname="ktorrent.svg"
   inkscape:version="1.2.1 (9c6d41e410, 2022-07-14)"
   xmlns:inkscape="http://www.inkscape.org/namespaces/inkscape"
   xmlns:sodipodi="http://sodipodi.sourceforge.net/DTD/sodipodi-0.dtd"
   xmlns="http://www.w3.org/2000/svg"
   xmlns:svg="http://www.w3.org/2000/svg"
   xmlns:rdf="http://www.w3.org/1999/02/22-rdf-syntax-ns#"
   xmlns:cc="http://creativecommons.org/ns#"
   xmlns:dc="http://purl.org/dc/elements/1.1/">
  <style
     id="current-color-scheme"
     type="text/css">.ColorScheme-Text { color:#eff0f1; }
</style>
  <g
     id="22-22-ktorrent">
    <rect
       style="opacity:0.00100002;fill:#eff0f1;fill-opacity:1"
       width="22"
       height="22"
       x="32"
       y="10.000001"
       id="rect2" />
    <path
       style="enable-background:accumulate;stroke-width:1.0;fill-opacity:1;fill:currentColor;"
       d="m 42,20 h 2 v 3 h 2 L 43.049226,27.000001 40,23 h 2 z"
       fill-opacity="1"
       fill-rule="nonzero"
       stroke="none"
       marker="none"
       visibility="visible"
       display="inline"
       overflow="visible"
       id="path10-5"
       sodipodi:nodetypes="cccccccc"
       class="ColorScheme-Text" />
    <rect
       x="36"
       y="28"
       width="14"
       height="1.000001"
       id="rect6-35"
       style="stroke-width:1.0;fill-opacity:1;fill:currentColor;"
       ry="0.50000048"
       rx="0"
       class="ColorScheme-Text" />
    <path
       class="fil0  ColorScheme-Text"
       d="m 41.060739,20.257135 c 0.182218,0 0.312365,0.171432 0.312365,0.37143 0,0.200006 -0.130147,0.371436 -0.312365,0.371436 H 39.212584 C 37.989149,21.000001 37,19.885708 37,18.542858 c 0,-1.228578 0.858998,-2.28572 1.978308,-2.428571 0.5987,-1.857147 2.212584,-3.114286 4.034701,-3.114286 1.796099,0 3.409987,1.257139 4.008677,3.114286 C 48.141,16.257138 49,17.31428 49,18.542858 c 0,1.34285 -0.989153,2.457143 -2.212584,2.457143 H 44.96529 c -0.208238,0 -0.338391,-0.17143 -0.338391,-0.371436 0,-0.199998 0.130153,-0.37143 0.338391,-0.37143 h 1.822126 c 0.859002,0 1.561821,-0.771424 1.561821,-1.714277 0,-0.942858 -0.702819,-1.685716 -1.561821,-1.714293 -0.156174,0 -0.286335,-0.08576 -0.338396,-0.257139 -0.442514,-1.685718 -1.848153,-2.857136 -3.436011,-2.857136 -1.613877,0 -3.019521,1.171418 -3.462037,2.857136 -0.02602,0.142858 -0.156179,0.257139 -0.312357,0.257139 -0.859004,0 -1.587857,0.771435 -1.587857,1.714293 0,0.942853 0.702823,1.714277 1.561826,1.714277 z"
       id="path6-3-6"
       style="text-rendering:geometricPrecision;shape-rendering:geometricPrecision;image-rendering:optimizeQuality;stroke-width:1,0;fill-opacity:1;fill:currentColor;" />
  </g>
  <metadata
     id="metadata18">
    <rdf:RDF>
      <cc:Work
         rdf:about="">
        <dc:format>image/svg+xml</dc:format>
        <dc:type
           rdf:resource="http://purl.org/dc/dcmitype/StillImage" />
      </cc:Work>
    </rdf:RDF>
  </metadata>
  <defs
     id="defs16" />
  <sodipodi:namedview
     pagecolor="#ffffff"
     bordercolor="#666666"
     borderopacity="1"
     objecttolerance="10"
     gridtolerance="10"
     guidetolerance="10"
     inkscape:pageopacity="0"
     inkscape:pageshadow="2"
     inkscape:window-width="1920"
     inkscape:window-height="1000"
     id="namedview14"
     showgrid="false"
     inkscape:zoom="13.876971"
     inkscape:cx="16.682315"
     inkscape:cy="20.717778"
     inkscape:window-x="0"
     inkscape:window-y="0"
     inkscape:window-maximized="1"
     inkscape:current-layer="svg12"
     inkscape:document-rotation="0"
     inkscape:pagecheckerboard="0"
     inkscape:showpageshadow="2"
     inkscape:deskcolor="#d1d1d1">
    <inkscape:grid
       type="xygrid"
       id="grid848"
       originx="0"
       originy="0" />
  </sodipodi:namedview>
  <g
     id="ktorrent">
    <rect
       style="opacity:0.00100002;fill:#eff0f1;fill-opacity:1"
       width="32"
       height="32"
       x="0"
       y="0"
       id="rect7" />
    <rect
       x="6"
       y="27"
       width="20"
       height="1"
       id="rect6"
       style="stroke-width:1.0;fill-opacity:1;fill:currentColor;"
       ry="0.5"
       rx="0.62527901"
       class="ColorScheme-Text" />
    <path
       class="fil0  ColorScheme-Text"
       d="m 13,14 c 0.273319,0 0.559649,0.214285 0.559649,0.489285 C 13.559649,14.764286 13.273319,15 13,15 H 10.318874 C 8.4837299,15 7,13.467858 7,11.621428 7,9.9321425 8.2885017,8.4785717 9.9674584,8.2821426 10.865507,5.7285715 13.286331,4 16.019523,4 18.713665,4 21.134493,5.7285715 22.032537,8.2821426 23.711495,8.4785717 25,9.9321425 25,11.621428 25,13.467858 23.516269,15 21.681126,15 H 19 C 18.687635,15 18.440348,14.764286 18.440348,14.489285 18.440348,14.214285 18.687635,14 19,14 l 2.681126,10e-7 c 1.288506,0 2.342735,-1.082143 2.342735,-2.378573 0,-1.296428 -1.054229,-2.3178562 -2.342735,-2.3571424 -0.234269,0 -0.429503,-0.1178571 -0.507592,-0.3535717 C 20.50976,6.5928572 18.401294,5.000001 16.019523,5.000001 c -2.420823,0 -4.529288,1.5928562 -5.193061,3.9107129 -0.03901,0.1964287 -0.234276,0.3535717 -0.468547,0.3535717 -1.2885037,0 -2.3817812,1.0607144 -2.3817812,2.3571424 0,1.29643 1.0542325,2.378573 2.3427402,2.378573 z"
       id="path6-3"
       style="text-rendering:geometricPrecision;shape-rendering:geometricPrecision;image-rendering:optimizeQuality;stroke-width:1.0;fill-opacity:1;fill:currentColor;"
       sodipodi:nodetypes="ssssscscsssssssccscssss" />
    <path
       d="m 12.092593,20.347114 3.814814,4.586026 C 15.943267,24.97611 15.991687,25 16.042399,25 c 0.05071,0 0.09915,-0.02426 0.134993,-0.06722 l 3.803392,-4.585563 c 0.05454,-0.06551 0.07055,-0.163877 0.04118,-0.249801 C 19.992224,20.011846 19.823023,20 19.746,20 H 18.000104 L 18,14.229014 C 17.999998,14.102554 17.905252,14 17.8,14 H 14.2 C 14.094754,14 14,14.102554 14,14.229014 V 20 h -1.673 c -0.07702,0 -0.24624,0.01208 -0.275984,0.098 -0.02974,0.08556 -0.01294,0.183737 0.04158,0.249219 z"
       id="path2-3"
       style="stroke-width:1.0;fill-opacity:1;fill:currentColor;"
       class="ColorScheme-Text"
       sodipodi:nodetypes="ccscccscsssscsccc" />
  </g>
</svg>
