<?xml version="1.0" encoding="UTF-8" standalone="no"?>
<svg
   width="32"
   height="32"
   version="1.1"
   id="svg12"
   sodipodi:docname="plasmavault.svg"
   inkscape:version="1.2.1 (9c6d41e410, 2022-07-14)"
   xmlns:inkscape="http://www.inkscape.org/namespaces/inkscape"
   xmlns:sodipodi="http://sodipodi.sourceforge.net/DTD/sodipodi-0.dtd"
   xmlns:xlink="http://www.w3.org/1999/xlink"
   xmlns="http://www.w3.org/2000/svg"
   xmlns:svg="http://www.w3.org/2000/svg"
   xmlns:rdf="http://www.w3.org/1999/02/22-rdf-syntax-ns#"
   xmlns:cc="http://creativecommons.org/ns#"
   xmlns:dc="http://purl.org/dc/elements/1.1/">
  <style
     id="current-color-scheme"
     type="text/css">.ColorScheme-Text { color:#eff0f1; }
</style>
  <metadata
     id="metadata18">
    <rdf:RDF>
      <cc:Work
         rdf:about="">
        <dc:format>image/svg+xml</dc:format>
        <dc:type
           rdf:resource="http://purl.org/dc/dcmitype/StillImage" />
      </cc:Work>
    </rdf:RDF>
  </metadata>
  <defs
     id="defs16">
    <linearGradient
       inkscape:collect="always"
       id="linearGradient848">
      <stop
         style="stop-color:#660029;stop-opacity:1"
         offset="0"
         id="stop844" />
      <stop
         style="stop-color:#b20048;stop-opacity:1"
         offset="1"
         id="stop846" />
    </linearGradient>
    <linearGradient
       inkscape:collect="always"
       xlink:href="#linearGradient848"
       id="linearGradient895"
       gradientUnits="userSpaceOnUse"
       gradientTransform="matrix(0.03232332,0,0,0.02930411,3.000002,3.713925)"
       x1="5.575531"
       y1="471.67694"
       x2="237.70486"
       y2="271.28119" />
  </defs>
  <sodipodi:namedview
     pagecolor="#ffffff"
     bordercolor="#000000"
     borderopacity="1"
     objecttolerance="10"
     gridtolerance="10"
     guidetolerance="10"
     inkscape:pageopacity="0"
     inkscape:pageshadow="2"
     inkscape:window-width="1920"
     inkscape:window-height="1000"
     id="namedview14"
     showgrid="false"
     inkscape:zoom="13.876971"
     inkscape:cx="25.149581"
     inkscape:cy="18.627984"
     inkscape:window-x="0"
     inkscape:window-y="0"
     inkscape:window-maximized="1"
     inkscape:current-layer="svg12"
     inkscape:document-rotation="0"
     inkscape:lockguides="false"
     inkscape:pagecheckerboard="0"
     inkscape:showpageshadow="2"
     inkscape:deskcolor="#cccccc"
     showguides="true">
    <inkscape:grid
       type="xygrid"
       id="grid246"
       originx="0"
       originy="0" />
  </sodipodi:namedview>
  <g
     id="plasmavault">
    <rect
       style="opacity:0.00100002;fill:#eff0f1;fill-opacity:1"
       width="32"
       height="32"
       x="0"
       y="0"
       id="rect7-3" />
    <path
       d="M 27.448027,7 H 14.617579 C 14.334011,7 13.977259,6.379391 13.8,6.1096 L 12.951757,4.809131 C 12.632818,4.269813 12.101049,4 11.534159,4 H 4.9771664 C 3.3466512,4 2,5.4639628 2,7.235896 V 25.5868 C 2,27.089215 3.0343988,28 4.452,28 h 11.122736 v 0 0 0 0 0 0 0 h 0.850528 v 0 0 0 0 0 0 0 0 0 H 27.648 C 29.199921,28 30,27 30,25.5868 V 9.288 C 30,7.3407012 28.733257,7 27.348,7 Z M 16.425264,28 v 0 h -0.850528 v 0 0 z M 29,25.426 C 29,26.427531 28.504791,27 27.548,27 H 4.452 C 3.5305382,27 3,26.227925 3,25.226394 V 19.024147 14.618 C 3,13.616461 4.0305414,13 4.952,13 H 17.849168 C 18.41632,13 18.799607,12.638183 19.15,12.16 L 20,11 h 1 6 2 v 7 z m -1.97741,-15.416343 -6.592449,-0.009 C 20,10 19.382394,10.235771 19.01255,10.699057 L 17.974,12 c 0,0 -0.690439,10e-4 -0.974,10e-4 L 5,12 c -0.6378488,-5.3e-5 -1.538136,0.08154 -2,0.789 V 9.539 C 3,8.615948 3.750004,8.001 4.625004,8.001 h 7.000004 0.01873 1.293744 1.895823 L 27.683,8 C 28.604461,7.9999283 29,8.499894 29,9.047 v 0.953102 l -2.444024,0.0087 z"
       id="path64-7-6"
       sodipodi:nodetypes="csccsssssccccccccccccccccccsssccccccccccssccsssccscscccsccscccccccssccc"
       style="stroke-width:1.0;fill-opacity:1;fill:currentColor;"
       class="ColorScheme-Text" />
    <path
       d="M 26.041344,17.884663 H 25.71201 l -9.75e-4,-1.641327 c -9.75e-4,-1.788 -1.456001,-3.242672 -3.243998,-3.241335 -1.788001,0.0016 -3.242664,1.456005 -3.241336,3.244005 l 0.0035,1.64133 H 19.112 c -0.614649,0.0016 -1.113327,0.49999 -1.111997,1.114664 v 4.886674 c 0,0.614668 0.499997,1.113326 1.11467,1.113326 l 6.930672,-0.0043 c 0.61466,0 1.113328,-0.498665 1.111986,-1.113331 v -4.887967 c 0,-0.614663 -0.499984,-1.112002 -1.114658,-1.112002 z m -5.618658,0.0034 -0.0035,-1.641329 c 0,-1.129335 0.917336,-2.048003 2.046669,-2.049337 1.129333,0 2.04799,0.918666 2.04799,2.046666 l 0.0035,1.641336 z"
       id="path2-3-0"
       style="stroke-width:1.0;fill-opacity:1;fill:currentColor;"
       class="ColorScheme-Text " />
  </g>
  <g
     id="22-22-plasmavault"
     transform="translate(32,10)">
    <rect
       style="opacity:0.00100002;fill:#eff0f1;fill-opacity:1"
       width="22"
       height="22"
       x="0"
       y="0"
       id="rect2-5" />
    <path
       d="M 18,5 H 10.111296 C 9.929007,5 9.769601,4.72743 9.655643,4.5495 L 9.040412,3.533521 C 8.83538,3.177907 8.493539,3 8.129101,3 H 3.913897 C 2.865713,3 2,3.965319 2,5.133703 V 17.296 C 2,18.286672 2.788687,19 3.7,19 H 11 v 0 0 0 0 0 0 0 0 0 0 0 0 0 0 0 0 0 h 7.3 C 19.188613,19 20,18.311981 20,17.296 V 6.28 C 20,5.561079 19.511473,5 18.6,5 Z m 1,11.8 c 0,0 0.2,1.2 -0.8,1.2 H 3.8 C 2.787511,18 3,16.8 3,16.8 V 13 10 10 h 9 v 0 h 7 V 9 9 9 13 Z M 19,8 V 8 8.651868 9 H 12 3 V 9 6.651981 C 3,6.043321 3.125005,6 3.687497,6 H 8 v 0 h 1 1 8 c 0.592366,0 1,0 1,0.8 z"
       id="path64-6-3"
       sodipodi:nodetypes="csccsssssccccccccccccccccccsssccscccccccccccccsccccscccsccccccc"
       style="stroke-width:1.0;fill-opacity:1;fill:currentColor;"
       class="ColorScheme-Text" />
    <path
       d="m 17.520578,13.441331 h -0.164667 l -4.87e-4,-0.820663 c -4.87e-4,-0.894 -0.728,-1.621337 -1.621999,-1.620668 -0.894,8.5e-4 -1.621331,0.728002 -1.620667,1.622002 l 0.0018,0.820666 h -0.05858 c -0.307307,8.5e-4 -0.556644,0.249994 -0.555977,0.557331 v 2.443338 C 13.500001,16.750671 13.749997,17 14.057334,17 l 3.465335,-0.0022 c 0.307332,0 0.556666,-0.249333 0.555996,-0.556666 v -2.443963 c 0,-0.307331 -0.249994,-0.556001 -0.55733,-0.556001 z m -2.809328,0.0017 -0.0018,-0.820665 c 0,-0.564667 0.458667,-1.024001 1.023334,-1.024668 0.564666,0 1.023994,0.459333 1.023994,1.023333 l 0.0018,0.820668 z"
       id="path2-3-0-7"
       style="stroke-width:1.0;fill-opacity:1;fill:currentColor;"
       class="ColorScheme-Text" />
  </g>
</svg>
