<?xml version="1.0" encoding="UTF-8" standalone="no"?>
<!-- Created with Inkscape (http://www.inkscape.org/) -->

<svg
   width="32"
   height="32"
   viewBox="0 0 32 32"
   version="1.1"
   id="SVGRoot"
   sodipodi:docname="start.svg"
   inkscape:version="1.2.1 (9c6d41e410, 2022-07-14)"
   xmlns:inkscape="http://www.inkscape.org/namespaces/inkscape"
   xmlns:sodipodi="http://sodipodi.sourceforge.net/DTD/sodipodi-0.dtd"
   xmlns="http://www.w3.org/2000/svg"
   xmlns:svg="http://www.w3.org/2000/svg">
  <style
     id="current-color-scheme"
     type="text/css">
.ColorScheme-Highlight {
    color:#4e5a7e;
}
.ColorScheme-Text { color:#3daee9; }
</style>
  <sodipodi:namedview
     id="namedview2488"
     pagecolor="#ffffff"
     bordercolor="#666666"
     borderopacity="1.0"
     inkscape:showpageshadow="2"
     inkscape:pageopacity="0.0"
     inkscape:pagecheckerboard="0"
     inkscape:deskcolor="#d1d1d1"
     inkscape:document-units="px"
     showgrid="false"
     inkscape:zoom="9.5144352"
     inkscape:cx="17.65738"
     inkscape:cy="10.773104"
     inkscape:window-width="1920"
     inkscape:window-height="1000"
     inkscape:window-x="0"
     inkscape:window-y="0"
     inkscape:window-maximized="1"
     inkscape:current-layer="layer1">
    <inkscape:grid
       type="xygrid"
       id="grid2611"
       originx="0"
       originy="0" />
  </sodipodi:namedview>
  <defs
     id="defs2483" />
  <g
     inkscape:label="Layer 1"
     inkscape:groupmode="layer"
     id="layer1">
    <g
       id="start-here-kde">
      <rect
         id="rect7"
         style="opacity:0.00100002"
         width="32"
         height="32"
         x="0"
         y="0" />
      <path
         d="m 28.976121,9.371505 c -0.07133,1.433361 -0.240723,2.849033 -0.665683,4.211631 -0.26151,0.849397 -0.475482,1.720026 -0.846953,2.516347 -0.686475,1.46168 -1.566116,2.73225 -2.710245,3.716137 -1.087665,0.934352 -2.285281,1.589092 -3.592864,1.946555 0.05646,-0.583961 0.07132,-1.178552 0.03567,-1.773123 1.025255,-0.307916 1.925698,-0.920192 2.751854,-1.681117 0.885583,-0.821084 1.583942,-1.85453 2.151555,-3.011837 0.570573,-1.157317 0.947988,-2.406655 1.212482,-3.712605 0.19316,-0.96266 0.222881,-1.939472 0.210988,-2.916293 l 0.0089,-0.852938 c -0.05051,0.141568 -0.34471,0.488414 -0.386317,0.534414 -0.713219,0.78216 -1.551256,1.320119 -2.44873,1.734192 -0.826152,0.382235 -1.684989,0.640595 -2.537886,0.930815 -1.0847,0.364541 -2.205054,0.647672 -3.215454,1.238717 -0.124813,0.07432 -0.240708,0.127406 -0.344723,0.162799 -0.353643,-0.4778 -0.745911,-0.906031 -1.16493,-1.298886 l -0.01486,-0.01415 c 0.986634,-0.566272 2.029726,-0.948506 3.06092,-1.355507 1.426451,-0.562733 2.864785,-1.075912 4.231795,-1.850992 1.230306,-0.700757 2.353632,-1.5537 3.328378,-2.689776 0.154525,-0.180504 0.344721,-0.399922 0.505197,-0.68306 0.175334,0.583964 0.255572,1.196239 0.323918,1.723578 0.130767,1.036975 0.157508,2.081042 0.106992,3.125099 z m -9.251107,10.083127 c -0.08618,-0.835248 -0.225856,-1.656343 -0.487365,-2.452653 -0.282314,-0.860022 -0.671621,-1.624483 -1.093606,-2.392488 -0.02081,-0.03894 -0.04458,-0.07787 -0.06538,-0.113253 -0.466572,-0.806931 -1.034186,-1.475843 -1.670141,-2.070419 -0.841,-0.789243 -1.780082,-1.351973 -2.760769,-1.815599 -0.374439,-0.176961 -0.754826,-0.336229 -1.135211,-0.491948 L 9.6269623,8.999883 C 8.8364703,8.677828 8.0548973,8.327448 7.2941273,7.895664 6.0638153,7.194908 4.9404893,6.341964 3.9657513,5.205888 3.8112193,5.025385 3.6210263,4.791802 3.4605513,4.508663 c -0.175334,0.583964 -0.255572,1.210404 -0.323923,1.741282 -0.1367,1.036981 -0.163447,2.084579 -0.112926,3.128635 0.07132,1.433364 0.240713,2.849044 0.665674,4.211631 0.261516,0.849398 0.475484,1.720031 0.846954,2.516364 0.686479,1.461672 1.56612,2.732233 2.710248,3.716129 1.081718,0.930803 2.270428,1.582008 3.5690887,1.94301 -0.0629,-0.553648 -0.08554,-1.101302 -0.0679,-1.642968 0.0015,-0.04697 0.0034,-0.0939 0.0055,-0.140781 C 9.7488063,19.670517 8.8632213,19.065317 8.0549033,18.315011 7.1693203,17.493919 6.4709533,16.46048 5.9033463,15.303162 5.3327673,14.145854 4.9553503,12.896522 4.6908693,11.59057 4.4917583,10.599595 4.4679843,9.598008 4.4798693,8.592878 V 7.899201 l 0.34473,0.424705 c 0.243685,0.272525 0.505196,0.516719 0.778602,0.732604 0.0416,0.03186 1.340264,0.99452 2.793459,1.479381 0.34769,0.113255 0.820204,0.272524 1.447249,0.484868 0.1574927,0.05309 0.3179767,0.106167 0.4784497,0.155724 0.546803,0.180496 1.096584,0.368077 1.640417,0.583967 0.19613,0.07786 0.389292,0.15926 0.582465,0.24066 l 0.0089,0.0035 c 0.08619,0.03893 0.169394,0.07432 0.252599,0.113254 l 0.163445,0.08847 0.460622,0.226516 0.01189,0.0036 0.03566,0.01769 h 0.003 c 1.084696,0.587497 2.068348,1.35196 2.826146,2.480974 0.205055,0.304361 0.392276,0.619348 0.564641,0.941423 0.641894,1.217475 1.031198,2.565899 1.135211,4.027577 0.104011,1.461681 -0.04161,2.905666 -0.523036,4.278886 -0.303111,0.863522 -0.719164,1.642167 -1.218418,2.357089 -0.199107,0.286695 -0.306091,0.276055 -0.528974,0.01415 -0.04755,-0.05662 -0.08915,-0.113243 -0.127783,-0.173431 -0.561668,-0.803401 -0.968798,-1.776655 -0.968798,-1.776655 -0.439824,-0.987433 -0.719167,-2.049184 -0.817238,-3.178191 -0.178306,-2.059798 0.225854,-3.963881 1.322439,-5.613144 -0.374447,-0.516722 -0.799407,-0.95558 -1.26003,-1.334263 -0.576522,0.909562 -0.989594,1.925311 -1.274886,3.001223 -0.05349,0.201737 -0.101039,0.403477 -0.142644,0.605202 -0.267461,1.277638 -0.326898,2.580065 -0.157508,3.907252 0.03566,0.286677 0.08024,0.569813 0.133732,0.849403 0.448736,2.463289 1.453191,4.569092 3.052002,6.303278 0.374442,0.407005 0.549776,0.456526 0.817234,0.187553 0.445767,-0.445931 0.852896,-0.941407 1.230312,-1.468713 0.615154,-0.863616 1.081718,-1.843909 1.441305,-2.880918 0.04458,-0.123887 0.08618,-0.251282 0.124815,-0.375142 0.514112,-1.599714 0.781576,-3.248972 0.638931,-4.969013 -0.01189,-0.05663 -0.01783,-0.120332 -0.02378,-0.184039 z"
         id="path8-5-6"
         style="fill:currentColor;fill-opacity:1;stroke-width:0.0324308"
         inkscape:connector-curvature="0"
         sodipodi:nodetypes="sccccccccccccccccccccccsssccccccccccccccccscccccccccccsccccccccccsccccccccscccccccccss"
         class="ColorScheme-Text " />
      <path
         id="path4149-8-35-7"
         d="m 15.999965,2.5 c -1.656854,0 -3,1.343146 -3,3 0,1.656855 1.343146,3 3,3 1.656854,0 3,-1.343145 3,-3 0,-1.656854 -1.343146,-3 -3,-3 z m 0,5 z"
         opacity="1"
         fill-opacity="1"
         stroke="none"
         style="fill:currentColor;fill-opacity:1;stroke-width:0.75"
         sodipodi:nodetypes="sssssccccc"
         class="ColorScheme-Text" />
    </g>
    <g
       id="22-22-start-here-kde">
      <rect
         id="rect7-6"
         style="opacity:0.00100002;stroke-width:0.6875"
         width="22"
         height="22"
         x="-22"
         y="10" />
      <path
         d="m -2.0166564,16.335505 c -0.04938,1.008661 -0.166653,2.004875 -0.460855,2.96374 -0.181044,0.597724 -0.329175,1.210389 -0.586346,1.770763 -0.475247,1.028589 -1.084224,1.922694 -1.876307,2.615059 -0.752994,0.657507 -1.582106,1.11825 -2.487349,1.369798 0.03908,-0.410936 0.04938,-0.829352 0.02469,-1.247754 0.709787,-0.216681 1.333166,-0.647542 1.905114,-1.183008 0.613092,-0.577799 1.096567,-1.305039 1.489526,-2.11944 0.395009,-0.814408 0.656296,-1.693572 0.839403,-2.612574 0.133727,-0.677427 0.154301,-1.364813 0.146069,-2.052206 l 0.0063,-0.600216 c -0.03496,0.09962 -0.238644,0.343699 -0.267448,0.37607 -0.493763,0.550408 -1.073938,0.928972 -1.695261,1.220357 -0.571947,0.26898 -1.16652,0.450789 -1.756982,0.655018 -0.750941,0.256529 -1.526564,0.455769 -2.226066,0.871689 -0.08641,0.0523 -0.166642,0.08966 -0.238651,0.114563 -0.244829,-0.33623 -0.516396,-0.637578 -0.8064846,-0.914031 l -0.01028,-0.01 c 0.6830488,-0.398487 1.4051828,-0.667467 2.1190798,-0.953875 0.987536,-0.395997 1.983297,-0.757123 2.929681,-1.30255 0.851743,-0.493125 1.629423,-1.093344 2.304241,-1.892805 0.10698,-0.127021 0.238652,-0.281426 0.34975,-0.480672 0.121385,0.410938 0.176932,0.841798 0.224248,1.212889 0.09053,0.729723 0.109044,1.464436 0.07408,2.199143 z m -6.404559,7.095533 c -0.05967,-0.587767 -0.15636,-1.165574 -0.337405,-1.725941 -0.195446,-0.6052 -0.464964,-1.143154 -0.757104,-1.683602 -0.0144,-0.0274 -0.03086,-0.0548 -0.04527,-0.0797 -0.3230104,-0.56784 -0.7159706,-1.038556 -1.1562426,-1.456961 -0.582225,-0.555393 -1.232354,-0.951388 -1.911287,-1.277644 -0.259224,-0.124528 -0.522566,-0.236605 -0.785908,-0.346185 l -1.997693,-0.787015 c -0.547257,-0.226631 -1.088343,-0.473195 -1.615026,-0.777043 -0.851747,-0.493124 -1.629427,-1.093344 -2.304241,-1.892805 -0.106982,-0.12702 -0.238653,-0.291394 -0.34975,-0.49064 -0.121384,0.410938 -0.176935,0.851766 -0.224254,1.225347 -0.09464,0.729727 -0.113154,1.466926 -0.07816,2.201632 0.04936,1.008663 0.166647,2.004882 0.460847,2.96374 0.181048,0.597724 0.32918,1.210392 0.586349,1.770774 0.47525,1.028584 1.084226,1.922683 1.87631,2.615054 0.748875,0.655009 1.571821,1.113265 2.470887,1.367303 -0.04355,-0.389604 -0.05922,-0.77499 -0.04701,-1.156163 0.0011,-0.03305 0.0024,-0.06608 0.0039,-0.09907 -0.695391,-0.219167 -1.308482,-0.645048 -1.868082,-1.173041 -0.613092,-0.577806 -1.096572,-1.30504 -1.489527,-2.119449 -0.395014,-0.814402 -0.656299,-1.693562 -0.8394,-2.612565 -0.137846,-0.697353 -0.154305,-1.402173 -0.146076,-2.109487 v -0.488143 l 0.238656,0.298867 c 0.168706,0.191777 0.34975,0.363617 0.539029,0.515536 0.0288,0.02242 0.927866,0.699847 1.933917,1.041046 0.240706,0.0797 0.567828,0.191776 1.001932,0.341203 0.109034,0.03736 0.220137,0.07471 0.331233,0.109584 0.378554,0.127015 0.759166,0.259017 1.135665,0.410939 0.135779,0.05479 0.269506,0.112072 0.40324,0.169354 l 0.0063,0.0025 c 0.05967,0.0274 0.117273,0.0523 0.174875,0.0797 l 0.113156,0.06226 0.318889,0.1594 0.0084,0.0025 0.02468,0.01245 h 0.0021 c 0.750937,0.413423 1.431921,0.951379 1.956547,1.74587 0.14196,0.21418 0.271573,0.435837 0.390901,0.662483 0.4443862,0.856741 0.7139026,1.805632 0.7859116,2.83422 0.07201,1.028591 -0.02881,2.044728 -0.3621004,3.011068 -0.2098462,0.607664 -0.4978792,1.155599 -0.8435142,1.658692 -0.137841,0.201748 -0.211907,0.194261 -0.366209,0.01 -0.03292,-0.03984 -0.06173,-0.07969 -0.08847,-0.122044 -0.388845,-0.565356 -0.670702,-1.250238 -0.670702,-1.250238 -0.304491,-0.69486 -0.497881,-1.442018 -0.565775,-2.236505 -0.123442,-1.449487 0.156359,-2.789397 0.915525,-3.94999 -0.259228,-0.363619 -0.553428,-0.672445 -0.872319,-0.938925 -0.399127,0.640062 -0.685097,1.354848 -0.882606,2.111971 -0.03702,0.141963 -0.06995,0.283928 -0.09875,0.425883 -0.185164,0.899079 -0.226313,1.815601 -0.109044,2.749548 0.02468,0.201735 0.05554,0.400979 0.09259,0.597728 0.310661,1.733425 1.006048,3.215286 2.112908,4.435639 0.259227,0.286411 0.380612,0.321259 0.565773,0.131982 0.308606,-0.313803 0.590461,-0.662472 0.8517462,-1.033539 0.4258734,-0.607729 0.7488774,-1.297565 0.9978194,-2.027312 0.03087,-0.08718 0.05967,-0.176828 0.08641,-0.263989 0.35592,-1.125725 0.541086,-2.286313 0.442332,-3.496713 -0.0084,-0.03985 -0.01234,-0.08468 -0.01646,-0.129508 z"
         id="path8-5-2"
         style="fill:currentColor;fill-opacity:1;stroke-width:0.0226361"
         inkscape:connector-curvature="0"
         sodipodi:nodetypes="sccccccccccccccccccccccsssccccccccccccccccscccccccccccsccccccccccsccccccccscccccccccss"
         class="ColorScheme-Text" />
      <path
         id="path4149-8-35-9"
         d="m -11.000075,11.500002 c -1.147043,0 -2.076906,0.945177 -2.076906,2.111111 0,1.165935 0.929863,2.111111 2.076906,2.111111 1.1470432,0 2.0769066,-0.945176 2.0769066,-2.111111 0,-1.165934 -0.9298634,-2.111111 -2.0769066,-2.111111 z m 0,3.518518 z"
         opacity="1"
         fill-opacity="1"
         stroke="none"
         style="fill:currentColor;fill-opacity:1;stroke-width:0.523484"
         sodipodi:nodetypes="sssssccccc"
         class="ColorScheme-Text" />
    </g>
  </g>
</svg>
