<?xml version="1.0" encoding="UTF-8" standalone="no"?>
<svg
   width="32"
   height="32"
   version="1.1"
   id="svg12"
   sodipodi:docname="vlc.svg"
   inkscape:version="1.2.1 (9c6d41e410, 2022-07-14)"
   xmlns:inkscape="http://www.inkscape.org/namespaces/inkscape"
   xmlns:sodipodi="http://sodipodi.sourceforge.net/DTD/sodipodi-0.dtd"
   xmlns="http://www.w3.org/2000/svg"
   xmlns:svg="http://www.w3.org/2000/svg"
   xmlns:rdf="http://www.w3.org/1999/02/22-rdf-syntax-ns#"
   xmlns:cc="http://creativecommons.org/ns#"
   xmlns:dc="http://purl.org/dc/elements/1.1/">
  <style
     id="current-color-scheme"
     type="text/css">
.ColorScheme-Text { 
    color:#eff0f1;
}
</style>
  <metadata
     id="metadata18">
    <rdf:RDF>
      <cc:Work
         rdf:about="">
        <dc:format>image/svg+xml</dc:format>
        <dc:type
           rdf:resource="http://purl.org/dc/dcmitype/StillImage" />
      </cc:Work>
    </rdf:RDF>
  </metadata>
  <defs
     id="defs16" />
  <sodipodi:namedview
     pagecolor="#ffffff"
     bordercolor="#000000"
     borderopacity="1"
     objecttolerance="10"
     gridtolerance="10"
     guidetolerance="10"
     inkscape:pageopacity="0"
     inkscape:pageshadow="2"
     inkscape:window-width="1920"
     inkscape:window-height="1000"
     id="namedview14"
     showgrid="false"
     inkscape:zoom="11.313708"
     inkscape:cx="26.870059"
     inkscape:cy="13.744389"
     inkscape:window-x="0"
     inkscape:window-y="0"
     inkscape:window-maximized="1"
     inkscape:current-layer="svg12"
     inkscape:lockguides="false"
     inkscape:document-rotation="0"
     inkscape:showpageshadow="false"
     inkscape:pagecheckerboard="0"
     inkscape:deskcolor="#d1d1d1">
    <inkscape:grid
       type="xygrid"
       id="grid868"
       originx="0"
       originy="0" />
  </sodipodi:namedview>
  <g
     id="vlc">
    <rect
       style="opacity:0.00100002"
       width="32"
       height="32"
       x="0"
       y="0"
       id="rect7" />
    <path
       d="m 13,5.4091294 -1,3.589096 8,0.00945 L 19,5.30917 C 17,3.4983541 15,3.5983137 13,5.4091294 Z m -2,7.6043896 -1,4.995495 H 22 L 21,13.013519 Z M 9,22.005408 8,25.002704 H 6 L 4,27.00142 V 28 h 24 v -0.99858 l -2,-1.998716 h -2 l -1,-2.997296 z"
       id="path2"
       style="fill:currentColor;fill-opacity:1;stroke-width:0.297367"
       sodipodi:nodetypes="ccccccccccccccccccccc"
       class="ColorScheme-Text" />
  </g>
  <g
     id="22-22-vlc"
     transform="translate(32,10)">
    <rect
       style="opacity:0.00100002"
       width="22"
       height="22"
       x="0"
       y="0"
       id="rect2" />
    <path
       d="M 10,3.5615959 9,6.009757 h 4 L 12,3.5116335 C 11.085471,2.8281869 10.98878,2.8142973 10,3.5615959 Z M 8,9.0075052 7,12.005253 h 8 L 14,9.0075052 Z M 6,15.003002 5,17.0015 H 4 L 3,18.227424 V 19 H 19 V 18.227424 L 18,17.0015 h -1 l -1,-1.998498 z"
       id="path2-3"
       style="fill:currentColor;fill-opacity:1;stroke-width:0.196529"
       sodipodi:nodetypes="ccccccccccccccccccccc"
       class="ColorScheme-Text" />
  </g>
</svg>
