<?xml version="1.0" encoding="UTF-8" standalone="no"?>
<svg
   width="32"
   height="32"
   version="1.1"
   id="svg2"
   sodipodi:docname="input-keyboard-brightness.svg"
   inkscape:version="1.4.2 (unknown)"
   xmlns:inkscape="http://www.inkscape.org/namespaces/inkscape"
   xmlns:sodipodi="http://sodipodi.sourceforge.net/DTD/sodipodi-0.dtd"
   xmlns="http://www.w3.org/2000/svg"
   xmlns:svg="http://www.w3.org/2000/svg">
  <defs
     id="defs2" />
  <sodipodi:namedview
     id="namedview2"
     pagecolor="#ffffff"
     bordercolor="#000000"
     borderopacity="0.25"
     inkscape:showpageshadow="2"
     inkscape:pageopacity="0.0"
     inkscape:pagecheckerboard="0"
     inkscape:deskcolor="#d1d1d1"
     inkscape:zoom="11.890625"
     inkscape:cx="15.810775"
     inkscape:cy="22.580815"
     inkscape:current-layer="svg2" />
  <style
     type="text/css"
     id="current-color-scheme">.ColorScheme-Text {
        color:#fcfcfc;
      }
      .ColorScheme-Background {
        color:#eff0f1;
      }
      .ColorScheme-Highlight {
        color:#3daee9;
      }
      .ColorScheme-ViewText {
        color:#31363b;
      }
      .ColorScheme-ViewBackground {
        color:#fcfcfc;
      }
      .ColorScheme-ViewHover {
        color:#93cee9;
      }
      .ColorScheme-ViewFocus{
        color:#3daee9;
      }
      .ColorScheme-ButtonText {
        color:#31363b;
      }
      .ColorScheme-ButtonBackground {
        color:#eff0f1;
      }
      .ColorScheme-ButtonHover {
        color:#93cee9;
      }
      .ColorScheme-ButtonFocus{
        color:#3daee9;
      }</style>
  <g
     id="g2"
     transform="translate(0,-38.6)">
    <path
       class="ColorScheme-Text"
       d="m 6,46.60017 c 0,4 0,16 0,16 l 10,4 10,-4 v -10 h -1 v 4 c 0,0 0,3 -3,3 -3,0 -9,0 -12,0 -3,0 -3,-3 -3,-3 0,0 0,-7 0,-10 0,-3 3,-3 3,-3 h 9 v -1 h -9 c 0,0 -4,0 -4,4 z m 9.40625,0 -4.40625,10 h 1.300781 l 1.322266,-3 h 4.722656 l 1.349609,3 H 21 l -4.5,-10 z m 0.552734,1.69531 1.9375,4.30469 H 14.0625 Z M 7,60.60017 h 18 v 1 H 7 Z"
       fill="currentColor"
       id="path1" />
    <path
       class="ColorScheme-Text"
       d="m 24,41.6 c -0.277,0 -0.5,0.223 -0.5,0.5 v 1 c 0,0.277 0.223,0.5 0.5,0.5 0.277,0 0.5,-0.223 0.5,-0.5 v -1 c 0,-0.277 -0.223,-0.5 -0.5,-0.5 z m -3.181641,1.318359 c -0.127809,0 -0.255581,0.04855 -0.353515,0.146485 -0.195869,0.195868 -0.195869,0.511162 0,0.707031 l 0.707031,0.707031 c 0.195869,0.195869 0.511163,0.195869 0.707031,0 0.195869,-0.195868 0.195869,-0.511162 0,-0.707031 l -0.707031,-0.707031 c -0.09793,-0.09793 -0.225706,-0.146485 -0.353516,-0.146485 z m 6.363281,0 c -0.12781,0 -0.25558,0.04855 -0.35352,0.146485 l -0.70703,0.707031 c -0.19586,0.195869 -0.19586,0.511163 0,0.707031 0.19587,0.195869 0.51117,0.195869 0.70703,0 l 0.70704,-0.707031 c 0.19586,-0.195869 0.19586,-0.511163 0,-0.707031 -0.0979,-0.09793 -0.22571,-0.146485 -0.35352,-0.146485 z M 24,44.6 c -1.104569,0 -2,0.895431 -2,2 0,1.104569 0.895431,2 2,2 1.10457,0 2,-0.895431 2,-2 0,-1.104569 -0.89543,-2 -2,-2 z m 0,1 v 2 c -0.552285,0 -1,-0.447715 -1,-1 0,-0.552285 0.447715,-1 1,-1 z m -4.5,0.5 c -0.277,0 -0.5,0.223 -0.5,0.5 0,0.277 0.223,0.5 0.5,0.5 h 1 c 0.277,0 0.5,-0.223 0.5,-0.5 0,-0.277 -0.223,-0.5 -0.5,-0.5 z m 8,0 c -0.277,0 -0.5,0.223 -0.5,0.5 0,0.277 0.223,0.5 0.5,0.5 h 1 c 0.277,0 0.5,-0.223 0.5,-0.5 0,-0.277 -0.223,-0.5 -0.5,-0.5 z m -5.974609,2.474609 c -0.12781,0 -0.255582,0.04855 -0.353516,0.146485 l -0.707031,0.707031 c -0.195869,0.195869 -0.195869,0.511163 0,0.707031 0.195868,0.195869 0.511162,0.195869 0.707031,0 l 0.707031,-0.707031 c 0.195869,-0.195869 0.195869,-0.511163 0,-0.707031 -0.09793,-0.09793 -0.225706,-0.146485 -0.353515,-0.146485 z m 4.949219,0 c -0.12781,0 -0.25558,0.04855 -0.35352,0.146485 -0.19586,0.195868 -0.19586,0.511162 0,0.707031 l 0.70703,0.707031 c 0.19587,0.195869 0.51117,0.195869 0.70704,0 0.19586,-0.195868 0.19586,-0.511162 0,-0.707031 l -0.70704,-0.707031 c -0.0979,-0.09793 -0.2257,-0.146485 -0.35351,-0.146485 z M 24,49.6 c -0.277,0 -0.5,0.223 -0.5,0.5 v 1 c 0,0.277 0.223,0.5 0.5,0.5 0.277,0 0.5,-0.223 0.5,-0.5 v -1 c 0,-0.277 -0.223,-0.5 -0.5,-0.5 z"
       fill="currentColor"
       id="path2" />
  </g>
</svg>
